<svg width="80" height="80" viewBox="0 0 80 80" fill="none" xmlns="http://www.w3.org/2000/svg">
<path d="M38.2989 14.8944C21.0486 14.8944 7.01624 29.4933 7.01624 47.4459C7.01624 65.3959 21.0486 80 38.2989 80C55.5467 80 69.5841 65.3933 69.5841 47.4459C69.5841 29.4959 55.5467 14.8944 38.2989 14.8944ZM38.2989 74.1532C24.1445 74.1532 12.6302 62.1718 12.6302 47.4381C12.6302 32.7122 24.1445 20.7308 38.2989 20.7308C52.4558 20.7308 63.9702 32.7148 63.9702 47.4381C63.9702 62.1718 52.4558 74.1532 38.2989 74.1532Z" fill="#044D91"/>
<path d="M8.42092 26.6502C13.0717 26.6502 16.8418 22.7271 16.8418 17.8877C16.8418 13.0484 13.0717 9.12527 8.42092 9.12527C3.77017 9.12527 0 13.0484 0 17.8877C0 22.7271 3.77017 26.6502 8.42092 26.6502Z" fill="#044D91"/>
<path d="M66.4085 22.5243C69.9643 22.5243 72.8469 19.5248 72.8469 15.8248C72.8469 12.1247 69.9643 9.12527 66.4085 9.12527C62.8527 9.12527 59.9702 12.1247 59.9702 15.8248C59.9702 19.5248 62.8527 22.5243 66.4085 22.5243Z" fill="#044D91"/>
<path d="M75.9652 8.39705C78.1936 8.39705 80 6.5173 80 4.19852C80 1.87974 78.1936 0 75.9652 0C73.7368 0 71.9303 1.87974 71.9303 4.19852C71.9303 6.5173 73.7368 8.39705 75.9652 8.39705Z" fill="#044D91"/>
<path d="M24.2117 9.12789C25.9559 9.12789 27.3699 7.65659 27.3699 5.84164C27.3699 4.02669 25.9559 2.55539 24.2117 2.55539C22.4675 2.55539 21.0536 4.02669 21.0536 5.84164C21.0536 7.65659 22.4675 9.12789 24.2117 9.12789Z" fill="#044D91"/>
<path d="M29.2926 33.6815C25.3773 33.6815 22.3237 34.8218 20.132 37.1025C17.9377 39.3857 16.8418 42.5683 16.8418 46.6684C16.8418 49.5996 17.3947 52.0409 18.5031 53.9899C19.6089 55.9466 21.0535 57.3694 22.8368 58.2713C24.6176 59.168 26.8692 59.6216 29.589 59.6216C32.264 59.6216 34.4981 59.1007 36.2914 58.0562C38.0846 57.0092 39.452 55.5449 40.4034 53.6789C41.3499 51.7973 41.8256 49.3974 41.8256 46.461C41.8256 42.4206 40.7397 39.2795 38.5678 37.0403C36.3985 34.7985 33.3051 33.6815 29.2926 33.6815ZM33.0585 52.1964C32.1793 53.2797 30.9414 53.8214 29.3424 53.8214C27.7833 53.8214 26.5554 53.2694 25.6513 52.1601C24.7447 51.0509 24.2939 49.2341 24.2939 46.7021C24.2939 44.1493 24.7496 42.3169 25.6612 41.2103C26.5703 40.1036 27.7758 39.5464 29.2802 39.5464C30.8443 39.5464 32.0871 40.0933 33.0062 41.1818C33.9203 42.2703 34.381 43.9963 34.381 46.36C34.376 49.1642 33.9352 51.1131 33.0585 52.1964Z" fill="#044D91"/>
<path d="M50.0299 54.6352C50.3312 54.3812 50.9265 53.8266 51.8231 53.1813C53.325 52.0772 54.3611 51.0146 54.9315 50.0972C55.4969 49.1746 55.7833 48.1819 55.7833 47.1738C55.7833 46.2226 55.5342 45.3492 55.0386 44.5847C54.538 43.815 53.858 43.2396 52.9962 42.8768C52.1245 42.5036 50.914 42.3144 49.3524 42.3144C47.8555 42.3144 46.6899 42.5062 45.8406 42.8975C44.9987 43.2811 44.3387 43.8409 43.8804 44.5717C43.4172 45.2974 43.0983 46.3107 42.924 47.6118L47.3649 47.9902C47.4869 47.0546 47.7285 46.3989 48.0896 46.0257C48.4483 45.6576 48.9091 45.4736 49.4769 45.4736C50.0224 45.4736 50.4732 45.6499 50.8343 46.0101C51.1955 46.3704 51.3723 46.8006 51.3723 47.306C51.3723 47.7725 51.1905 48.2701 50.8294 48.7884C50.4632 49.3093 49.6338 50.0687 48.3337 51.0717C46.2067 52.7174 44.7596 53.9277 43.9875 55.1251C43.2154 56.3328 42.7521 58.7741 42.6002 58.7741H54.7447V55.8533H48.9788C49.3748 55.8559 49.7285 54.8892 50.0299 54.6352Z" fill="#044D91"/>
</svg>
