<svg width="80" height="80" viewBox="0 0 80 80" fill="none" xmlns="http://www.w3.org/2000/svg">
<g clip-path="url(#clip0_829_37)">
<path d="M79.6166 8.4744C79.3722 8.2494 79.0456 8.13627 78.7134 8.16487C77.7602 8.24424 75.8506 8.97159 74.7394 11.1938C74.4423 11.7878 73.0595 12.6977 71.8394 13.5003C69.3992 15.1058 66.3623 17.1038 65.4742 20.1008C64.7684 22.4829 66.355 24.3349 67.7548 25.9685C69.7845 28.3374 70.5814 29.474 68.2003 31.5904C64.7801 34.6305 64.5472 40.9141 64.9542 45.6501C65.3717 50.5078 66.6561 55.5965 67.5258 56.9009C67.5737 56.9728 67.58 57.007 67.58 57.007C67.5659 57.3668 66.3589 58.2811 65.7103 58.7723C65.389 59.0156 65.0637 59.2623 64.7467 59.5186C64.3372 58.9959 63.7422 58.5378 62.9598 58.1486C61.7026 57.5231 60.1097 57.1179 58.4231 56.6889C55.9162 56.0514 53.0751 55.3287 52.4954 53.9853C52.0256 52.8959 51.9946 51.3164 51.962 49.644C51.8889 45.8863 51.7975 41.2101 46.5965 38.843C43.7343 37.5402 40.7949 37.6635 38.7331 39.1713C37.2896 40.2271 36.5054 41.8227 36.6866 43.3359C36.8499 44.699 37.7755 45.8259 39.2257 46.427C41.7498 47.4732 42.681 49.7812 42.0734 53.4828C42.0349 53.7171 41.9316 54.0675 41.8223 54.4385C41.1932 56.5736 39.8843 61.0161 45.5637 63.9184C47.966 65.1461 49.317 66.1917 50.0706 66.9376C42.8952 66.9712 37.3798 65.5911 33.3369 64.5761C29.7294 63.6706 27.3465 63.072 25.5694 63.8717C24.0126 64.5723 23.3926 65.7945 22.8457 66.8726C22.0433 68.4542 21.4096 69.7034 17.6343 69.7873C14.3294 69.8608 11.518 71.3959 9.50393 74.2272C8.0244 76.3072 7.4994 78.3631 7.47768 78.4497C7.31846 79.0864 7.70549 79.7314 8.34221 79.8906C8.43877 79.9147 8.53581 79.9264 8.63127 79.9264C8.84237 79.9264 9.04581 79.8698 9.22315 79.7677H78.8117C79.468 79.7677 79.9998 79.2358 79.9998 78.5795V9.34862C80 9.01643 79.8609 8.6994 79.6166 8.4744ZM46.6453 61.8023C42.721 59.7968 43.4546 57.3068 44.102 55.1101C44.2326 54.6664 44.356 54.2473 44.4185 53.8676C45.4174 47.7848 42.641 45.2699 40.136 44.2315C39.6807 44.0429 39.1223 43.6852 39.0465 43.0532C38.9684 42.4016 39.3962 41.6307 40.1362 41.0895C40.7888 40.612 42.629 39.6482 45.6126 41.006C49.451 42.7527 49.517 46.1227 49.5863 49.6903C49.6237 51.6026 49.6588 53.4089 50.3137 54.9267C51.3565 57.3437 54.6512 58.1818 57.8376 58.9921C60.1409 59.5779 62.7287 60.2367 63.0129 61.2881C62.7367 61.7097 62.5382 62.1547 62.3451 62.5889C61.9654 63.4431 61.5434 64.3918 60.2617 65.185C59.0797 64.0406 56.3617 61.712 52.3348 60.0426C48.1226 58.2961 48.3446 55.7845 48.3562 55.6786L48.3531 55.7015L46.0032 55.3479C45.9765 55.5264 45.4149 59.7459 51.4248 62.2378C54.3464 63.4492 56.5257 65.0637 57.8107 66.1711C56.6007 66.4875 55.0368 66.7261 52.9935 66.8484C52.4182 65.794 50.8621 63.9573 46.6453 61.8023ZM77.6239 77.3916H10.4039C11.3452 75.3912 13.4866 72.2565 17.6871 72.1633C22.8849 72.0478 24.0871 69.6781 24.9649 67.9479C25.4679 66.9564 25.7893 66.3787 26.5447 66.0389C27.5688 65.5778 29.859 66.1531 32.7584 66.8808C36.9965 67.9448 42.7987 69.4067 50.4684 69.3117C54.9245 69.2594 58.1975 68.7536 60.4364 67.7719C60.4906 67.7523 60.5434 67.7279 60.595 67.7003C60.8051 67.6039 61.0095 67.5045 61.2009 67.3992C63.3272 66.2286 64.0145 64.6829 64.5165 63.554C64.7261 63.0829 64.907 62.6759 65.1442 62.3956C65.6465 61.8018 66.4086 61.2245 67.1455 60.6664C67.9831 60.0317 68.7742 59.4325 69.3062 58.7392C70.3776 57.3426 69.8895 56.162 69.5033 55.5826C69.0669 54.9279 67.762 50.5653 67.3222 45.4463C66.8126 39.5179 67.6853 35.2276 69.7794 33.3663C74.0048 29.6102 71.3298 26.488 69.5597 24.4221C68.2248 22.8641 67.4372 21.8413 67.7528 20.7757C68.394 18.6113 70.9184 16.9504 73.1456 15.4852C74.8287 14.378 76.282 13.4218 76.8648 12.2563C77.092 11.8019 77.3587 11.4664 77.6241 11.2186V77.3916H77.6239Z" fill="#044D91"/>
<path d="M34.2857 8.69892C34.0141 8.34674 27.5414 0.0735931 19.2895 0.0735931C14.3256 0.0735931 9.99719 3.0336 7.08671 5.7272L1.91842 2.33532C1.48514 2.05078 0.917793 2.08032 0.51623 2.40735C0.11451 2.73438 -0.0289274 3.28407 0.161698 3.76579L2.39311 9.40471L0.163104 14.9861C-0.0293962 15.4678 0.113104 16.0189 0.514667 16.3472C0.73248 16.5252 0.998887 16.6153 1.2667 16.6153C1.49295 16.6153 1.71983 16.5508 1.91842 16.4207L7.02937 13.0667C9.59672 15.4458 14.1147 18.7754 19.2895 18.7754C27.5413 18.7754 34.0141 10.5021 34.2857 10.15C34.6152 9.72236 34.6152 9.12642 34.2857 8.69892ZM7.69765 9.78533L3.7703 12.3627L4.77499 9.84783C4.88764 9.56596 4.88811 9.25189 4.77639 8.96971L3.75217 6.38126L7.69765 8.97049C7.88906 9.09611 7.91749 9.27955 7.91749 9.37799C7.91749 9.47611 7.88906 9.65971 7.69765 9.78533ZM14.6505 7.21001H23.6088C23.3052 8.58002 23.2622 9.96768 23.4802 11.3291H14.6505C13.9942 11.3291 13.4623 11.861 13.4623 12.5172C13.4623 13.1735 13.9944 13.7053 14.6505 13.7053H24.1389C24.3139 14.1419 24.5188 14.5724 24.7516 14.9955C23.0785 15.8264 21.2252 16.3985 19.2894 16.3985C15.1691 16.3985 11.4145 13.7917 9.07875 11.7177C9.84094 11.1813 10.2939 10.3142 10.2939 9.37783C10.2939 8.46517 9.86422 7.61783 9.13687 7.07861C11.4383 5.04813 15.1853 2.44954 19.2892 2.44954C21.2725 2.44969 23.1696 3.04876 24.8741 3.91235C24.7049 4.21688 24.548 4.52391 24.4069 4.8336H14.6506C13.9944 4.8336 13.4625 5.36548 13.4625 6.02173C13.4625 6.67798 13.9944 7.21001 14.6505 7.21001ZM26.8072 13.8008C25.3388 11.0735 25.3796 7.94939 26.9202 5.12298C29.1803 6.64783 30.92 8.4447 31.7894 9.42408C30.9054 10.42 29.1222 12.2603 26.8072 13.8008Z" fill="#044D91"/>
<path d="M33.9261 55.1421C33.8307 54.7079 31.5007 44.4651 24.0356 40.9485C19.5453 38.8334 14.3681 39.6665 10.587 40.8627L7.35702 35.5919C7.08639 35.1504 6.56077 34.9348 6.0578 35.0596C5.55498 35.1843 5.19092 35.6204 5.15811 36.1376L4.77373 42.1898L0.377786 46.2888C-0.00159017 46.6426 -0.107684 47.2017 0.11591 47.6698C0.314973 48.0871 0.734974 48.3462 1.18763 48.346C1.24294 48.346 1.29872 48.3423 1.35451 48.3343L7.40733 47.4781C8.71608 50.7245 11.3842 55.6618 16.0658 57.867C18.0789 58.8151 20.23 59.1642 22.3078 59.164C27.9357 59.1637 33.0186 56.6029 33.3077 56.4546C33.7882 56.2082 34.0421 55.6693 33.9261 55.1421ZM9.78296 44.5198C9.74108 44.6087 9.63702 44.7624 9.4103 44.7946L4.7592 45.4524L6.73998 43.6059C6.96202 43.399 7.09624 43.1149 7.11545 42.8121L7.29202 40.0338L9.75765 44.0573C9.87718 44.2526 9.82483 44.4309 9.78296 44.5198ZM23.03 52.917L15.0423 49.1543C14.4486 48.8748 13.7408 49.1295 13.4611 49.7229C13.1812 50.3165 13.4359 51.0245 14.0295 51.3042L22.6131 55.3478C22.5855 55.8171 22.5874 56.2939 22.6175 56.7757C20.7499 56.8143 18.8294 56.5424 17.0783 55.7173C13.3508 53.9615 11.065 50.0032 9.83593 47.1315C10.7541 46.971 11.5333 46.3796 11.9323 45.5324C12.3212 44.707 12.2936 43.7571 11.8655 42.9596C14.8131 42.1034 19.3102 41.3493 23.0228 43.0984C24.8169 43.9434 26.2775 45.2937 27.4516 46.8015C27.1686 47.0048 26.896 47.2157 26.6363 47.4359L17.8102 43.2782C17.2164 42.9985 16.5086 43.2534 16.2289 43.8468C15.9491 44.4404 16.2038 45.1484 16.7973 45.4281L24.9014 49.2457C24.0433 50.3559 23.413 51.5928 23.03 52.917ZM24.9867 56.5707C24.8206 53.4774 26.1888 50.6692 28.7871 48.7685C30.1819 51.1113 30.99 53.4781 31.3591 54.7348C30.1347 55.2589 27.7374 56.1635 24.9867 56.5707Z" fill="#044D91"/>
<path d="M59.8825 22.8686C59.5539 22.5691 51.7415 15.5453 43.6157 16.9804C38.7275 17.843 34.9793 21.5102 32.5809 24.6686L26.902 22.2269C26.426 22.0222 25.8724 22.1497 25.5337 22.5415C25.1948 22.9335 25.1491 23.4997 25.4206 23.941L28.5981 29.1062L27.3717 34.9901C27.2659 35.498 27.5017 36.0159 27.9543 36.2691C28.136 36.371 28.336 36.4205 28.5345 36.4205C28.8304 36.4205 29.1234 36.3102 29.3495 36.0974L33.7996 31.9065C36.3154 33.5285 40.3564 35.5871 44.6615 35.5868C45.3904 35.5866 46.1278 35.5277 46.8654 35.3974C54.9917 33.9634 59.9284 24.6913 60.1345 24.2976C60.385 23.8191 60.2812 23.2324 59.8825 22.8686ZM33.8879 28.559L30.4684 31.7794L31.0209 29.1283C31.0828 28.8313 31.0288 28.5219 30.8698 28.2633L29.4112 25.8922L33.7464 27.7565C33.9567 27.8469 34.0168 28.0227 34.0337 28.1196C34.0507 28.2163 34.0545 28.4021 33.8879 28.559ZM46.4525 33.0576C42.3943 33.7737 38.244 31.859 35.5837 30.2223C36.241 29.5615 36.5365 28.6288 36.3737 27.7068C36.2151 26.808 35.6446 26.0482 34.8348 25.6438C36.7487 23.244 39.9873 20.0338 44.0287 19.3205C45.9815 18.9757 47.9539 19.236 49.7826 19.7904C49.6687 20.1197 49.5676 20.4494 49.4825 20.7793L39.8748 22.4747C39.2286 22.5888 38.797 23.205 38.911 23.8513C39.0128 24.4277 39.514 24.833 40.0798 24.833C40.1484 24.833 40.2179 24.8272 40.2876 24.8147L49.1097 23.2579C49.0489 24.6599 49.2475 26.034 49.6987 27.3366L41.0036 28.8712C40.3573 28.9852 39.9257 29.6015 40.0398 30.2477C40.1415 30.8241 40.6428 31.2294 41.2086 31.2294C41.2771 31.2294 41.3467 31.2235 41.4164 31.2112L50.7603 29.5623C51.0092 29.9629 51.2867 30.3523 51.5905 30.7296C50.0879 31.8368 48.362 32.7207 46.4525 33.0576ZM53.408 29.1968C51.4851 26.7652 50.9812 23.68 52.008 20.6269C54.4998 21.7363 56.5258 23.2046 57.5517 24.0177C56.8559 25.1529 55.4219 27.2768 53.408 29.1968Z" fill="#044D91"/>
</g>
<defs>
<clipPath id="clip0_829_37">
<rect width="80" height="80" fill="white"/>
</clipPath>
</defs>
</svg>
