<svg width="80" height="80" viewBox="0 0 80 80" fill="none" xmlns="http://www.w3.org/2000/svg">
<g clip-path="url(#clip0_829_79)">
<path d="M64.8419 31.993C64.5958 31.1253 63.6936 30.6214 62.8259 30.8673L62.7828 30.8794C61.9142 31.1211 61.4061 32.0216 61.648 32.8902C61.8491 33.6122 62.5053 34.0852 63.2198 34.0852C63.365 34.0852 63.5122 34.0658 63.6587 34.0248L63.7162 34.0089C64.5836 33.763 65.0876 32.8603 64.8419 31.993Z" fill="#044D91"/>
<path d="M73.1183 35.2374C72.3653 30.2874 69.8653 25.547 65.7731 21.3742C62.0794 17.6077 58.4094 15.6274 58.255 15.5449C58.0184 15.4185 57.7542 15.3524 57.4861 15.3524H57.4695C57.2011 15.3524 56.9372 15.4185 56.7006 15.5449C56.5462 15.6274 52.8762 17.6075 49.1825 21.3742C45.0926 25.5449 42.593 30.2822 41.8387 35.2295C39.9331 36.4494 35.1703 40.2203 34.9453 47.5448C34.9317 47.9863 35.0976 48.4145 35.405 48.7316C35.7123 49.0486 36.1355 49.2277 36.577 49.2277H43.2614C44.4875 53.2783 46.2028 56.7752 47.7547 59.4363C49.4961 62.422 51.2308 64.735 52.4162 66.1881C49.1872 67.7525 43.1048 71.3494 39.8731 77.4395C39.6108 77.9339 39.6198 78.528 39.8972 79.0141C40.1745 79.5002 40.6817 79.8102 41.2406 79.8358C51.1675 80.29 55.5631 79.0563 57.475 78.0356C59.1058 78.9106 62.5448 79.942 69.6954 79.9419C70.9195 79.9419 72.2545 79.9116 73.7056 79.8452C74.2647 79.8195 74.7715 79.5095 75.049 79.0234C75.3262 78.5373 75.3356 77.9433 75.0731 77.4489C71.8415 71.3589 65.7636 67.7569 62.5378 66.19C63.7234 64.737 65.4587 62.4236 67.2011 59.4363C68.7528 56.7753 70.4684 53.2784 71.6944 49.2277H78.3676C78.8092 49.2277 79.2322 49.0488 79.5397 48.7316C79.8473 48.4145 80.013 47.9864 79.9994 47.5448C79.7747 40.2364 75.032 36.4658 73.1183 35.2374ZM38.3689 45.9625C38.8512 42.9905 40.2994 40.9156 41.6169 39.5869C41.6931 41.7991 41.9815 43.9339 42.4169 45.9625H38.3689ZM58.675 65.6641C58.2928 66.0617 58.1373 66.6255 58.2615 67.1628C58.3858 67.7002 58.7726 68.1384 59.2906 68.3281C59.3703 68.3573 66.4251 70.9955 70.7097 76.6688C61.2459 76.7933 58.8648 75.0839 58.6806 74.9384C58.3733 74.6083 57.9411 74.4186 57.4861 74.4186H57.4695C57.0165 74.4186 56.5858 74.6069 56.2786 74.9345C56.0942 75.0792 53.71 76.782 44.2389 76.6594C48.5173 71.0094 55.5848 68.3573 55.6634 68.3288C56.1812 68.1397 56.5683 67.7016 56.6933 67.1645C56.8181 66.6275 56.6631 66.0633 56.2817 65.6652C56.1676 65.5458 44.8595 53.5613 44.8595 38.428C44.8595 36.1725 45.2672 33.9764 46.0748 31.8499C49.5394 33.828 53.4401 34.8678 57.4697 34.8678C57.8428 34.8678 58.2206 34.8586 58.5928 34.8408C59.4933 34.7974 60.1881 34.0322 60.145 33.1316C60.1017 32.2311 59.3384 31.5361 58.4356 31.5794C58.1158 31.5947 57.7908 31.6025 57.4698 31.6025C53.9355 31.6025 50.5151 30.6725 47.4939 28.9016L47.4742 28.9072C48.5001 27.122 49.8254 25.393 51.4486 23.7278C53.8481 21.2656 56.2815 19.617 57.4781 18.8749C58.6756 19.6175 61.1086 21.2659 63.5078 23.7278C65.1272 25.3894 66.45 27.1142 67.4748 28.8949L67.4583 28.8939C67.2461 29.0184 67.032 29.1389 66.8164 29.2549C66.0225 29.6819 65.7248 30.6719 66.152 31.4661C66.5789 32.26 67.5687 32.5575 68.3633 32.1305C68.5359 32.0375 68.7078 31.9416 68.8787 31.8439C69.6881 33.9724 70.0965 36.1705 70.0965 38.4283C70.0962 53.5611 58.7883 65.5458 58.675 65.6641ZM72.539 45.9625C72.9736 43.9372 73.262 41.8063 73.3387 39.598C74.6533 40.927 76.0947 42.9988 76.5759 45.9625H72.539Z" fill="#044D91"/>
<path d="M57.4758 25.3167C56.4775 25.3167 55.6652 26.1289 55.6652 27.1273C55.6652 28.1258 56.4774 28.938 57.4758 28.938C58.4742 28.938 59.2864 28.1258 59.2864 27.1273C59.2864 26.1289 58.4741 25.3167 57.4758 25.3167Z" fill="#044D91"/>
<path d="M24.9508 10.4614C22.7989 10.4197 20.762 11.2319 19.2195 12.7456C17.6391 14.2964 16.7328 16.4705 16.7328 18.7101V70.0005C16.7328 71.7906 15.9889 73.5475 14.6917 74.8203C13.4002 76.0875 11.7078 76.7656 9.93641 76.7334C6.33344 76.6651 3.40203 73.7175 3.40203 70.1594L3.26516 1.62968C3.26344 0.729211 2.53282 0.000305176 1.63266 0.000305176C1.63172 0.000305176 1.63047 0.000305176 1.62938 0.000305176C0.727659 0.00218018 -0.00171572 0.734524 3.0314e-06 1.63624L0.136722 70.1625C0.136722 72.7601 1.14938 75.2103 2.9886 77.0617C4.82031 78.9058 7.26563 79.9484 9.87453 79.9978C9.93781 79.9989 10.0006 79.9995 10.0638 79.9995C12.6525 79.9995 15.102 78.992 16.9784 77.1506C18.8973 75.2678 19.998 72.6614 19.998 70.0003V18.71C19.998 17.3412 20.5478 16.0167 21.5064 15.0759C22.4184 14.1814 23.6217 13.7028 24.8892 13.7258C27.5541 13.7764 29.7225 15.9547 29.7225 18.5819V43.2372C29.7225 44.1389 30.4536 44.8698 31.3552 44.8698C32.2567 44.8698 32.9878 44.1389 32.9878 43.2372V18.5819C32.9877 14.1881 29.3823 10.5451 24.9508 10.4614Z" fill="#044D91"/>
<path d="M36.577 62.7469C35.6755 62.7469 34.9444 63.4778 34.9444 64.3796V65.7724C34.9444 66.035 34.8378 66.2842 34.6441 66.4742C34.5364 66.5797 34.3137 66.7531 33.9686 66.7497C33.4378 66.7396 32.9895 66.3153 32.9895 65.823V60.4108C34.5209 59.7694 35.5994 58.2553 35.5994 56.4939C35.5994 54.1535 33.6953 52.2491 31.3545 52.2491C29.0139 52.2491 27.1097 54.1533 27.1097 56.4939C27.1097 58.2572 28.1905 59.7722 29.7242 60.4127V65.8231C29.7242 68.0906 31.6005 69.9708 33.9066 70.0144C33.9336 70.0149 33.9606 70.0152 33.9875 70.0152C35.0911 70.0152 36.1336 69.5872 36.9306 68.8049C37.7431 68.0077 38.2091 66.9024 38.2091 65.7725V64.3797C38.2097 63.4778 37.4786 62.7469 36.577 62.7469ZM31.355 57.4731C30.8148 57.4731 30.3755 57.0338 30.3755 56.4936C30.3755 55.9535 30.8148 55.5141 31.355 55.5141C31.8953 55.5141 32.3345 55.9535 32.3345 56.4936C32.3345 57.0338 31.8953 57.4731 31.355 57.4731Z" fill="#044D91"/>
<path d="M31.3572 46.9037C30.4556 46.9037 29.7245 47.6347 29.7245 48.5364V48.5703C29.7245 49.472 30.4556 50.203 31.3572 50.203C32.2588 50.203 32.9899 49.472 32.9899 48.5703V48.5364C32.9897 47.6347 32.2589 46.9037 31.3572 46.9037Z" fill="#044D91"/>
<path d="M49.4073 37.0358C48.5058 37.0358 47.7747 37.7667 47.7747 38.6684L47.775 38.7244C47.7901 39.6162 48.5181 40.3289 49.4068 40.3289C49.4162 40.3289 49.4256 40.3289 49.4351 40.3287C50.3365 40.3134 51.0551 39.5698 51.0398 38.6684C51.04 37.7667 50.3089 37.0358 49.4073 37.0358Z" fill="#044D91"/>
<path d="M57.4088 56.9852C57.3624 56.9266 52.7452 51.0375 51.4055 42.9981C51.257 42.1089 50.4145 41.5075 49.5267 41.6561C48.6374 41.8044 48.0364 42.6455 48.1845 43.5348C49.6689 52.4406 54.6442 58.7558 54.8553 59.0203C55.1777 59.4241 55.652 59.6341 56.1311 59.6341C56.4877 59.6341 56.8467 59.5178 57.1474 59.2784C57.8522 58.7173 57.9688 57.6908 57.4088 56.9852Z" fill="#044D91"/>
</g>
<defs>
<clipPath id="clip0_829_79">
<rect width="80" height="80" fill="white"/>
</clipPath>
</defs>
</svg>
