<svg width="80" height="80" viewBox="0 0 80 80" fill="none" xmlns="http://www.w3.org/2000/svg">
<g clip-path="url(#clip0_829_157)">
<path d="M66.7582 24.5219C64.0734 19.8973 60.1889 16.0393 55.5309 13.3688C50.8314 10.6357 45.4607 9.19086 40 9.19086C34.539 9.19086 29.1685 10.6357 24.4764 13.3649C19.7509 16.0696 15.8234 19.9969 13.1229 24.7152C10.3893 29.4148 8.94464 34.7854 8.94464 40.2462C8.94464 45.7345 10.3901 51.1059 13.1185 55.7698C15.8234 60.4952 19.7507 64.4227 24.4689 67.1232C29.1689 69.8566 34.5393 71.3013 40 71.3013C45.4607 71.3015 50.8312 69.8566 55.5246 67.1271C60.1893 64.4526 64.0739 60.5948 66.7512 55.9823C69.5671 51.2573 71.0556 45.8157 71.0556 40.246C71.0553 34.6763 69.5668 29.2349 66.7582 24.5219ZM23.8525 16.6818V24.0987H16.435C18.4192 21.1857 20.9362 18.6684 23.8525 16.6818ZM14.9212 26.578H23.8523V39.0065H11.4543C11.6439 34.6513 12.8296 30.3935 14.9212 26.578ZM23.8523 63.811C20.9401 61.8273 18.4231 59.3105 16.4356 56.3937H23.8523V63.811ZM38.7603 68.792C34.4054 68.6023 30.1478 67.4166 26.3318 65.3251V56.3938H38.7603V68.792ZM38.7603 53.9141H26.3318V46.2087H23.8525V53.9141H14.9193C12.829 50.1227 11.6429 45.863 11.454 41.4857H23.8526V43.973H26.332V41.4857H38.7604V53.9141H38.7603ZM38.7603 24.0987H34.0367V26.578H38.7603V39.0065H26.3318V26.578H31.0551V24.0987H26.3318V15.1674C30.1432 13.077 34.4028 11.8902 38.7603 11.7005V24.0987ZM53.6681 53.9141H49.6904V56.3935H53.6681V65.3248C49.8565 67.4152 45.5968 68.602 41.2396 68.7916V56.3935H46.7084V53.9141H41.2396V41.4857H53.6681V53.9141ZM53.6681 39.0065H41.2396V26.578H53.6681V39.0065ZM53.6681 24.0987H41.2396V11.7005C45.595 11.8902 49.8531 13.076 53.6681 15.1676V24.0987ZM56.1476 16.6827C59.0628 18.6704 61.5811 21.1866 63.5615 24.0987H56.1476V16.6827ZM56.1475 26.578H65.079C67.1721 30.3718 68.357 34.6287 68.5459 39.0065H56.1475V26.578ZM56.1475 63.8091V56.3937H63.5621C61.5857 59.3009 59.067 61.8184 56.1475 63.8091ZM65.0787 53.9143H56.1475V41.4857H68.5459C68.357 45.8596 67.1739 50.1138 65.0787 53.9143Z" fill="#044D91"/>
<path d="M31.0563 32.5983H28.0744V35.0776H31.0563V32.5983Z" fill="#044D91"/>
<path d="M34.0364 29.6181H31.0545V32.0975H34.0364V29.6181Z" fill="#044D91"/>
<path d="M48.9455 47.5075H45.9636V49.9869H48.9455V47.5075Z" fill="#044D91"/>
<path d="M51.9274 44.5256H48.9455V47.005H51.9274V44.5256Z" fill="#044D91"/>
<path d="M45.9637 14.7095H42.9819V17.1889H45.9637V14.7095Z" fill="#044D91"/>
<path d="M48.9455 17.6909H45.9636V20.1703H48.9455V17.6909Z" fill="#044D91"/>
<path d="M19.1289 47.5075H16.147V49.9869H19.1289V47.5075Z" fill="#044D91"/>
<path d="M22.1108 44.5256H19.1289V47.005H22.1108V44.5256Z" fill="#044D91"/>
<path d="M31.0563 60.9239H28.0744V63.4033H31.0563V60.9239Z" fill="#044D91"/>
<path d="M34.0364 57.9422H31.0545V60.4216H34.0364V57.9422Z" fill="#044D91"/>
<path d="M27.6406 1.7525C26.4711 2.12172 25.3645 2.78313 24.1586 3.83328L25.7868 5.70313C26.7273 4.88391 27.5536 4.38 28.3873 4.11657L27.6406 1.7525Z" fill="#044D91"/>
<path d="M22.5534 5.42157C22.183 5.82563 21.8178 6.24219 21.4647 6.64485C20.3905 7.86985 19.3758 9.02688 18.2367 9.84782C17.0975 10.675 15.6859 11.2909 14.1916 11.9428C11.7519 13.007 9.22922 14.108 7.62969 16.2955C6.06813 18.453 5.80141 21.1722 5.54359 23.8019C5.38281 25.4417 5.23094 26.9905 4.78641 28.3567C4.37031 29.6366 3.60484 30.927 2.79453 32.2931C1.42062 34.6091 0 37.0039 0 39.8017H2.47937C2.47937 37.6841 3.66813 35.6799 4.92703 33.5583C5.77078 32.1358 6.64328 30.665 7.14437 29.1238C7.67234 27.5014 7.84469 25.7439 8.01125 24.0441C8.24734 21.6369 8.47031 19.3633 9.63469 17.7544C10.8352 16.1125 12.947 15.1911 15.1831 14.2156C16.7334 13.5391 18.3366 12.8397 19.69 11.8566C21.0539 10.8736 22.2105 9.55485 23.3288 8.27969C23.673 7.88704 24.0291 7.48094 24.3811 7.09704L22.5534 5.42157Z" fill="#044D91"/>
<path d="M7.14517 50.4822L4.78595 51.2444C5.03017 52.0005 5.20782 52.8867 5.36157 54.1178L7.82173 53.8105C7.64782 52.4187 7.43907 51.3922 7.14517 50.4822Z" fill="#044D91"/>
<path d="M15.1828 65.3881C12.9469 64.4124 10.835 63.4911 9.63685 61.8522C8.5506 60.357 8.2731 58.2697 8.06419 56.0825L5.59607 56.3181C5.82935 58.7594 6.17841 61.31 7.63326 63.3125C9.22919 65.4953 11.7517 66.596 14.1914 67.6605C15.6859 68.3124 17.0975 68.9285 18.2365 69.7558L19.6936 67.7497C18.3362 66.7638 16.7331 66.0646 15.1828 65.3881Z" fill="#044D91"/>
<path d="M66.2317 64.762C65.8019 64.9572 65.3533 65.1519 64.9194 65.3405C63.3317 66.0301 61.6898 66.7434 60.3052 67.7508C58.967 68.7255 57.8214 70.0262 56.7136 71.2842C55.0942 73.1225 53.5647 74.8591 51.6042 75.4892C49.743 76.0923 47.5277 75.6069 45.1823 75.0931C43.4931 74.7234 41.7464 74.3408 40 74.3408V76.8201C41.478 76.8201 43.0197 77.1576 44.6519 77.5151C46.3064 77.8775 47.9972 78.2478 49.6597 78.2478C50.5737 78.2478 51.4794 78.1358 52.3653 77.8489C54.9738 77.0103 56.8041 74.9323 58.5741 72.9228C59.6402 71.7123 60.6475 70.5689 61.7644 69.7552C62.928 68.9089 64.3753 68.2802 65.9073 67.6145C66.3506 67.422 66.8091 67.2228 67.2578 67.0187L66.2317 64.762Z" fill="#044D91"/>
<path d="M70.3597 61.8569C69.8983 62.4986 69.2775 63.0542 68.4067 63.6058L69.7335 65.7003C70.8652 64.9834 71.7281 64.1998 72.3722 63.3048L70.3597 61.8569Z" fill="#044D91"/>
<path d="M77.2057 32.2934C76.3952 30.9272 75.6296 29.6369 75.2135 28.3567C74.7691 26.9909 74.6172 25.442 74.4564 23.8022C74.1986 21.1727 73.9319 18.4533 72.3703 16.2958L70.3621 17.7495C71.53 19.3634 71.753 21.6372 71.9889 24.0442C72.1557 25.7439 72.3282 27.5016 72.8557 29.1234C73.3568 30.6652 74.2296 32.1359 75.0732 33.5583C76.3319 35.6802 77.5207 37.6842 77.5207 39.8017H80C80 37.0039 78.5794 34.6091 77.2057 32.2934Z" fill="#044D91"/>
<path d="M65.8414 11.9602C64.3328 11.3025 62.908 10.6814 61.7594 9.84486C60.6241 9.02642 59.6092 7.86939 58.5352 6.64455C58.1819 6.24173 57.8166 5.82533 57.4463 5.42126L55.6188 7.09673C55.971 7.48064 56.3271 7.88689 56.6713 8.27939C57.7896 9.55455 58.9461 10.8733 60.305 11.8527C61.6681 12.846 63.2861 13.5511 64.851 14.2331C65.8717 14.6781 66.8361 15.0985 67.7269 15.5891L68.9227 13.417C67.9316 12.8713 66.8689 12.408 65.8414 11.9602Z" fill="#044D91"/>
<path d="M52.3584 1.7522L51.6133 4.11704C52.4244 4.37251 53.2369 4.85813 54.097 5.60173L55.7183 3.72595C54.5975 2.75704 53.4983 2.11126 52.3584 1.7522Z" fill="#044D91"/>
</g>
<defs>
<clipPath id="clip0_829_157">
<rect width="80" height="80" fill="white"/>
</clipPath>
</defs>
</svg>
