<svg width="80" height="80" viewBox="0 0 80 80" fill="none" xmlns="http://www.w3.org/2000/svg">
<g clip-path="url(#clip0_829_218)">
<path d="M31.2723 35.5469L31.2697 35.5429L31.2723 35.559V35.5469Z" fill="#044D91"/>
<path d="M14.4987 39.5675C15.0862 41.9875 16.024 44.3036 17.2851 46.4608L11.0749 52.6682L11.8227 53.4159C14.058 55.6525 17.033 56.8828 20.1954 56.8828C22.2462 56.8828 24.2578 56.3547 26.031 55.3535C28.1611 56.6564 30.4639 57.6347 32.873 58.2611V66.9895H33.9268C39.2233 66.9895 43.88 63.462 45.3216 58.3783C47.7536 57.7922 50.0766 56.8516 52.2364 55.5879L58.4451 61.7994L59.1929 61.0517C62.9669 57.2829 63.7484 51.4663 61.1304 46.8434C62.4333 44.7132 63.4103 42.4173 64.038 40H72.823V38.9463C72.823 33.6172 69.2644 28.9554 64.1484 27.5312C63.5663 25.1086 62.6299 22.7925 61.3661 20.6379L67.5735 14.4251L66.8298 13.68C64.5903 11.4434 61.6181 10.2105 58.4531 10.2105C56.4023 10.2105 54.388 10.7414 52.6175 11.7438C50.4887 10.4409 48.1914 9.46124 45.7781 8.83334V0H44.7258C39.3632 0 34.6932 3.58008 33.2919 8.72974C30.8788 9.31719 28.5653 10.2509 26.4162 11.5135L20.2062 5.30067L19.4584 6.04576C15.687 9.81845 14.9042 15.6298 17.5195 20.2554C16.2166 22.3869 15.2411 24.6856 14.6119 27.0974H5.82947V28.1525C5.82947 33.4813 9.38386 38.1446 14.4987 39.5675ZM30.6808 34.5472L43.0122 20.7621C43.1631 20.591 43.3855 20.4886 43.6199 20.4886L50.1197 20.4279C50.4591 20.4279 50.7691 20.6381 50.8905 20.9494C51.0184 21.2686 50.939 21.6259 50.6871 21.8563L40.4199 31.4214L46.4602 31.7583C46.7917 31.7745 47.0826 31.9913 47.1932 32.3094C47.3064 32.622 47.2161 32.9764 46.9628 33.1987L32.2546 46.3519C32.1037 46.4893 31.9096 46.5634 31.7034 46.5634C31.4825 46.5634 31.2776 46.4772 31.1213 46.3209C30.8128 46.0124 30.7979 45.5125 31.0889 45.1878L39.8026 35.4502L31.3383 35.9192H31.3275C30.9623 35.9192 30.6835 35.736 30.5514 35.453C30.4073 35.148 30.4586 34.7937 30.6808 34.5472Z" fill="#044D91"/>
<path d="M61.5118 70.1398C60.0837 71.4426 58.6715 72.0734 57.1948 72.0734H57.0439C55.1037 71.9601 53.7051 70.5926 53.3104 70.1628C53.1932 70.0456 50.3784 67.3078 46.7189 67.3078L46.4967 67.3117C44.4041 67.3872 42.5191 68.3695 40.8941 70.2316C39.6344 71.6692 38.3234 72.3982 36.9328 72.3982C34.6463 72.3686 32.8987 70.2532 32.8961 70.2532L32.6494 70.0309C30.8237 68.666 27.7476 67.2095 24.5933 67.2095C21.9606 67.2095 19.7374 68.2254 17.9763 70.2263C16.6775 71.6991 15.2532 72.4616 13.7389 72.5007L13.7443 72.8632L13.7188 72.5048H13.615C11.6533 72.5048 9.94478 71.3299 9.09593 70.624L8.84795 70.4206L7.24854 71.9552L7.55304 72.2111C8.63909 73.1475 10.8662 74.7104 13.6149 74.7104H13.6189H13.7495C15.9214 74.6647 17.8981 73.6446 19.6295 71.6815C20.9594 70.167 22.6436 69.4045 24.6296 69.4045C27.7718 69.4045 30.705 71.3568 31.2035 71.7004C32.1858 72.7621 34.2271 74.5515 36.8854 74.604C38.9173 74.604 40.8751 73.5921 42.5512 71.6815C43.7706 70.2843 45.0816 69.5769 46.5583 69.5135H46.7214C48.9351 69.5135 50.9171 71.0092 51.4723 71.47L51.6864 71.6518C52.0461 72.0561 53.9676 74.0799 56.8644 74.2725C58.957 74.3897 61.0562 73.5395 62.999 71.7732C64.403 70.489 65.9862 69.8383 67.7081 69.8383C69.8086 69.8383 71.594 70.8232 72.4739 71.4133L72.7461 71.5912L74.1703 69.8988L73.8495 69.6723C72.7729 68.9097 70.5444 67.6283 67.6866 67.6283C65.4125 67.6282 63.3349 68.4744 61.5118 70.1398Z" fill="#044D91"/>
<path d="M67.6869 72.9194C65.4125 72.9194 63.3362 73.7656 61.5119 75.4269C60.0837 76.7339 58.6716 77.3671 57.1948 77.3671H57.044C55.1038 77.2499 53.7051 75.8796 53.3104 75.4484C53.0112 75.1573 50.2815 72.6013 46.719 72.6013L46.4967 72.6053C44.4041 72.6821 42.5191 73.659 40.8942 75.521C39.6371 76.9587 38.3261 77.6877 36.9368 77.6877H36.9329C34.6464 77.6606 32.8988 75.5467 32.8961 75.5426L32.6495 75.3203C30.8238 73.9607 27.7476 72.5029 24.5934 72.5029C21.9606 72.5029 19.7374 73.5148 17.9764 75.5157C16.6788 76.9885 15.2533 77.751 13.7389 77.7901L13.7444 78.1216L13.7268 77.7943H13.6149C11.5791 77.7943 9.77758 76.4833 9.09581 75.916L8.84783 75.7085L7.24841 77.2431L7.55291 77.5032C8.63897 78.4356 10.8661 79.9999 13.6148 79.9999H13.7495C15.9188 79.9554 17.8968 78.9353 19.6295 76.9709C20.9607 75.4605 22.6437 74.6939 24.6297 74.6939C27.7718 74.6939 30.7051 76.6503 31.2035 76.9898C32.4026 78.29 34.3632 79.8449 36.8854 79.8948C38.9173 79.8948 40.8751 78.8815 42.5513 76.9709C43.7706 75.5737 45.0816 74.8636 46.5517 74.8043L46.7215 74.8003C48.9312 74.8003 50.9172 76.2986 51.4723 76.7554L51.6865 76.9454C52.0462 77.3497 53.9756 79.3706 56.8645 79.5661C58.9907 79.6793 61.0602 78.8291 62.9991 77.0586C64.4031 75.7786 65.9902 75.1278 67.7082 75.1278C69.8115 75.1278 71.5941 76.1141 72.4739 76.7029L72.7461 76.8847L74.1703 75.1925L73.8496 74.9621C72.7733 74.1996 70.5407 72.9194 67.6869 72.9194Z" fill="#044D91"/>
</g>
<defs>
<clipPath id="clip0_829_218">
<rect width="80" height="80" fill="white"/>
</clipPath>
</defs>
</svg>
