<svg width="80" height="80" viewBox="0 0 80 80" fill="none" xmlns="http://www.w3.org/2000/svg">
<g clip-path="url(#clip0_829_104)">
<path d="M24.5053 6.02406C29.3814 3.79594 34.5947 2.66672 40 2.66672C42.7014 2.66672 45.3868 2.95469 47.9986 3.52531C47.88 5.76938 48.8253 7.26937 49.4853 8.31594C49.6707 8.61063 49.9239 9.01328 49.9507 9.12391C49.9507 14.6319 48.836 15.7906 48.6174 15.7906C46.2174 15.7906 42.1227 18.028 40.636 20.8053C39.7253 22.5041 39.7986 24.3013 40.8413 25.8639C41.5933 26.9919 42.2372 28.2412 42.8613 29.448C44.1453 31.9347 45.5693 34.6947 47.7586 34.6947C48.2093 34.6947 48.6919 34.5773 49.2133 34.3173C50.9533 33.4467 52.2293 30.9159 53.4639 28.4694C54.0519 27.3041 54.9227 25.5773 55.4146 25.1373C57.1652 25.3106 57.9705 26.7867 59.0639 29.1547C59.8119 30.7747 60.5853 32.4506 62.0707 33.1934C64.6453 34.4775 73.14 33.1094 77.8492 31.1094C77.9052 31.0853 77.9425 31.04 77.9933 31.0108C78.0707 30.9641 78.1453 30.9202 78.2119 30.8614C78.276 30.8028 78.3266 30.7373 78.3772 30.6681C78.4278 30.6014 78.4758 30.5348 78.5132 30.4588C78.5517 30.3814 78.5732 30.3028 78.5958 30.2188C78.6172 30.1373 78.6372 30.0588 78.6438 29.972C78.6491 29.8827 78.6385 29.7973 78.6264 29.7067C78.6185 29.6481 78.6305 29.592 78.6144 29.5334C75.3864 17.5961 66.6158 7.66547 55.1518 2.97078C54.4705 2.69219 53.6917 3.0175 53.4132 3.69875C53.1346 4.38016 53.4599 5.15875 54.1411 5.4375C64.4717 9.66953 72.4452 18.4602 75.6958 29.0881C70.7278 30.8922 64.4199 31.3867 63.2625 30.8067C62.6146 30.4827 62.0399 29.24 61.4852 28.0373C60.4293 25.7506 58.9838 22.62 55.3425 22.4587C53.5425 22.3947 52.5146 24.4294 51.0825 27.2681C50.1919 29.0361 48.9705 31.4575 48.0211 31.9322C47.3305 32.2802 46.2118 30.1269 45.2305 28.2255C44.6038 27.0122 43.8946 25.6361 43.0599 24.3855C42.5613 23.6388 42.5386 22.9002 42.9866 22.0628C44.1013 19.9802 47.3507 18.4575 48.6172 18.4575C51.2719 18.4575 52.6172 15.3175 52.6172 9.12422C52.6172 8.28563 52.1919 7.61094 51.7413 6.89484C51.0627 5.82016 50.3627 4.70813 50.7827 2.78953C50.9374 2.08547 50.5039 1.38812 49.8068 1.21094C46.6214 0.407969 43.3214 0 40 0C34.2094 0 28.6241 1.21063 23.3974 3.59734C22.728 3.90406 22.4333 4.69469 22.7388 5.36406C23.0453 6.03469 23.836 6.33063 24.5053 6.02406Z" fill="#044D91"/>
<path d="M58.612 41.0094C58.1226 41.1494 57.5134 41.3241 57.3334 41.3334C55.2975 41.3334 54.032 42.8775 53.0175 44.1188C52.5522 44.6881 51.8469 45.5481 51.4989 45.5481C51.4415 45.5481 51.3589 45.5228 51.263 45.4748C50.5936 45.1389 49.8923 44.9708 49.1762 44.9708C47.4509 44.9708 45.9589 45.9867 45.6283 47.3881C45.3989 48.3614 45.7442 49.6961 47.4042 50.5267C49.9309 51.7894 52.5442 53.0961 53.7242 54.2761C54.4789 55.0308 55.7989 55.4641 57.3469 55.4641C59.7122 55.4641 62.8548 54.3173 63.9322 51.0881C64.3869 49.7241 65.5054 48.6534 66.4922 47.7095C67.6375 46.6122 68.7201 45.5763 68.7362 44.1363C68.7456 43.2922 68.3669 42.4803 67.6095 41.7242C66.5642 40.6789 65.1336 40.1483 63.3589 40.1483C61.628 40.148 59.8853 40.6453 58.612 41.0094ZM66.0694 44.1067C66.0667 44.4253 65.2134 45.2427 64.648 45.7827C63.4973 46.8841 62.0653 48.2533 61.4012 50.2453C60.7745 52.1267 58.8959 52.7973 57.3465 52.7973C56.3412 52.7973 55.7425 52.5241 55.6092 52.3906C54.1225 50.9039 51.4386 49.5613 48.5959 48.1413C48.44 48.0627 48.3386 47.9892 48.2786 47.9372C48.4933 47.7292 49.3253 47.4866 50.0706 47.8598C50.5412 48.0945 51.0226 48.2145 51.4986 48.2145C53.1106 48.2133 54.1572 46.9359 55.0812 45.8078C55.9745 44.7158 56.6133 43.9998 57.3333 43.9998C57.8533 43.9998 58.4786 43.8213 59.3453 43.5731C60.4667 43.2531 62.0012 42.8145 63.3586 42.8145C64.4145 42.8145 65.1892 43.0745 65.7239 43.6092C66.0094 43.8947 66.0706 44.0653 66.0694 44.1067Z" fill="#044D91"/>
<path d="M33.7241 56.9427C33.9841 57.2027 34.3255 57.3333 34.6668 57.3333C35.0082 57.3333 35.3494 57.2027 35.6094 56.9427C37.0908 55.4613 37.7547 53.7094 37.4788 52.0094C37.2535 50.6253 36.3841 49.368 35.2629 48.8067C34.7829 48.5681 34.1535 48.3841 33.4243 48.172C32.1069 47.788 30.1163 47.208 29.6229 46.2667C29.5215 46.072 29.4122 45.74 29.6282 45.0881C30.0215 43.9094 30.3788 43.2387 30.6922 42.6467C31.5522 41.032 32.0002 39.9747 32.0002 35.3334C32.0002 32.892 30.8282 31.0002 28.6976 30.0081C28.0322 29.7002 27.2388 29.9867 26.9269 30.6548C26.6163 31.3228 26.9055 32.1148 27.5722 32.4269C28.7416 32.9709 29.3337 33.9483 29.3337 35.3336C29.3337 39.5256 28.959 40.2283 28.339 41.3936C27.9937 42.0442 27.5616 42.8536 27.099 44.2456C26.7004 45.4416 26.7549 46.5377 27.2616 47.5042C28.2816 49.4522 30.823 50.1922 32.679 50.7322C33.2337 50.8936 33.8057 51.0602 34.071 51.1936C34.3216 51.3189 34.7351 51.7523 34.8469 52.4363C34.9829 53.2803 34.5949 54.1869 33.7243 55.0577C33.2027 55.5786 33.2027 56.4214 33.7241 56.9427Z" fill="#044D91"/>
<path d="M14.6667 70.6667C14.6667 71.4027 15.2641 72 16 72C20.4121 72 24 68.412 24 64C24 63.2641 23.4027 62.6667 22.6667 62.6667C21.9308 62.6667 21.3335 63.2641 21.3335 64C21.3335 66.9414 18.9414 69.3333 16.0002 69.3333C15.2641 69.3333 14.6667 69.9306 14.6667 70.6667Z" fill="#044D91"/>
<path d="M79.62 34.4641C79.52 33.7347 78.8386 33.2241 78.116 33.3267C77.3866 33.4267 76.8774 34.1 76.9786 34.8308C77.2146 36.5294 77.3333 38.2695 77.3333 40.0002C77.3333 60.5855 60.5853 77.3334 40 77.3334C34.2147 77.3334 31.2427 76.1281 31.1867 76.1055C30.5135 75.8202 29.7294 76.1322 29.4414 76.8081C29.1508 77.4855 29.4655 78.2695 30.1414 78.5588C30.2786 78.6174 33.5788 80 40 80C62.056 80 80 62.0559 80 40C80 38.1467 79.8721 36.2841 79.62 34.4641Z" fill="#044D91"/>
<path d="M24 50.1559V13.3333C24 8.92125 20.412 5.33328 16 5.33328C11.588 5.33328 8 8.92125 8 13.3333V14.6666C8 15.4025 8.59734 15.9998 9.33328 15.9998C10.0692 15.9998 10.6666 15.4025 10.6666 14.6666V13.3333C10.6666 10.3919 13.0586 8 15.9998 8C18.9412 8 21.3331 10.392 21.3331 13.3333V50.9466C21.3331 51.448 21.6131 51.9066 22.0584 52.1345C26.5464 54.4305 29.3331 58.9772 29.3331 63.9998C29.3331 71.3519 23.3517 77.3331 15.9998 77.3331C8.64797 77.3331 2.66672 71.352 2.66672 64C2.66672 58.9773 5.45344 54.4306 9.94141 52.1347C10.3867 51.9067 10.6667 51.448 10.6667 50.9467V45.3334H12C12.7359 45.3334 13.3333 44.7361 13.3333 44.0002C13.3333 43.2642 12.7359 42.6669 12 42.6669H10.6667V37.3336H12C12.7359 37.3336 13.3333 36.7362 13.3333 36.0003C13.3333 35.2644 12.7359 34.667 12 34.667H10.6667V29.3338H12C12.7359 29.3338 13.3333 28.7364 13.3333 28.0005C13.3333 27.2645 12.7359 26.6672 12 26.6672H10.6667V21.3339H17.3334C18.0694 21.3339 18.6667 20.7366 18.6667 20.0006C18.6667 19.2647 18.0694 18.6673 17.3334 18.6673H9.33344C8.5975 18.6673 8.00016 19.2647 8.00016 20.0006V50.1566C3.04531 53.0159 0 58.248 0 64C0 72.8227 7.17734 80 16 80C24.8227 80 32 72.8227 32 64C32 58.248 28.9547 53.0159 24 50.1559Z" fill="#044D91"/>
<path d="M40.4506 71.8973C41.86 71.8973 43.176 71.3906 44.06 70.5067C46.0894 68.4773 44.5014 65.0641 42.7267 63.2881C42.32 62.8814 41.7867 62.6667 41.1841 62.6667C39.3388 62.6667 37.1614 64.8173 36.3614 66.7494C35.7508 68.2227 35.9267 69.592 36.8414 70.5067C37.7253 71.3906 39.0414 71.8973 40.4506 71.8973ZM38.78 67.8867C39.2014 66.7267 40.4441 65.6 41.0306 65.3734C42.056 66.5134 42.6492 68.1467 42.1747 68.6214C41.4106 69.3855 39.4894 69.3841 38.7267 68.6214C38.6106 68.5053 38.6827 68.152 38.78 67.8867Z" fill="#044D91"/>
</g>
<defs>
<clipPath id="clip0_829_104">
<rect width="80" height="80" fill="white"/>
</clipPath>
</defs>
</svg>
