<svg width="375" height="66" viewBox="0 0 375 66" fill="none" xmlns="http://www.w3.org/2000/svg">
<path d="M-416 0L-405.253 4.78626C-394.369 9.57252 -372.876 19.145 -350.969 24.9389C-329.2 30.7328 -307.156 32.7481 -285.387 34.6122C-263.48 36.426 -241.987 38.1389 -220.356 37.9374C-198.724 37.7863 -177.231 35.771 -155.324 32.8489C-133.556 29.8763 -111.511 26.0473 -89.7422 22.5206C-67.8355 18.9939 -46.3422 15.7695 -24.4355 14.6107C-2.66664 13.4519 19.3778 14.258 41.1467 17.3817C63.0533 20.5053 84.5467 25.8458 106.178 23.1756C127.809 20.5053 149.302 9.72366 171.209 7.55725C192.978 5.39084 215.022 11.7389 236.791 17.4824C258.698 23.1756 280.191 28.2137 301.822 30.3801C323.453 32.5969 344.947 31.8916 366.853 29.5741C388.622 27.2061 410.667 23.1756 432.436 21.2611C454.342 19.2962 475.836 19.4977 497.742 17.2809C519.511 15.1145 541.556 10.5802 563.324 11.6886C585.231 12.7466 606.724 19.4977 628.356 23.0748C649.987 26.7023 671.48 27.2061 693.387 25.1908C715.156 23.1756 737.2 18.6412 758.969 14.3588C780.876 10.0763 802.369 6.0458 813.253 4.03053L824 2.01527V66H813.253C802.369 66 780.876 66 758.969 66C737.2 66 715.156 66 693.387 66C671.48 66 649.987 66 628.356 66C606.724 66 585.231 66 563.324 66C541.556 66 519.511 66 497.742 66C475.836 66 454.342 66 432.436 66C410.667 66 388.622 66 366.853 66C344.947 66 323.453 66 301.822 66C280.191 66 258.698 66 236.791 66C215.022 66 192.978 66 171.209 66C149.302 66 127.809 66 106.178 66C84.5467 66 63.0533 66 41.1467 66C19.3778 66 -2.66664 66 -24.4355 66C-46.3422 66 -67.8355 66 -89.7422 66C-111.511 66 -133.556 66 -155.324 66C-177.231 66 -198.724 66 -220.356 66C-241.987 66 -263.48 66 -285.387 66C-307.156 66 -329.2 66 -350.969 66C-372.876 66 -394.369 66 -405.253 66H-416V0Z" fill="#FBF9FF"/>
</svg>
