<svg width="40" height="40" viewBox="0 0 40 40" fill="none" xmlns="http://www.w3.org/2000/svg">
<g clip-path="url(#clip0_1277_1114)">
<path d="M27.6709 -0.0244231C27.7313 -0.0242807 27.7917 -0.0241383 27.8539 -0.0239916C28.7456 -0.0204513 29.6003 0.0163484 30.4687 0.234366C30.5528 0.253853 30.5528 0.253853 30.6386 0.273734C32.817 0.7824 34.7131 1.90946 36.3281 3.43749C36.3922 3.49751 36.4564 3.55753 36.5225 3.61938C38.524 5.54929 39.8953 8.44757 40.0125 11.2371C40.0421 14.0286 40.0421 14.0286 39.7656 15.0781C39.7417 15.1711 39.7417 15.1711 39.7173 15.2659C39.0429 17.8244 37.731 19.7809 35.8724 21.6391C35.8066 21.7051 35.7408 21.7712 35.6731 21.8392C35.4929 22.0202 35.3124 22.2009 35.132 22.3816C34.9364 22.5775 34.7411 22.7736 34.5457 22.9696C34.0753 23.4416 33.6044 23.9132 33.1336 24.3848C32.9558 24.5629 32.778 24.741 32.6002 24.9191C31.8149 25.7058 31.0295 26.4924 30.2438 27.2787C30.0521 27.4706 29.8604 27.6624 29.6687 27.8543C29.6211 27.902 29.5734 27.9497 29.5243 27.9988C28.753 28.7708 27.9823 29.5434 27.2119 30.3163C26.4187 31.1122 25.6248 31.9075 24.8304 32.7022C24.3853 33.1474 23.9404 33.593 23.4962 34.0392C23.1179 34.4192 22.7391 34.7986 22.3596 35.1774C22.1665 35.3701 21.9736 35.5631 21.7814 35.7568C19.8256 37.7257 17.7815 39.0704 15.0781 39.7656C15.0245 39.7797 14.9709 39.7939 14.9156 39.8084C13.2801 40.2176 11.1591 40.1945 9.5312 39.7656C9.43824 39.7417 9.43824 39.7417 9.34341 39.7173C7.16244 39.1425 5.3095 38.112 3.67183 36.5625C3.60768 36.5025 3.54353 36.4424 3.47743 36.3806C1.47592 34.4507 0.10456 31.5524 -0.0126342 28.7628C-0.0421659 25.9714 -0.0421658 25.9714 0.234329 24.9219C0.250266 24.8599 0.266203 24.7979 0.282623 24.7341C1.03025 21.8975 2.58986 19.901 4.62861 17.8563C4.74804 17.7362 4.86746 17.6162 4.98686 17.4961C5.37617 17.1047 5.76589 16.7138 6.15565 16.3229C6.29023 16.1879 6.42481 16.0529 6.55938 15.9179C7.11877 15.3569 7.67828 14.7959 8.23807 14.2352C9.03909 13.4329 9.83944 12.63 10.6389 11.8261C11.2021 11.2599 11.7661 10.6944 12.3306 10.1294C12.6675 9.79223 13.004 9.45474 13.3398 9.11645C13.655 8.79888 13.9712 8.48224 14.288 8.1663C14.4042 8.05015 14.52 7.93365 14.6355 7.8168C14.793 7.65756 14.9516 7.49956 15.1106 7.34181C15.1562 7.29515 15.2018 7.24849 15.2487 7.20042C15.5164 6.93789 15.701 6.80263 16.0937 6.79687C16.2755 6.88576 16.4194 6.96627 16.5625 7.10937C16.6344 7.62172 16.6344 7.62172 16.4796 7.86418C15.9582 8.43314 15.4087 8.97468 14.8615 9.51863C14.7441 9.63559 14.6268 9.75257 14.5094 9.86957C14.2576 10.1207 14.0056 10.3716 13.7535 10.6225C13.3542 11.02 12.9553 11.4179 12.5565 11.8158C11.4227 12.947 10.2885 14.0779 9.15353 15.208C8.52605 15.8328 7.89899 16.458 7.2724 17.0837C6.87682 17.4786 6.48075 17.873 6.08428 18.2671C5.83675 18.5134 5.58972 18.7601 5.34283 19.007C5.2291 19.1206 5.11517 19.2339 5.00102 19.347C4.16512 20.1757 3.38828 21.0239 2.79781 22.0508C2.74983 22.1334 2.74983 22.1334 2.70087 22.2178C2.19573 23.111 1.81672 24.0846 1.56245 25.0781C1.52741 25.2104 1.52741 25.2104 1.49165 25.3454C0.851314 28.2507 1.50306 31.2882 3.08101 33.7744C4.67341 36.2083 7.12025 37.853 9.95132 38.4987C12.8852 39.1026 15.8541 38.5384 18.374 36.9287C19.4992 36.171 20.434 35.2143 21.3889 34.2576C21.5838 34.0626 21.7791 33.8679 21.9744 33.6732C22.3556 33.293 22.7364 32.9124 23.117 32.5316C23.4267 32.2218 23.7364 31.9121 24.0463 31.6026C24.1128 31.5362 24.1128 31.5362 24.1806 31.4685C24.2706 31.3785 24.3606 31.2886 24.4507 31.1986C25.2925 30.3577 26.1338 29.5162 26.975 28.6745C27.7428 27.9063 28.5112 27.1388 29.28 26.3715C30.0716 25.5814 30.8629 24.7908 31.6536 23.9997C32.0967 23.5565 32.5399 23.1135 32.9835 22.671C33.3611 22.2944 33.7382 21.9174 34.1148 21.5398C34.3065 21.3476 34.4984 21.1556 34.6909 20.9641C35.6304 20.0283 36.5366 19.1071 37.2021 17.9492C37.2341 17.8938 37.2662 17.8384 37.2992 17.7813C38.2423 16.1095 38.7066 14.2629 38.7011 12.3486C38.7011 12.2921 38.701 12.2356 38.701 12.1774C38.6906 9.14716 37.4448 6.39141 35.3011 4.25675C33.2682 2.3018 30.3875 1.21876 27.5781 1.24999C23.817 1.38791 21.2 3.14487 18.6241 5.75368C18.5518 5.82662 18.4796 5.89957 18.4051 5.97472C18.3399 6.04085 18.2747 6.10698 18.2075 6.17511C17.9949 6.37754 17.9242 6.40313 17.6269 6.43066C17.3437 6.40624 17.3437 6.40624 17.1533 6.28905C16.9835 6.01741 16.9655 5.77617 17.0312 5.46874C17.1732 5.23906 17.3569 5.06274 17.5512 4.8767C17.6326 4.79553 17.6326 4.79553 17.7156 4.71271C17.831 4.59826 17.9472 4.48457 18.064 4.3716C18.2388 4.20242 18.4111 4.03098 18.583 3.85894C19.6451 2.80743 20.7733 1.92482 22.1093 1.24999C22.163 1.22261 22.2168 1.19523 22.2721 1.16702C23.9622 0.320976 25.7913 -0.0336183 27.6709 -0.0244231Z" fill="#FBF9FF"/>
<path d="M27.656 2.31447C27.7088 2.31451 27.7616 2.31455 27.816 2.3146C29.1503 2.31951 30.6564 2.40598 31.6786 3.37129C31.9676 3.66924 32.1683 3.99647 32.3728 4.35548C32.7124 4.92929 33.0647 5.44334 33.5154 5.93752C33.5744 6.00288 33.6334 6.06823 33.6943 6.13557C34.3365 6.81237 35.0822 7.33329 35.8933 7.7881C36.7415 8.27468 37.1703 8.91295 37.4421 9.85414C38.0722 12.3365 37.6665 15.1197 36.3999 17.3361C35.9778 18.0165 35.5181 18.6368 34.9674 19.2192C34.9199 19.2697 34.8725 19.3201 34.8236 19.3721C34.2975 19.9295 33.7593 20.475 33.2188 21.0184C33.1665 21.071 33.1141 21.1237 33.0602 21.1779C32.7845 21.4553 32.5085 21.7324 32.2323 22.0093C31.9494 22.2931 31.6674 22.5778 31.3856 22.8627C31.1662 23.0842 30.946 23.305 30.7257 23.5256C30.6214 23.6303 30.5173 23.7352 30.4136 23.8404C29.5813 24.6837 28.7482 25.4602 27.4949 25.4932C26.5792 25.4588 25.7913 25.124 25.156 24.4531C24.6166 23.7613 24.4091 22.8883 24.1502 22.0654C23.5439 20.0807 23.5439 20.0807 22.4217 18.3594C22.3812 18.3079 22.3407 18.2565 22.299 18.2034C21.163 16.7958 19.3702 16.3015 17.7158 15.7808C15.4584 15.0668 15.4584 15.0668 14.8823 14.0015C14.5311 13.257 14.4019 12.5234 14.6189 11.7139C14.9863 10.6911 15.7168 10.0194 16.472 9.27034C16.5948 9.14745 16.7177 9.02451 16.8404 8.90153C17.0974 8.64448 17.3548 8.38799 17.6127 8.1319C17.9405 7.80627 18.2672 7.47945 18.5934 7.15222C18.8469 6.89821 19.1009 6.64478 19.3551 6.39153C19.4756 6.27138 19.596 6.15108 19.7161 6.0306C21.2337 4.51091 22.8195 3.29519 24.9021 2.67091C24.9781 2.64808 24.9781 2.64808 25.0556 2.62478C25.9154 2.3815 26.7648 2.31325 27.656 2.31447ZM25.156 3.90627C25.1031 3.92259 25.0502 3.93892 24.9956 3.95574C22.9225 4.61063 21.4386 6.12779 19.9363 7.62575C19.8833 7.67858 19.8302 7.73141 19.7756 7.78584C19.4959 8.06436 19.2164 8.3431 18.9371 8.62203C18.6499 8.90879 18.362 9.19481 18.074 9.48068C17.8509 9.70227 17.6284 9.92438 17.406 10.1466C17.3001 10.2524 17.1939 10.3579 17.0876 10.4632C16.9392 10.6103 16.7916 10.758 16.6441 10.906C16.5789 10.9701 16.5789 10.9701 16.5125 11.0354C16.0862 11.4663 15.8087 11.9065 15.7615 12.5195C15.7959 13.035 15.9643 13.4541 16.3279 13.8281C16.7141 14.1237 17.1061 14.2613 17.5675 14.4055C17.7205 14.4551 17.8735 14.5046 18.0265 14.5542C18.2648 14.6304 18.5032 14.7063 18.7417 14.7819C20.0784 15.2072 21.3211 15.6657 22.4217 16.5625C22.4872 16.6153 22.5528 16.6681 22.6203 16.7224C24.0145 17.9069 24.6228 19.4753 25.1756 21.167C25.2459 21.38 25.3164 21.5928 25.3874 21.8055C25.4309 21.9364 25.4741 22.0673 25.5168 22.1984C25.8488 23.2485 25.8488 23.2485 26.6014 24.0039C27.0933 24.2499 27.4894 24.2789 28.032 24.1455C28.8902 23.7887 29.6263 22.8107 30.2775 22.1628C30.3574 22.0834 30.3574 22.0834 30.4389 22.0023C30.7209 21.722 31.0026 21.4414 31.2841 21.1607C31.5714 20.8742 31.8597 20.5886 32.1481 20.3033C32.373 20.0805 32.5971 19.857 32.821 19.6334C32.9268 19.528 33.0328 19.4228 33.1392 19.3179C35.126 17.3569 36.4121 15.1663 36.4402 12.3194C36.439 10.7174 36.439 10.7174 35.781 9.29689C35.4682 9.00536 35.1314 8.79215 34.7605 8.584C34.1561 8.23218 33.6385 7.81621 33.1248 7.34377C33.0566 7.28203 32.9884 7.2203 32.9182 7.15669C32.2216 6.49524 31.6566 5.7161 31.1912 4.87795C30.8686 4.30912 30.5234 3.97613 29.8861 3.80008C28.366 3.41731 26.6532 3.42718 25.156 3.90627Z" fill="#FBF9FF"/>
<path d="M14.3499 15.1004C15.4138 15.8867 15.6798 17.3962 16.0694 18.5945C16.6765 20.4565 17.5274 22.1835 19.3465 23.1216C19.4491 23.1716 19.552 23.2208 19.6553 23.2693C19.7122 23.296 19.769 23.3226 19.8275 23.3501C20.6204 23.7109 21.4542 23.9581 22.2839 24.2191C24.5413 24.9332 24.5413 24.9332 25.1174 25.9985C25.4686 26.743 25.5978 27.4766 25.3807 28.2861C25.0134 29.3089 24.2829 29.9805 23.5277 30.7296C23.4048 30.8525 23.282 30.9755 23.1593 31.0985C22.9023 31.3555 22.6449 31.612 22.387 31.8681C22.0591 32.1937 21.7325 32.5205 21.4063 32.8478C21.1528 33.1018 20.8988 33.3552 20.6446 33.6085C20.5241 33.7286 20.4037 33.8489 20.2836 33.9694C18.7659 35.4891 17.1802 36.7048 15.0975 37.3291C15.0469 37.3443 14.9963 37.3595 14.9441 37.3752C14.0843 37.6185 13.2349 37.6867 12.3436 37.6855C12.2908 37.6855 12.2381 37.6854 12.1837 37.6854C10.8493 37.6805 9.34324 37.594 8.32112 36.6287C8.03211 36.3307 7.83139 36.0035 7.62684 35.6445C7.28728 35.0707 6.93496 34.5566 6.48426 34.0625C6.39574 33.9644 6.39574 33.9644 6.30543 33.8644C5.66315 33.1876 4.91748 32.6667 4.10634 32.2119C3.2586 31.7255 2.83146 31.0884 2.55757 30.1486C2.14106 28.5188 2.14885 26.5255 2.65614 24.9218C2.67583 24.8596 2.69552 24.7973 2.7158 24.7332C3.42531 22.5592 4.71742 21.0623 6.29872 19.4726C6.36824 19.4027 6.43777 19.3328 6.5094 19.2608C6.57463 19.1957 6.63985 19.1307 6.70704 19.0637C6.76572 19.0051 6.82439 18.9465 6.88485 18.8862C7.08865 18.6964 7.16729 18.6737 7.45106 18.6474C7.73426 18.6718 7.73426 18.6718 7.92469 18.789C8.09299 19.0583 8.10531 19.3037 8.04676 19.6093C7.9035 19.806 7.78308 19.9434 7.60731 20.1043C7.56197 20.1484 7.51664 20.1925 7.46993 20.2379C7.32507 20.3783 7.17826 20.5163 7.03114 20.6543C6.84005 20.8365 6.64979 21.0195 6.45985 21.203C6.41387 21.2472 6.36789 21.2915 6.32052 21.3371C4.78757 22.8285 3.71696 24.9354 3.64552 27.0926C3.64319 27.2821 3.64222 27.4716 3.64247 27.6611C3.64259 27.7604 3.64272 27.8596 3.64285 27.9619C3.65507 28.9051 3.69341 29.9315 4.29676 30.7031C4.53931 30.9256 4.80085 31.0874 5.08679 31.2493C5.74868 31.6248 6.31651 32.0631 6.87489 32.5781C6.98577 32.6793 6.98577 32.6793 7.09889 32.7826C7.81959 33.4706 8.40545 34.2584 8.89149 35.1269C9.19927 35.669 9.50343 35.9453 10.1111 36.1193C11.625 36.5143 13.3513 36.4931 14.8436 36.0156C14.8966 35.9993 14.9495 35.9829 15.0041 35.9661C17.0693 35.3137 18.5495 33.8057 20.0463 32.3132C20.0985 32.2612 20.1507 32.2093 20.2044 32.1557C20.4795 31.8818 20.7545 31.6076 21.0292 31.3332C21.3116 31.0512 21.5948 30.7699 21.8782 30.4887C22.0976 30.2708 22.3165 30.0523 22.5352 29.8336C22.6395 29.7297 22.7439 29.6259 22.8485 29.5223C22.9944 29.3777 23.1396 29.2323 23.2846 29.0868C23.3273 29.0448 23.37 29.0029 23.414 28.9596C23.8383 28.5307 24.1131 28.0902 24.16 27.4804C24.1295 27.0216 24.0183 26.6919 23.7157 26.3427C23.4401 26.1075 23.2126 25.9237 22.8647 25.8132C22.7983 25.7918 22.732 25.7703 22.6637 25.7483C22.5923 25.7258 22.5209 25.7033 22.4474 25.6802C22.2939 25.6304 22.1404 25.5806 21.9869 25.5308C21.7469 25.4537 21.5068 25.3769 21.2666 25.3005C19.9273 24.8735 18.6809 24.4141 17.578 23.5156C17.481 23.4378 17.481 23.4378 17.3821 23.3584C17.0025 23.0365 16.671 22.6848 16.3573 22.2998C16.3082 22.2414 16.3082 22.2414 16.2581 22.1818C15.4959 21.2099 15.1238 19.9893 14.746 18.833C14.6757 18.62 14.6051 18.4072 14.5342 18.1944C14.4906 18.0636 14.4475 17.9327 14.4048 17.8016C14.1432 17.0108 13.9093 16.3397 13.1249 15.9375C12.6934 15.7793 12.226 15.8238 11.8068 16.0003C11.3036 16.2829 10.9112 16.7423 10.5132 17.153C10.4513 17.2163 10.3894 17.2797 10.3256 17.3449C10.201 17.4729 10.0773 17.6019 9.95461 17.7318C9.89664 17.7914 9.83867 17.8511 9.77894 17.9126C9.72746 17.9666 9.67597 18.0206 9.62292 18.0763C9.40864 18.2362 9.24921 18.2647 8.98426 18.2812C8.80244 18.1923 8.65861 18.1118 8.51551 17.9687C8.44282 17.4508 8.44282 17.4508 8.61338 17.1996C8.65712 17.1524 8.70086 17.1052 8.74592 17.0565C8.79566 17.0025 8.8454 16.9484 8.89664 16.8928C8.97869 16.8066 8.97869 16.8066 9.06239 16.7187C9.119 16.6587 9.17561 16.5987 9.23394 16.5369C9.41738 16.3449 9.6033 16.1556 9.78993 15.9668C9.85171 15.9027 9.9135 15.8387 9.97715 15.7727C11.2296 14.507 12.7919 14.1016 14.3499 15.1004Z" fill="#FBF9FF"/>
<path d="M28.1359 6.31594C29.5668 6.25909 30.8788 6.76879 31.95 7.70144C33.0598 8.76566 33.6346 10.0819 33.6962 11.6211C33.658 13.1055 33.0927 14.4333 32.0946 15.5274C30.8504 16.6772 29.3593 17.0248 27.7057 16.9668C26.4594 16.8841 25.3938 16.2622 24.5312 15.3907C24.4767 15.3388 24.4222 15.2869 24.3661 15.2335C23.3715 14.2197 23.0062 12.8624 23.0138 11.479C23.055 9.97287 23.6905 8.68104 24.7753 7.64651C25.7463 6.82376 26.8714 6.40824 28.1359 6.31594ZM25.0753 9.19314C24.3717 10.2507 24.1228 11.373 24.3474 12.6264C24.6459 13.6902 25.3025 14.5791 26.2304 15.1807C27.2592 15.748 28.3943 15.8935 29.5263 15.5762C30.5565 15.2101 31.4175 14.5554 31.953 13.5938C32.4738 12.3855 32.5388 11.3143 32.1093 10.0782C31.6624 9.0745 30.9251 8.33786 29.9218 7.89065C28.1517 7.27055 26.2559 7.64321 25.0753 9.19314Z" fill="#FBF9FF"/>
<path d="M14.6874 23.9063C14.9672 24.1237 15.2196 24.3577 15.4687 24.6094C15.5232 24.6613 15.5776 24.7132 15.6338 24.7666C16.6283 25.7804 16.9936 27.1377 16.986 28.5211C16.9448 30.0272 16.3094 31.319 15.2245 32.3536C14.3168 33.1227 13.2234 33.5924 12.0312 33.6719C11.976 33.676 11.9208 33.68 11.8639 33.6841C10.5045 33.7382 9.14068 33.2529 8.12493 32.3438C8.06843 32.2954 8.01193 32.2469 7.95372 32.197C6.9247 31.2516 6.42464 29.9108 6.31066 28.541C6.25838 27.0069 6.8843 25.5918 7.9052 24.4727C9.75098 22.7669 12.5889 22.521 14.6874 23.9063ZM8.51555 25.7032C7.86417 26.5386 7.47406 27.6038 7.57805 28.6719C7.79803 29.9322 8.29596 30.942 9.3499 31.7164C10.3127 32.3321 11.4072 32.5546 12.5243 32.334C13.594 32.0647 14.4531 31.5156 15.0683 30.5909C15.6679 29.5826 15.8597 28.5304 15.6524 27.3737C15.3416 26.2659 14.6575 25.3789 13.6816 24.7754C11.9257 23.8235 9.86887 24.2518 8.51555 25.7032Z" fill="#FBF9FF"/>
<path d="M12.9379 25.6046C13.7689 26.0425 14.2889 26.6721 14.5767 27.5626C14.7337 28.3888 14.649 29.194 14.2188 29.9219C13.7122 30.6473 13.0452 31.1072 12.1875 31.3037C11.2544 31.4009 10.4432 31.1963 9.6875 30.625C9.01448 30.0023 8.72138 29.2759 8.64746 28.3741C8.67279 27.626 8.90423 26.9839 9.375 26.4063C9.43527 26.3315 9.43527 26.3315 9.49677 26.2552C10.3362 25.3191 11.8093 25.1223 12.9379 25.6046ZM10.1886 27.4167C9.91051 27.8231 9.88557 28.2317 9.94843 28.7064C10.0721 29.1856 10.3605 29.5597 10.7617 29.8438C11.1659 30.0659 11.5875 30.1287 12.0416 30.0489C12.5755 29.8814 12.9914 29.514 13.2812 29.043C13.4154 28.54 13.453 28.0391 13.2373 27.5537C12.9776 27.1053 12.5998 26.8022 12.1094 26.6407C11.2694 26.5327 10.7162 26.7626 10.1886 27.4167Z" fill="#FBF9FF"/>
<path d="M30.3126 9.37504C30.9856 9.99778 31.2787 10.7242 31.3527 11.626C31.3273 12.3741 31.0959 13.0162 30.6251 13.5938C30.5849 13.6436 30.5447 13.6935 30.5033 13.7448C30.062 14.237 29.3802 14.5817 28.7184 14.628C27.7551 14.6543 26.9833 14.4985 26.2501 13.8282C25.6898 13.2873 25.3916 12.6185 25.3639 11.8413C25.3504 10.9576 25.5533 10.2432 26.1811 9.58957C27.3869 8.47141 28.9789 8.3668 30.3126 9.37504ZM26.8751 10.7032C26.6007 11.149 26.576 11.5991 26.6407 12.1094C26.7801 12.5921 27.0833 12.9311 27.5001 13.2032C27.9536 13.4195 28.4404 13.4445 28.9256 13.3112C29.444 13.0828 29.8114 12.6706 30.0392 12.1582C30.1257 11.5313 30.055 11.0601 29.6714 10.5454C29.3414 10.1809 29.0031 9.99367 28.5157 9.92191C27.8204 9.88789 27.3343 10.1965 26.8751 10.7032Z" fill="#FBF9FF"/>
<path d="M12.6785 18.4893C13.0415 18.7721 13.296 19.0913 13.4375 19.5312C13.5028 20.1246 13.5041 20.6866 13.125 21.1718C12.6997 21.6129 12.3097 21.8268 11.6977 21.8774C11.248 21.8723 10.8566 21.7373 10.4785 21.499C10.0609 21.0691 9.87348 20.6395 9.81934 20.0439C9.87586 19.3996 10.148 18.9497 10.625 18.5156C11.2125 18.1396 12.0763 18.1303 12.6785 18.4893ZM11.2158 19.7021C11.0786 19.9091 11.0786 19.9091 11.0889 20.122C11.2022 20.3821 11.3147 20.4873 11.5625 20.625C11.8145 20.5931 11.8145 20.5931 12.0312 20.4687C12.2157 20.2426 12.2157 20.2426 12.1729 19.956C12.1368 19.6673 12.1368 19.6673 11.875 19.5312C11.5624 19.4847 11.4547 19.4878 11.2158 19.7021Z" fill="#FBF9FF"/>
<path d="M29.375 18.4374C29.8753 18.8912 30.1084 19.2642 30.1856 19.9462C30.1194 20.5968 29.8852 21.0394 29.3826 21.455C28.8875 21.7796 28.3883 21.7738 27.8125 21.7187C27.3285 21.5879 26.9896 21.2742 26.7188 20.8593C26.4798 20.3715 26.4726 19.7859 26.6135 19.2645C26.8434 18.7532 27.241 18.411 27.7588 18.208C28.3178 18.0468 28.8861 18.1191 29.375 18.4374ZM27.8906 19.6093C27.7931 19.8754 27.7931 19.8754 27.8125 20.1562C27.9232 20.358 27.9232 20.358 28.125 20.4687C28.3594 20.5273 28.3594 20.5273 28.5938 20.4687C28.7947 20.3071 28.7947 20.3071 28.9063 20.0781C28.9253 19.8739 28.9253 19.8739 28.8281 19.6874C28.4661 19.344 28.2931 19.2894 27.8906 19.6093Z" fill="#FBF9FF"/>
<path d="M8.59357 21.0937C8.82794 21.25 8.82794 21.25 8.98419 21.4844C9.01346 21.7123 8.98929 21.8953 8.90607 22.1094C8.74005 22.2705 8.74005 22.2705 8.51544 22.3437C8.22322 22.3387 8.04409 22.329 7.8172 22.1387C7.70005 21.8768 7.69874 21.6898 7.73419 21.4062C7.95954 21.0547 8.19399 21.0306 8.59357 21.0937Z" fill="#FBF9FF"/>
<path d="M21.0938 28.5156C21.2793 28.6035 21.2793 28.6035 21.4063 28.75C21.498 29.0313 21.51 29.1624 21.3867 29.4336C21.25 29.6094 21.25 29.6094 21.0156 29.7656C20.7551 29.7517 20.548 29.7309 20.3174 29.6045C20.1802 29.3543 20.1859 29.1018 20.2344 28.8281C20.4571 28.4718 20.6936 28.4656 21.0938 28.5156Z" fill="#FBF9FF"/>
<path d="M19.2578 10.249C19.5312 10.3125 19.5312 10.3125 19.6826 10.3955C19.8198 10.6457 19.8141 10.8982 19.7656 11.1719C19.6436 11.3672 19.6436 11.3672 19.4531 11.4844C19.1672 11.5201 18.9823 11.5204 18.7207 11.3965C18.543 11.1914 18.521 11.0509 18.5156 10.7812C18.682 10.4151 18.8353 10.2264 19.2578 10.249Z" fill="#FBF9FF"/>
<path d="M22.6631 26.8403C22.8123 26.8751 22.8123 26.8751 23.0125 27.0362C23.1589 27.3353 23.135 27.4948 23.0467 27.8126C22.9637 27.9639 22.9637 27.9639 22.8123 28.0469C22.2817 28.1059 22.2817 28.1059 21.992 27.9249C21.8292 27.6603 21.8312 27.4927 21.8748 27.1876C22.0746 26.863 22.3024 26.82 22.6631 26.8403Z" fill="#FBF9FF"/>
<path d="M17.8126 11.9531C18.008 12.0752 18.008 12.0752 18.1251 12.2656C18.1687 12.5708 18.1708 12.7384 18.008 13.0029C17.7712 13.1509 17.6128 13.1753 17.3369 13.1598C17.1876 13.125 17.1876 13.125 16.9874 12.9639C16.8411 12.6647 16.865 12.5052 16.9533 12.1875C17.1316 11.8623 17.4824 11.8947 17.8126 11.9531Z" fill="#FBF9FF"/>
</g>
<defs>
<clipPath id="clip0_1277_1114">
<rect width="40" height="40" fill="white"/>
</clipPath>
</defs>
</svg>
