<svg width="50" height="50" viewBox="0 0 50 50" fill="none" xmlns="http://www.w3.org/2000/svg">
<g clip-path="url(#clip0_1277_1137)">
<path d="M29.3945 2.73438C30.0421 2.78992 30.6334 2.91084 31.2561 3.09448C31.3906 3.13379 31.3906 3.13379 31.5279 3.1739C34.7128 4.12152 37.5465 5.71821 40.0391 7.91016C40.1097 7.96995 40.1803 8.02975 40.2531 8.09135C43.1934 10.5921 45.3762 14.0228 46.582 17.6758C46.6188 17.7861 46.6188 17.7861 46.6563 17.8986C48.5902 23.785 47.9363 30.0247 45.2213 35.5434C44.1835 37.595 42.7648 39.3986 41.1747 41.0458C41.0473 41.178 40.9215 41.3117 40.7963 41.4459C40.2631 42.0055 39.6518 42.4677 39.0387 42.9354C38.8795 43.057 38.7213 43.1799 38.5632 43.3029C36.2189 45.1038 33.5122 46.3163 30.6641 47.0703C30.5478 47.1013 30.5478 47.1013 30.4292 47.133C30.0209 47.234 29.7096 47.3011 29.2969 47.168C29.2611 47.0157 29.2268 46.863 29.1931 46.7102C29.1739 46.6252 29.1546 46.5403 29.1348 46.4527C29.0994 46.1746 29.1386 45.9746 29.1992 45.7031C29.2993 45.6782 29.2993 45.6782 29.4013 45.6528C35.0516 44.2293 39.99 41.0618 43.0359 35.9863C43.1784 35.7434 43.3179 35.4988 43.457 35.2539C43.507 35.1679 43.507 35.1679 43.558 35.0802C46.202 30.5185 46.7816 24.6903 45.4533 19.6342C44.7026 16.9332 43.4919 14.4405 41.7969 12.207C41.7331 12.1224 41.6692 12.0378 41.6035 11.9507C41.0972 11.2993 40.539 10.6964 39.9725 10.0975C39.8691 9.9878 39.7668 9.87707 39.6648 9.76601C39.1048 9.1748 38.4396 8.69439 37.793 8.20312C37.6997 8.13213 37.6064 8.06113 37.5103 7.98798C35.3969 6.41606 32.9887 5.3008 30.4497 4.62151C29.9937 4.4993 29.5475 4.35371 29.1016 4.19922C29.1476 3.68428 29.2071 3.22167 29.3945 2.73438Z" fill="#FBF9FF"/>
<path d="M20.7033 2.73438C20.8 3.21777 20.8967 3.70117 20.9963 4.19922C20.6486 4.31511 20.3113 4.42562 19.9594 4.52118C15.2215 5.82685 11.0341 8.3907 8.10564 12.4023C8.04421 12.4849 7.98278 12.5675 7.91948 12.6526C7.06956 13.827 6.3814 15.0985 5.76189 16.4062C5.71078 16.5119 5.65967 16.6175 5.60701 16.7263C4.60665 18.9096 4.00495 21.487 3.98081 23.8918C3.97986 23.9708 3.9789 24.0499 3.97792 24.1313C3.9608 25.9222 3.99066 27.6403 4.3947 29.3945C4.41455 29.4809 4.43439 29.5672 4.45483 29.6562C4.58162 30.1924 4.7251 30.7222 4.88298 31.25C4.91395 31.3544 4.94492 31.4587 4.97683 31.5662C5.06821 31.8549 5.16803 32.1381 5.27361 32.4219C5.30635 32.5104 5.30635 32.5104 5.33975 32.6007C6.32341 35.2216 7.87534 37.5726 9.809 39.5874C9.90992 39.6927 10.0103 39.7985 10.1102 39.9048C12.8362 42.8033 16.7994 44.9654 20.7288 45.6408C20.7848 45.6614 20.8409 45.6819 20.8986 45.7031C21.0226 46.0751 20.9495 46.2711 20.8559 46.6492C20.8278 46.7644 20.7997 46.8795 20.7708 46.9982C20.7485 47.0865 20.7263 47.1747 20.7033 47.2656C20.0557 47.2101 19.4645 47.0891 18.8417 46.9055C18.7523 46.8795 18.6629 46.8534 18.5708 46.8265C14.0235 45.4758 9.74951 42.701 6.95117 38.8303C6.83512 38.6705 6.71597 38.5134 6.59616 38.3564C4.45505 35.5083 3.12306 32.1129 2.53923 28.6133C2.52112 28.507 2.50301 28.4007 2.48435 28.2911C2.31978 27.2148 2.30522 26.148 2.3073 25.061C2.30728 24.919 2.30728 24.919 2.30726 24.7741C2.30991 23.2824 2.40714 21.8697 2.73455 20.4102C2.76439 20.2626 2.79402 20.1149 2.82343 19.9673C3.67217 15.8879 5.81757 12.1624 8.69158 9.17969C8.77719 9.09009 8.77719 9.09009 8.86453 8.99868C11.6862 6.05763 16.4656 2.73438 20.7033 2.73438Z" fill="#FBF9FF"/>
<path d="M43.0664 15.5273C44.0292 17.5506 44.7148 19.5706 45.1172 21.7773C45.1302 21.8477 45.1431 21.918 45.1565 21.9904C46.015 26.9137 44.6685 32.3903 41.8254 36.4778C41.2882 37.2283 40.7129 37.9511 40.1367 38.6719C39.7971 38.5239 39.5551 38.3225 39.2822 38.0737C39.2042 38.003 39.1261 37.9322 39.0457 37.8593C38.9573 37.7781 38.9573 37.7781 38.8672 37.6953C39.0947 37.2908 39.369 36.9374 39.6606 36.5784C42.7595 32.6845 44.1015 27.6892 43.577 22.7548C43.3081 20.6079 42.7002 18.4853 41.6737 16.5746C41.6016 16.4062 41.6016 16.4062 41.6016 16.1133C41.7904 16.0149 41.9797 15.9174 42.1692 15.8203C42.2746 15.7659 42.3799 15.7115 42.4885 15.6555C42.7734 15.5273 42.7734 15.5273 43.0664 15.5273Z" fill="#FBF9FF"/>
<path d="M17.3155 11.5967C17.8537 12.0262 18.1074 12.5539 18.3592 13.1836C20.7762 13.2158 23.1932 13.2481 25.6834 13.2813C25.6834 13.7969 25.6834 14.3125 25.6834 14.8438C23.2342 14.8438 20.785 14.8438 18.2616 14.8438C18.2293 15.0049 18.1971 15.166 18.1639 15.3321C17.7808 16.0944 17.2145 16.6238 16.4427 16.98C15.5324 17.2763 14.5839 17.1571 13.7328 16.7519C13.0039 16.3245 12.6081 15.7215 12.3045 14.9414C12.0922 14.0545 12.1797 13.1513 12.6406 12.3543C13.801 10.755 15.7088 10.4975 17.3155 11.5967ZM14.1356 13.031C13.8156 13.4996 13.7191 13.772 13.7694 14.3555C13.9689 14.9097 14.316 15.2636 14.8436 15.5274C15.4801 15.6064 15.892 15.5198 16.4061 15.1367C16.7247 14.7936 16.824 14.5266 16.8456 14.0686C16.8221 13.5664 16.716 13.2879 16.4061 12.8906C16.0771 12.6099 15.7583 12.4771 15.3258 12.4573C14.8004 12.5157 14.4954 12.6413 14.1356 13.031Z" fill="#FBF9FF"/>
<path d="M36.4258 33.3008C37.0569 33.7039 37.513 34.3374 37.7583 35.0449C37.9399 36.1386 37.8087 37.0916 37.1887 38.0127C36.4832 38.7025 35.7832 39.0582 34.79 39.0991C33.8871 39.0799 33.1474 38.8034 32.4924 38.1767C32.0807 37.7155 31.8601 37.3279 31.7383 36.7188C29.3213 36.7188 26.9043 36.7188 24.4141 36.7188C24.4141 36.2031 24.4141 35.6875 24.4141 35.1563C26.8311 35.124 29.248 35.0918 31.7383 35.0586C31.8994 34.7363 32.0605 34.4141 32.2266 34.082C33.2557 32.8181 35.0049 32.4845 36.4258 33.3008ZM33.4656 35.0769C33.2369 35.4581 33.1721 35.7874 33.2031 36.2305C33.3591 36.7516 33.6206 37.1066 34.082 37.4024C34.5294 37.5515 34.9323 37.5924 35.3706 37.4115C35.8116 37.1577 36.0791 36.9273 36.2305 36.4258C36.2932 35.9393 36.2857 35.5685 36.0779 35.1196C35.6693 34.6796 35.3075 34.454 34.7107 34.4238C34.1603 34.451 33.8567 34.7069 33.4656 35.0769Z" fill="#FBF9FF"/>
<path d="M21.4845 5.85939C22.008 6.20629 22.3905 6.65638 22.6564 7.22658C22.7048 7.46828 22.7048 7.46828 22.7541 7.71486C23.8498 7.71486 24.9455 7.71486 26.0744 7.71486C26.0744 8.23048 26.0744 8.74611 26.0744 9.27736C24.9787 9.27736 23.883 9.27736 22.7541 9.27736C22.7218 9.47072 22.6896 9.66408 22.6564 9.8633C22.1953 10.6703 21.552 11.1605 20.7277 11.554C19.8274 11.7444 18.9805 11.6637 18.1642 11.2305C17.4303 10.7351 16.9456 10.0917 16.7375 9.22471C16.6002 8.35946 16.7474 7.5916 17.1571 6.81764C18.2472 5.49195 19.9147 4.95352 21.4845 5.85939ZM18.5243 7.67213C18.2445 8.07633 18.2216 8.40347 18.2619 8.88673C18.4439 9.36068 18.7167 9.67824 19.1408 9.96095C19.6338 10.1253 20.051 10.1135 20.5263 9.90602C20.9308 9.68138 21.1501 9.42694 21.2892 8.98439C21.3783 8.45991 21.3247 8.01597 21.0275 7.56914C20.7385 7.23903 20.4286 7.06736 19.996 6.99426C19.3359 6.95981 18.9672 7.18142 18.5243 7.67213Z" fill="#FBF9FF"/>
<path d="M19.6465 16.3818C20.5239 16.3319 21.2568 16.6491 21.9178 17.2119C22.3176 17.5971 22.5574 17.9388 22.754 18.457C22.754 18.5537 22.754 18.6504 22.754 18.75C23.8497 18.75 24.9454 18.75 26.0743 18.75C26.0743 19.2656 26.0743 19.7813 26.0743 20.3125C24.9786 20.3125 23.8829 20.3125 22.754 20.3125C22.7217 20.4736 22.6895 20.6348 22.6563 20.8008C22.2741 21.5613 21.7088 22.0891 20.9412 22.4487C20.2012 22.693 19.2663 22.6955 18.5486 22.3877C18.4188 22.3174 18.2904 22.2444 18.1641 22.168C18.0614 22.1136 17.9587 22.0592 17.8528 22.0032C17.1425 21.4191 16.783 20.6009 16.6718 19.6991C16.6344 18.8131 16.9105 18.0619 17.479 17.387C18.1178 16.7396 18.7595 16.4836 19.6465 16.3818ZM18.5929 18.5356C18.2967 18.9633 18.1771 19.2973 18.2618 19.8242C18.3989 20.2527 18.5775 20.5953 18.9576 20.8496C19.3943 21.06 19.8391 21.0728 20.3126 20.9961C20.7851 20.7686 21.0616 20.4921 21.2891 20.0195C21.3674 19.5291 21.3477 19.16 21.1243 18.7134C20.704 18.2362 20.4015 17.9955 19.7598 17.9539C19.2735 17.9855 18.9161 18.1732 18.5929 18.5356Z" fill="#FBF9FF"/>
<path d="M32.0923 38.9283C32.7843 39.4088 33.1768 40.1014 33.3401 40.9195C33.4792 41.8136 33.2854 42.5702 32.7961 43.3274C32.3379 43.9097 31.6957 44.3941 30.957 44.5313C29.8496 44.6374 29.0128 44.4932 28.1433 43.7867C27.6584 43.37 27.5672 43.025 27.2461 42.3829C26.1826 42.3506 25.1191 42.3184 24.0234 42.2852C24.0234 41.7696 24.0234 41.254 24.0234 40.7227C25.0869 40.6905 26.1504 40.6583 27.2461 40.6251C27.4395 40.19 27.4395 40.19 27.6367 39.7461C28.0812 39.0517 28.7078 38.6627 29.4865 38.4167C30.4736 38.2313 31.2522 38.425 32.0923 38.9283ZM28.9673 40.6006C28.707 41.1212 28.6528 41.4974 28.8147 42.0594C29.0615 42.4814 29.3418 42.7471 29.7852 42.9688C30.3402 43.0265 30.7761 42.9954 31.25 42.6758C31.6254 42.3109 31.7888 41.9219 31.8359 41.4063C31.7525 40.9143 31.6032 40.5877 31.25 40.2344C30.4053 39.6777 29.5963 39.8723 28.9673 40.6006Z" fill="#FBF9FF"/>
<path d="M31.6956 27.6855C32.5033 28.1535 33.0202 28.7969 33.3008 29.6875C33.506 30.5444 33.3406 31.3852 32.9231 32.1537C32.7549 32.413 32.5558 32.6091 32.3242 32.8125C32.2477 32.8809 32.1711 32.9494 32.0923 33.02C31.3989 33.5153 30.6228 33.6856 29.7852 33.5937C28.8343 33.357 28.1114 32.9529 27.594 32.1106C27.4495 31.8543 27.3393 31.6273 27.2461 31.3476C26.1826 31.3154 25.1191 31.2832 24.0234 31.25C24.0234 30.7343 24.0234 30.2187 24.0234 29.6875C25.0869 29.6552 26.1504 29.623 27.2461 29.5898C27.4072 29.2675 27.5684 28.9453 27.7344 28.6132C28.7233 27.4564 30.2798 27.0242 31.6956 27.6855ZM28.9734 29.6081C28.7445 29.9896 28.6806 30.3183 28.7109 30.7617C28.8347 31.1984 29.0289 31.477 29.364 31.781C29.8369 32.0041 30.2684 32.1158 30.7827 31.9698C31.2475 31.7629 31.5068 31.5177 31.7383 31.0547C31.8923 30.5927 31.812 30.2423 31.6498 29.7969C31.4517 29.4128 31.1464 29.1962 30.7617 29.0039C29.9717 28.9172 29.5555 29.0574 28.9734 29.6081Z" fill="#FBF9FF"/>
<path d="M27.1241 22.6318C27.8293 23.3371 28.1176 24.0562 28.1616 25.0366C28.1423 25.913 27.768 26.7242 27.1485 27.3437C26.4073 27.9207 25.637 28.1692 24.701 28.1128C23.8377 27.9939 23.1396 27.6012 22.5586 26.9531C21.9758 26.0969 21.8948 25.3447 21.9727 24.3164C22.1648 23.4693 22.6642 22.8878 23.3094 22.3327C24.6896 21.6296 25.8624 21.8289 27.1241 22.6318ZM23.9666 23.8739C23.5689 24.3415 23.5003 24.6427 23.5081 25.2403C23.5626 25.7392 23.8272 25.9931 24.2005 26.3C24.5553 26.4879 24.7937 26.5554 25.1953 26.5625C25.7883 26.3784 26.1768 26.0927 26.5015 25.5615C26.6232 25.0261 26.5452 24.5689 26.294 24.0844C25.9782 23.716 25.7303 23.5733 25.2625 23.4497C24.7606 23.4327 24.3429 23.5245 23.9666 23.8739Z" fill="#FBF9FF"/>
<path d="M21.5819 38.8672C21.917 39.1075 22.1559 39.3405 22.3814 39.6851C22.4291 39.7563 22.4768 39.8276 22.526 39.901C22.9586 40.685 22.9853 41.6125 22.7843 42.4759C22.4675 43.3364 21.915 43.9328 21.0936 44.336C20.3092 44.6448 19.4122 44.666 18.6156 44.3787C17.7845 43.9898 17.148 43.3452 16.8215 42.4835C16.5815 41.6492 16.6513 40.835 16.992 40.0391C17.438 39.257 18.126 38.6734 18.9966 38.4255C19.9508 38.2416 20.7333 38.3992 21.5819 38.8672ZM18.5728 40.5274C18.2571 40.9604 18.2257 41.2685 18.2616 41.7969C18.4611 42.3511 18.8082 42.705 19.3358 42.9688C19.8612 43.034 20.304 43.0044 20.751 42.7071C21.0799 42.4191 21.2519 42.1098 21.3259 41.679C21.3498 41.2265 21.2854 40.8606 21.0345 40.4793C20.684 40.1003 20.2649 39.9593 19.763 39.8987C19.2469 39.9656 18.9119 40.1368 18.5728 40.5274Z" fill="#FBF9FF"/>
<path d="M36.8053 11.6401C37.4029 12.1504 37.7514 12.8462 37.8258 13.6245C37.8366 14.663 37.7087 15.4793 36.9827 16.2567C36.2299 16.9335 35.4419 17.1433 34.441 17.1264C33.6378 17.0445 32.9075 16.7244 32.3696 16.1129C31.7519 15.2711 31.5452 14.424 31.6772 13.3831C31.8713 12.516 32.3354 11.8926 33.0566 11.383C34.3183 10.6176 35.6416 10.8322 36.8053 11.6401ZM33.4595 13.153C33.237 13.6065 33.1028 14.0545 33.268 14.55C33.5039 14.9969 33.8286 15.3029 34.2773 15.5273C34.9139 15.6064 35.3257 15.5198 35.8398 15.1367C36.1585 14.7936 36.2577 14.5266 36.2793 14.0686C36.2559 13.5663 36.1497 13.2879 35.8398 12.8906C35.4576 12.5644 35.0702 12.4334 34.5688 12.4626C34.0869 12.5556 33.7798 12.7906 33.4595 13.153Z" fill="#FBF9FF"/>
<path d="M16.9923 33.3007C17.6235 33.7039 18.0795 34.3373 18.3248 35.0448C18.5064 36.1385 18.3752 37.0916 17.7553 38.0127C17.0498 38.7025 16.3497 39.0582 15.3566 39.0991C14.4541 39.0799 13.7116 38.8041 13.0586 38.1752C12.4299 37.475 12.1511 36.6989 12.1831 35.7517C12.2934 34.8122 12.6975 34.1776 13.3546 33.5205C14.4565 32.7576 15.8062 32.6193 16.9923 33.3007ZM14.0321 35.1135C13.7523 35.5176 13.7221 35.8447 13.7697 36.3281C13.97 36.7648 14.2228 37.161 14.6486 37.4023C15.0959 37.5514 15.4989 37.5924 15.9372 37.4115C16.3781 37.1576 16.6456 36.9273 16.797 36.4257C16.8703 35.9227 16.875 35.4994 16.5895 35.0647C16.287 34.7064 15.9831 34.5101 15.5107 34.4421C14.8447 34.4063 14.4805 34.6166 14.0321 35.1135Z" fill="#FBF9FF"/>
<path d="M21.2687 27.7031C22.0172 28.1501 22.5344 28.7382 22.8136 29.5723C22.9694 30.4415 22.9607 31.3789 22.4611 32.129C21.9391 32.8546 21.2995 33.3865 20.4092 33.5663C19.5083 33.6938 18.6341 33.5358 17.8896 32.9957C17.1699 32.383 16.772 31.6826 16.6784 30.7473C16.6359 29.7772 16.9682 28.9741 17.6149 28.2593C18.6229 27.3474 20.0171 27.1086 21.2687 27.7031ZM18.6525 29.3946C18.3925 29.7503 18.2767 30.0841 18.207 30.5176C18.292 31.0465 18.5023 31.4435 18.9257 31.7803C19.3469 32.0246 19.7178 32.087 20.1975 32.0065C20.637 31.8561 20.9662 31.5549 21.208 31.1627C21.3603 30.7774 21.3407 30.3869 21.2893 29.9805C21.0618 29.508 20.7852 29.2315 20.3127 29.004C19.6981 28.9044 19.1188 28.9531 18.6525 29.3946Z" fill="#FBF9FF"/>
<path d="M31.9335 5.85936C32.696 6.34995 33.1253 7.08061 33.3652 7.94791C33.504 8.83682 33.2755 9.68151 32.7903 10.4271C32.3162 11.0222 31.6065 11.4681 30.8593 11.6211C29.8677 11.711 28.9913 11.5578 28.192 10.9375C27.5136 10.2828 27.1641 9.42628 27.1323 8.49112C27.1895 7.46378 27.5832 6.79173 28.2958 6.07909C29.393 5.31949 30.7541 5.17106 31.9335 5.85936ZM28.9733 7.63548C28.7446 8.01665 28.6798 8.34592 28.7108 8.78905C28.8668 9.31018 29.1283 9.66512 29.5898 9.96092C30.0372 10.1101 30.4418 10.1538 30.8784 9.96664C31.3875 9.667 31.6426 9.38255 31.8236 8.81346C31.8428 8.31522 31.7363 7.84009 31.4029 7.45581C30.9576 7.07275 30.5745 6.99641 30.0078 7.00377C29.556 7.05947 29.2914 7.33458 28.9733 7.63548Z" fill="#FBF9FF"/>
<path d="M27.0401 44.5446C27.6204 45.0572 28.0436 45.7074 28.125 46.4843C28.1329 46.5595 28.1408 46.6346 28.149 46.7121C28.193 47.5578 27.9192 48.3959 27.3971 49.0661C26.7442 49.7257 25.995 50.0269 25.0732 50.0366C24.1722 50.0224 23.4707 49.8107 22.8058 49.1897C22.1085 48.4141 21.9144 47.6017 21.9295 46.5721C22.0228 45.7483 22.443 45.028 23.0541 44.4725C24.291 43.5743 25.8216 43.6739 27.0401 44.5446ZM23.6328 46.289C23.4639 46.6268 23.5008 46.9933 23.5351 47.3632C23.7227 47.8864 24.0153 48.1892 24.5117 48.4374C25.06 48.4986 25.5591 48.4967 26.028 48.183C26.3978 47.8329 26.5382 47.4166 26.6174 46.9238C26.5327 46.3966 26.3258 45.9852 25.8884 45.6645C24.941 45.1499 24.2429 45.4697 23.6328 46.289Z" fill="#FBF9FF"/>
<path d="M31.964 16.8824C32.7476 17.5019 33.222 18.1712 33.374 19.1651C33.4513 20.0184 33.2199 20.7948 32.7148 21.4844C32.1484 22.1102 31.5286 22.5115 30.6823 22.5957C29.6876 22.6398 28.9787 22.4823 28.1982 21.8506C27.5927 21.2837 27.2232 20.6582 27.1484 19.8243C27.1294 18.9991 27.302 18.3761 27.7343 17.6758C27.7887 17.5872 27.8431 17.4986 27.8991 17.4073C29.0421 16.2952 30.585 16.1018 31.964 16.8824ZM28.9611 18.6219C28.7161 19.1414 28.6342 19.5897 28.8146 20.1417C29.0757 20.5122 29.3747 20.7909 29.7851 20.9961C30.2661 21.0489 30.6512 21.0493 31.0912 20.8375C31.455 20.5083 31.6828 20.2055 31.8237 19.7327C31.8444 19.2248 31.7437 18.8761 31.4208 18.4815C31.0586 18.1851 30.7522 17.9971 30.2856 17.9261C29.7343 18.0033 29.3352 18.2094 28.9611 18.6219Z" fill="#FBF9FF"/>
<path d="M26.66 0.390597C26.7627 0.444979 26.8655 0.499361 26.9713 0.555392C27.6446 1.10897 28.0528 1.91448 28.1523 2.77707C28.1868 3.69539 27.9442 4.46569 27.352 5.17156C26.6857 5.8241 25.9282 6.10895 25.0121 6.18283C24.2007 6.15888 23.4561 5.86456 22.8732 5.30088C22.1205 4.49892 21.9013 3.80333 21.9355 2.70078C22.0253 1.83454 22.3928 1.16068 23.0467 0.585909C24.1252 -0.146447 25.5176 -0.301108 26.66 0.390597ZM23.7486 2.15451C23.4856 2.58367 23.4748 3.02732 23.535 3.5156C23.7513 3.94014 24.0045 4.24649 24.4139 4.49216C24.8713 4.62798 25.2656 4.63752 25.7079 4.44943C26.1338 4.20239 26.3775 3.87039 26.5624 3.41794C26.6419 2.92314 26.5398 2.55876 26.3003 2.12895C26.079 1.82625 25.846 1.67112 25.4881 1.56247C24.7473 1.44977 24.2566 1.57651 23.7486 2.15451Z" fill="#FBF9FF"/>
<path d="M40.1367 11.3281C40.3515 11.5494 40.3515 11.5494 40.5945 11.8408C40.6754 11.936 40.7564 12.0312 40.8398 12.1292C41.0156 12.4023 41.0156 12.4023 41.0194 12.6095C40.8829 12.8564 40.7192 12.9924 40.4968 13.1653C40.4207 13.2263 40.3445 13.2874 40.266 13.3503C40.0391 13.4766 40.0391 13.4766 39.8411 13.4781C39.5624 13.3346 39.422 13.1328 39.2334 12.8845C39.1644 12.7948 39.0954 12.705 39.0244 12.6125C38.9725 12.5432 38.9206 12.4738 38.8672 12.4023C38.9809 12.2887 39.0946 12.175 39.2086 12.0617C39.3106 11.9592 39.4115 11.8556 39.5115 11.7512C39.9205 11.3281 39.9205 11.3281 40.1367 11.3281Z" fill="#FBF9FF"/>
<path d="M41.6134 13.3708C41.8865 13.5281 42.0036 13.7358 42.1692 14.0014C42.2302 14.0968 42.2913 14.1923 42.3542 14.2906C42.4805 14.5507 42.4805 14.5507 42.3828 14.8437C42.152 15.0074 42.152 15.0074 41.864 15.1672C41.7697 15.2212 41.6754 15.2752 41.5783 15.3308C41.3086 15.4296 41.3086 15.4296 41.0984 15.3827C40.8543 15.182 40.7441 14.9655 40.6006 14.685C40.5497 14.5871 40.4989 14.4891 40.4465 14.3882C40.4087 14.313 40.3709 14.2377 40.332 14.1601C40.5018 14.0264 40.6729 13.8945 40.8447 13.7634C40.9399 13.6897 41.0351 13.6161 41.1331 13.5402C41.4062 13.3789 41.4062 13.3789 41.6134 13.3708Z" fill="#FBF9FF"/>
<path d="M21.9727 35.1562C22.4883 35.1562 23.0039 35.1562 23.5352 35.1562C23.5352 35.6719 23.5352 36.1875 23.5352 36.7188C23.0195 36.7188 22.5039 36.7188 21.9727 36.7188C21.9727 36.2031 21.9727 35.6875 21.9727 35.1562Z" fill="#FBF9FF"/>
<path d="M19.5312 35.1562C20.0469 35.1562 20.5625 35.1562 21.0938 35.1562C21.0938 35.6719 21.0938 36.1875 21.0938 36.7188C20.5781 36.7188 20.0625 36.7188 19.5312 36.7188C19.5312 36.2031 19.5312 35.6875 19.5312 35.1562Z" fill="#FBF9FF"/>
<path d="M29.0039 13.2812C29.5195 13.2812 30.0352 13.2812 30.5664 13.2812C30.5664 13.7969 30.5664 14.3125 30.5664 14.8438C30.0508 14.8438 29.5352 14.8438 29.0039 14.8438C29.0039 14.3281 29.0039 13.8125 29.0039 13.2812Z" fill="#FBF9FF"/>
<path d="M26.5625 13.2812C27.0781 13.2812 27.5938 13.2812 28.125 13.2812C28.125 13.7969 28.125 14.3125 28.125 14.8438C27.6094 14.8438 27.0938 14.8438 26.5625 14.8438C26.5625 14.3281 26.5625 13.8125 26.5625 13.2812Z" fill="#FBF9FF"/>
</g>
<defs>
<clipPath id="clip0_1277_1137">
<rect width="50" height="50" fill="white"/>
</clipPath>
</defs>
</svg>
