<svg width="185" height="124" viewBox="0 0 185 124" fill="none" xmlns="http://www.w3.org/2000/svg">
<path d="M100.048 3.44914C98.9522 3.41162 97.7177 3.88988 96.303 5.03913C86.2426 13.2115 87.2586 10.6319 86.2669 12.6438L81.5838 22.1501C81.5838 22.1501 72.9485 22.7609 70.5824 26.3036C68.2161 29.8462 72.6365 34.9526 70.6254 39.9605C68.6142 44.9687 53.0381 49.1614 48.078 50.5544C43.1177 51.9474 35.718 47.263 35.718 47.263C35.718 47.263 20.5112 31.0081 11.0598 24.1482C0.256915 16.3076 14.9044 42.064 13.7292 61.2582C12.9857 73.4014 -7.31852 101.267 5.71816 96.8018C14.5709 93.77 31.5714 86.9174 31.5714 86.9174C31.5714 86.9174 48.2789 88.5169 54.2028 91.1442C60.1273 93.7715 75.951 95.0177 76.5932 99.9405C77.2353 104.863 70.623 115.088 70.623 115.088C78.5795 111.209 87.1826 104.363 95.9314 105.193C99.6324 105.384 107.816 106.999 114.333 106.432C120.849 105.865 126.849 102.622 128.434 106.37C130.02 110.118 124.99 119.832 129.505 121.773C129.505 121.773 134.948 101.685 148.749 99.7105C162.55 97.736 175.309 87.6431 176.021 80.7738C176.733 73.9046 130.257 75.5551 133.253 71.9967C137.327 67.1582 183.088 65.9788 182.803 58.2513C182.519 50.5243 173.827 41.6361 166.245 36.0283C158.663 30.4203 147.575 28.0222 138.921 26.4984C130.267 24.9749 122.898 29.8414 115.064 26.2068C108.332 23.0833 106.746 3.66415 100.047 3.44981L100.048 3.44914ZM140.403 36.8175C146.343 37.0326 150.985 42.1641 150.763 48.2859C150.541 54.4078 145.541 59.1993 139.601 58.9842C133.66 58.7691 129.027 53.6291 129.249 47.5068C129.47 41.385 134.463 36.6024 140.403 36.8175Z" fill="#044D91"/>
</svg>
