<svg width="185" height="124" viewBox="0 0 185 124" fill="none" xmlns="http://www.w3.org/2000/svg">
<path d="M85.1931 3.44914C86.289 3.41162 87.5235 3.88988 88.9382 5.03913C98.9986 13.2115 97.9826 10.6319 98.9743 12.6438L103.657 22.1501C103.657 22.1501 112.293 22.7609 114.659 26.3036C117.025 29.8462 112.605 34.9526 114.616 39.9605C116.627 44.9687 132.203 49.1614 137.163 50.5544C142.123 51.9474 149.523 47.263 149.523 47.263C149.523 47.263 164.73 31.0081 174.181 24.1482C184.984 16.3076 170.337 42.064 171.512 61.2582C172.256 73.4014 192.56 101.267 179.523 96.8018C170.67 93.77 153.67 86.9174 153.67 86.9174C153.67 86.9174 136.962 88.5169 131.038 91.1442C125.114 93.7715 109.29 95.0177 108.648 99.9405C108.006 104.863 114.618 115.088 114.618 115.088C106.662 111.209 98.0586 104.363 89.3098 105.193C85.6088 105.384 77.425 106.999 70.9086 106.432C64.3922 105.865 58.3925 102.622 56.8068 106.37C55.2215 110.118 60.2508 119.832 55.7365 121.773C55.7365 121.773 50.2927 101.685 36.492 99.7105C22.6913 97.736 9.93252 87.6431 9.22055 80.7738C8.50831 73.9046 54.9844 75.5551 51.9883 71.9967C47.9146 67.1582 2.15361 65.9788 2.438 58.2513C2.72236 50.5243 11.414 41.6361 18.9965 36.0283C26.5785 30.4203 37.6659 28.0222 46.32 26.4984C54.9742 24.9749 62.343 29.8414 70.1767 26.2068C76.9092 23.0833 78.4949 3.66415 85.1937 3.44981L85.1931 3.44914ZM44.838 36.8175C38.8978 37.0326 34.2565 42.1641 34.4782 48.2859C34.6999 54.4078 39.7005 59.1993 45.6407 58.9842C51.5808 58.7691 56.2142 53.6291 55.9925 47.5068C55.7708 41.385 50.778 36.6024 44.838 36.8175Z" fill="#044D91"/>
</svg>
