<svg width="80" height="81" viewBox="0 0 80 81" fill="none" xmlns="http://www.w3.org/2000/svg">
<g clip-path="url(#clip0_1317_38)">
<path d="M34.9456 0.125636C35.6063 0.446188 35.8833 0.748866 36.1346 1.44255C36.2293 1.85548 36.3128 2.2711 36.3875 2.68814C37.5744 9.07176 41.635 14.991 44.9636 20.4269C45.8873 21.9354 46.8055 23.4472 47.7243 24.9586C47.9646 25.3534 48.2057 25.7477 48.4471 26.1418C56.1136 38.712 56.1136 38.712 55.0353 43.894C55.0014 44.0684 54.9674 44.2427 54.9325 44.4223C54.8212 44.9882 54.7053 45.5529 54.5882 46.1175C54.526 46.4206 54.526 46.4206 54.4624 46.7298C54.2596 47.7146 54.054 48.6987 53.8449 49.6823C53.5654 51.0234 53.4198 52.2772 53.4118 53.647C53.4059 53.8945 53.4059 53.8945 53.4 54.147C53.3941 55.1272 53.4692 55.8132 54.0235 56.6587C54.8556 57.2135 55.8883 57.1533 56.8471 57.0352C57.5986 56.8584 58.3395 56.6425 59.0817 56.4301C60.1651 56.1311 61.1298 56.0127 62.2588 56.0977C62.7367 56.1322 62.7367 56.1322 63.2471 55.7175C64.1406 55.5558 64.7782 55.6222 65.5647 56.0823C66.2075 56.7053 66.5434 57.5141 66.8235 58.3528C66.8235 58.4771 66.8235 58.6013 66.8235 58.7293C66.9244 58.7604 67.0253 58.7915 67.1292 58.8235C68.2494 59.1811 69.3 59.6326 70.3647 60.1293C72.3581 61.0361 74.1785 61.7037 76.3529 61.9999C77.7292 62.1876 78.9428 62.4596 80 63.4352C80 63.5594 80 63.6837 80 63.8117C79.8722 63.8191 79.7445 63.8266 79.6128 63.8343C75.1684 64.1066 71.719 64.9166 68 67.3999C62.1402 71.3087 55.6263 73.837 48.7529 75.294C48.5587 75.3357 48.5587 75.3357 48.3606 75.3783C40.8729 76.9606 33.0667 77.0944 25.4471 76.7058C25.29 76.6978 25.1329 76.6898 24.9711 76.6816C24.4206 76.6524 23.8703 76.6221 23.3202 76.5845C21.4014 76.4604 20.116 76.7918 18.4471 77.7411C18.2872 77.827 18.1273 77.9129 17.9625 78.0014C16.7652 78.6762 15.6994 79.5129 14.6235 80.3624C13.718 81.0613 12.9783 81.0535 11.8588 80.9411C10.5442 80.5827 9.6186 79.8033 8.65882 78.8705C8.44117 78.667 8.44117 78.667 8.21912 78.4595C6.90346 77.1957 5.79659 75.809 4.70588 74.3528C4.62429 74.245 4.5427 74.1372 4.45864 74.0262C0 68.1072 0 68.1072 0 65.694C2.0002 64.6939 5.09144 65.8233 7.08888 66.3368C13.3869 67.9122 19.1194 66.1966 24.8455 63.6827C26.1485 63.111 27.4553 62.5834 28.8 62.1175C28.7548 61.9627 28.7095 61.8078 28.6629 61.6482C28.3109 60.406 28.2091 59.392 28.3294 58.1175C28.5 56.2183 28.1696 54.473 27.6949 52.6359C27.2823 50.9918 27.2537 49.4689 27.3149 47.7774C27.3197 47.598 27.3245 47.4186 27.3294 47.2337C27.336 47.0731 27.3425 46.9124 27.3493 46.7469C27.2815 46.2051 27.0736 45.9669 26.7294 45.5528C26.5337 44.4669 26.7694 43.3169 26.9176 42.2352C27.3327 39.1427 26.9696 36.4088 26.0985 33.4117C24.9131 28.8414 26.0017 23.5807 26.7294 19.0117C26.7872 18.6466 26.8451 18.2815 26.9029 17.9163C27.4043 14.7524 27.91 11.589 28.4361 8.42899C28.6339 7.23943 28.826 6.04978 28.9984 4.85624C29.0296 4.64831 29.0609 4.44039 29.093 4.22616C29.1499 3.84503 29.2041 3.46346 29.2546 3.08144C29.4256 1.96209 29.6746 1.35731 30.4941 0.564607C31.811 -0.286854 33.4542 -0.250507 34.9456 0.125636Z" fill="#044D91"/>
</g>
<defs>
<clipPath id="clip0_1317_38">
<rect width="80" height="80.9412" fill="white"/>
</clipPath>
</defs>
</svg>
