<svg width="100" height="57" viewBox="0 0 100 57" fill="none" xmlns="http://www.w3.org/2000/svg">
<path d="M91.4349 25.1646C94.786 25.1646 99.6234 26.7604 99.6234 26.7604C100.041 26.898 100.124 27.2293 99.8084 27.4966L92.0086 34.1025C91.6928 34.3691 91.6928 34.8067 92.0086 35.0737L99.8084 41.6802C100.124 41.9471 100.041 42.2788 99.6234 42.4163C99.6234 42.4163 94.786 44.0125 91.4349 44.0125C83.1229 44.0125 76.384 39.7936 76.384 34.5895C76.384 29.3851 83.1229 25.1672 91.4349 25.1672V25.1646Z" fill="#044D91"/>
<path d="M3.92497e-05 34.5869C3.92497e-05 46.5122 17.4589 56.1793 38.9971 56.1793C60.5343 56.1793 77.9941 46.5125 77.9941 34.5869C77.9941 22.661 60.535 12.9937 38.9971 12.9937C17.4589 12.9948 3.92497e-05 22.6619 3.92497e-05 34.5869Z" fill="#044D91"/>
<path d="M2.26803 34.4785C2.26803 26.2841 11.9648 19.3442 25.3511 16.9858C28.0494 24.3686 31.2968 39.1871 20.0088 50.7324C9.45954 47.6619 2.26733 41.5355 2.26733 34.4782L2.26803 34.4785Z" fill="#BAD8FF"/>
<path d="M11.6973 29.6226C11.6973 30.6436 12.6946 31.4699 13.9258 31.4699C15.1559 31.4699 16.1543 30.6439 16.1543 29.6226C16.1543 28.6022 15.1563 27.7759 13.9258 27.7759C12.6939 27.7756 11.6959 28.6016 11.6959 29.6226H11.6973Z" fill="#044D91"/>
<path d="M23.4506 51.2304C29.6374 44.9032 31.5239 37.6071 31.5215 31.0867C31.5215 25.5088 30.1472 20.4859 28.8934 17.0521C28.8041 16.8071 28.4945 16.6689 28.2018 16.7441C27.9093 16.8194 27.745 17.0793 27.835 17.3249C29.0672 20.6969 30.4153 25.6376 30.4153 31.0867C30.4128 37.4643 28.5786 44.5189 22.5932 50.6418C22.3991 50.8403 22.434 51.133 22.6706 51.2954C22.7739 51.3663 22.8978 51.4008 23.0213 51.4008C23.1854 51.4037 23.3459 51.3452 23.4541 51.231L23.4506 51.2304Z" fill="#BAD8FF"/>
<path d="M27.286 51.4765C33.4731 45.1487 35.3597 37.8529 35.3579 31.3322C35.3569 25.7546 33.9837 20.7311 32.7295 17.297V17.2976C32.6395 17.052 32.3303 16.9135 32.0382 16.9896C31.7461 17.0649 31.581 17.3242 31.6704 17.5698C32.9026 20.9421 34.2506 25.8834 34.2506 31.3322C34.2489 37.7097 32.4151 44.7641 26.4296 50.8876C26.2359 51.086 26.2705 51.3782 26.5071 51.5412C26.6097 51.6117 26.7342 51.6463 26.8578 51.6463C27.0183 51.6463 27.1753 51.5877 27.287 51.4765H27.286Z" fill="#BAD8FF"/>
<path d="M38.8053 11.7723C36.1207 11.7796 33.4999 11.9371 30.9685 12.2301C30.6723 12.2008 30.6011 12.0111 30.8262 11.7571L40.9637 0.278409C41.2299 -0.0230825 41.7471 -0.0904059 42.1118 0.129127L50.287 5.0373C50.6531 5.25683 51.2819 5.29898 51.685 5.13184L61.0303 1.25694C61.4337 1.0898 61.8594 1.24845 61.9757 1.60907L67.2569 17.9537C67.3358 18.1982 67.2527 18.3512 67.0657 18.3758C59.9733 14.3042 50.0186 11.7714 38.9958 11.7714C38.933 11.7714 38.8702 11.7723 38.8039 11.7723H38.8053Z" fill="#044D91"/>
</svg>
