<svg width="100" height="57" viewBox="0 0 100 57" fill="none" xmlns="http://www.w3.org/2000/svg">
<path d="M8.56509 25.1646C5.21396 25.1646 0.376577 26.7604 0.376577 26.7604C-0.0407869 26.898 -0.12419 27.2293 0.191625 27.4966L7.99138 34.1025C8.3072 34.3691 8.3072 34.8067 7.99138 35.0737L0.191625 41.6802C-0.123841 41.9471 -0.0407869 42.2788 0.376577 42.4163C0.376577 42.4163 5.21396 44.0125 8.56509 44.0125C16.8771 44.0125 23.616 39.7936 23.616 34.5895C23.616 29.3851 16.8771 25.1672 8.56509 25.1672V25.1646Z" fill="#044D91"/>
<path d="M100 34.5869C100 46.5122 82.5411 56.1793 61.0029 56.1793C39.4657 56.1793 22.0059 46.5125 22.0059 34.5869C22.0059 22.661 39.465 12.9937 61.0029 12.9937C82.5411 12.9948 100 22.6619 100 34.5869Z" fill="#044D91"/>
<path d="M97.732 34.4785C97.732 26.2841 88.0352 19.3442 74.6489 16.9858C71.9506 24.3686 68.7032 39.1871 79.9912 50.7324C90.5405 47.6619 97.7327 41.5355 97.7327 34.4782L97.732 34.4785Z" fill="#BAD8FF"/>
<path d="M88.3027 29.6226C88.3027 30.6436 87.3054 31.4699 86.0742 31.4699C84.8441 31.4699 83.8457 30.6439 83.8457 29.6226C83.8457 28.6022 84.8437 27.7759 86.0742 27.7759C87.3061 27.7756 88.3041 28.6016 88.3041 29.6226H88.3027Z" fill="#044D91"/>
<path d="M76.5494 51.2304C70.3626 44.9032 68.4761 37.6071 68.4785 31.0867C68.4785 25.5088 69.8528 20.4859 71.1066 17.0521C71.1959 16.8071 71.5055 16.6689 71.7982 16.7441C72.0907 16.8194 72.255 17.0793 72.165 17.3249C70.9328 20.6969 69.5847 25.6376 69.5847 31.0867C69.5872 37.4643 71.4214 44.5189 77.4068 50.6418C77.6009 50.8403 77.566 51.133 77.3294 51.2954C77.2261 51.3663 77.1022 51.4008 76.9787 51.4008C76.8146 51.4037 76.6541 51.3452 76.5459 51.231L76.5494 51.2304Z" fill="#BAD8FF"/>
<path d="M72.714 51.4765C66.5269 45.1487 64.6403 37.8529 64.6421 31.3322C64.6431 25.7546 66.0163 20.7311 67.2705 17.297V17.2976C67.3605 17.052 67.6697 16.9135 67.9618 16.9896C68.2539 17.0649 68.419 17.3242 68.3296 17.5698C67.0974 20.9421 65.7494 25.8834 65.7494 31.3322C65.7511 37.7097 67.5849 44.7641 73.5704 50.8876C73.7641 51.086 73.7295 51.3782 73.4929 51.5412C73.3903 51.6117 73.2658 51.6463 73.1422 51.6463C72.9817 51.6463 72.8247 51.5877 72.713 51.4765H72.714Z" fill="#BAD8FF"/>
<path d="M61.1947 11.7723C63.8793 11.7796 66.5001 11.9371 69.0315 12.2301C69.3277 12.2008 69.3989 12.0111 69.1738 11.7571L59.0363 0.278409C58.7701 -0.0230825 58.2529 -0.0904059 57.8882 0.129127L49.713 5.0373C49.3469 5.25683 48.7181 5.29898 48.315 5.13184L38.9697 1.25694C38.5663 1.0898 38.1406 1.24845 38.0243 1.60907L32.7431 17.9537C32.6642 18.1982 32.7473 18.3512 32.9343 18.3758C40.0267 14.3042 49.9814 11.7714 61.0042 11.7714C61.067 11.7714 61.1298 11.7723 61.1961 11.7723H61.1947Z" fill="#044D91"/>
</svg>
