<svg width="200" height="287" viewBox="0 0 200 287" fill="none" xmlns="http://www.w3.org/2000/svg">
<path d="M197.584 162.572H172.492C169.296 162.574 166.232 163.844 163.972 166.104C161.712 168.363 160.442 171.427 160.439 174.622V192.715C160.439 193.354 160.185 193.966 159.733 194.418C159.282 194.869 158.669 195.123 158.031 195.124H156.448V156.398C162.415 155.869 167.968 153.127 172.015 148.711C176.063 144.296 178.313 138.526 178.322 132.535V89.161C178.322 65.514 168.928 42.8356 152.207 26.1146C135.486 9.39372 112.808 0 89.161 0C65.5141 0 42.8356 9.39372 26.1147 26.1146C9.39375 42.8356 2.50549e-05 65.514 2.50549e-05 89.161V132.51C-0.00857425 138.459 2.19669 144.199 6.18661 148.612C10.1765 153.025 15.6657 155.795 21.5857 156.384V206.133H12.0457C8.85288 206.137 5.79186 207.407 3.53379 209.664C1.27572 211.921 0.00490955 214.982 2.50549e-05 218.175V241.246C2.50549e-05 241.562 0.0623268 241.876 0.183374 242.168C0.30442 242.46 0.481841 242.726 0.705506 242.949C0.929172 243.173 1.1947 243.35 1.48694 243.471C1.77917 243.592 2.09238 243.655 2.40869 243.655C5.97289 243.65 9.38988 242.233 11.9101 239.712C14.4304 237.192 15.8482 233.775 15.8525 230.211V224.369C15.8537 223.731 16.1078 223.119 16.5593 222.667C17.0107 222.216 17.6227 221.962 18.2611 221.961H21.5857V283.827C21.5857 284.466 21.8395 285.078 22.2912 285.53C22.7429 285.982 23.3556 286.235 23.9944 286.235C27.552 286.232 30.9629 284.817 33.4786 282.301C35.9942 279.786 37.4091 276.375 37.4128 272.817V221.961H45.2917C48.4652 221.954 51.5069 220.691 53.7511 218.447C55.9953 216.204 57.2591 213.162 57.2658 209.989V123.944C58.6947 124.049 60.0724 124.52 61.2664 125.312V283.827C61.2664 284.465 61.5199 285.078 61.9711 285.529C62.4223 285.981 63.0344 286.235 63.6728 286.235C67.2304 286.232 70.6413 284.817 73.157 282.301C75.6726 279.786 77.0875 276.375 77.0912 272.817V153.24C80.7049 155.351 84.8094 156.476 88.9944 156.504C93.1794 156.532 97.2985 155.461 100.94 153.399V272.817C100.944 276.375 102.36 279.786 104.876 282.301C107.392 284.817 110.803 286.232 114.361 286.235C115 286.235 115.612 285.982 116.064 285.53C116.516 285.078 116.77 284.466 116.77 283.827V125.529C117.948 124.676 119.325 124.141 120.77 123.976V198.905C120.774 202.099 122.044 205.16 124.302 207.419C126.56 209.677 129.622 210.947 132.816 210.951H140.619V272.817C140.623 276.375 142.038 279.785 144.553 282.301C147.069 284.816 150.479 286.231 154.037 286.235C154.676 286.235 155.288 285.982 155.74 285.53C156.192 285.078 156.446 284.466 156.446 283.827V210.951H164.228C167.421 210.947 170.483 209.677 172.741 207.419C174.999 205.16 176.27 202.099 176.273 198.905V180.815C176.274 180.176 176.528 179.564 176.979 179.112C177.431 178.661 178.043 178.407 178.682 178.406H186.582C190.139 178.402 193.55 176.987 196.065 174.471C198.581 171.956 199.996 168.545 200 164.988C200.001 164.67 199.939 164.356 199.818 164.062C199.697 163.769 199.519 163.502 199.295 163.278C199.07 163.053 198.803 162.875 198.51 162.754C198.216 162.633 197.902 162.571 197.584 162.572ZM41.4134 203.725C41.4122 204.363 41.158 204.975 40.7066 205.427C40.2551 205.878 39.6432 206.132 39.0047 206.133H37.4151V152.345C38.8654 151.363 40.2059 150.228 41.4134 148.96V203.725ZM129.249 46.3772C129.134 47.0285 128.889 47.6501 128.53 48.205C128.17 48.7599 127.702 49.2367 127.154 49.6072C126.319 50.2093 125.316 50.5323 124.286 50.5301C123.249 50.5312 122.237 50.2129 121.387 49.6185C120.538 49.0241 119.892 48.1824 119.537 47.2079C119.182 46.2334 119.137 45.1733 119.406 44.1719C119.675 43.1704 120.246 42.2761 121.041 41.6106C121.837 40.9451 122.817 40.5407 123.851 40.4523C124.884 40.364 125.919 40.5959 126.816 41.1167C127.713 41.6375 128.427 42.4218 128.863 43.363C129.298 44.3042 129.433 45.3566 129.249 46.3772ZM125.096 36.8602C124.325 35.744 123.902 34.4242 123.88 33.0676C123.858 31.711 124.239 30.3784 124.975 29.2382C125.71 28.098 126.767 27.2013 128.012 26.6614C129.256 26.1215 130.633 25.9626 131.968 26.2048C133.303 26.447 134.536 27.0794 135.512 28.0222C136.488 28.9649 137.162 30.1757 137.45 31.5016C137.738 32.8274 137.627 34.2089 137.13 35.4714C136.633 36.734 135.773 37.821 134.659 38.5952C133.506 39.392 132.139 39.8207 130.737 39.8249C129.629 39.8255 128.538 39.5568 127.556 39.042C126.575 38.5271 125.734 37.7815 125.105 36.8694L125.096 36.8602ZM140.609 195.115H139.029C138.39 195.114 137.778 194.86 137.326 194.408C136.875 193.957 136.621 193.345 136.62 192.706V148.639C137.82 149.965 139.161 151.155 140.619 152.19L140.609 195.115ZM150.657 49.3396C150.276 51.4323 149.182 53.3285 147.56 54.7049C145.938 56.0814 143.89 56.8532 141.763 56.8887C139.636 56.9243 137.563 56.2215 135.896 54.9C134.229 53.5785 133.072 51.7201 132.621 49.6412C132.171 47.5623 132.455 45.3915 133.425 43.4986C134.396 41.6057 135.992 40.1077 137.943 39.2597C139.894 38.4118 142.078 38.2663 144.124 38.8481C146.17 39.4298 147.951 40.7029 149.164 42.4504C149.86 43.443 150.351 44.5642 150.609 45.7485C150.867 46.9329 150.886 48.1568 150.666 49.3488L150.657 49.3396Z" fill="#044D91"/>
</svg>
