<svg width="40" height="40" viewBox="0 0 40 40" fill="none" xmlns="http://www.w3.org/2000/svg">
<g clip-path="url(#clip0_1277_1162)">
<path d="M5.31262 4.14061C5.5856 4.27089 5.68971 4.35467 5.8595 4.60936C5.87829 4.83922 5.87829 4.83922 5.87724 5.12363C5.87726 5.17548 5.87728 5.22733 5.8773 5.28076C5.8772 5.45197 5.87598 5.62315 5.87476 5.79435C5.87446 5.91313 5.87424 6.0319 5.87409 6.15067C5.87349 6.46316 5.87195 6.77564 5.87023 7.08812C5.86835 7.46312 5.86763 7.83811 5.86672 8.21311C5.8652 8.7827 5.86221 9.35227 5.8595 9.92186C6.76184 9.92186 7.66418 9.92186 8.59387 9.92186C8.57845 9.14235 8.57845 9.14235 8.55868 8.36296C8.55771 8.26559 8.55673 8.16823 8.55573 8.06791C8.55368 7.96849 8.55163 7.86908 8.54953 7.76665C8.60569 7.42889 8.71866 7.31814 8.9845 7.10936C9.29789 7.01819 9.47333 7.01337 9.78528 7.10936C10.0571 7.30705 10.1556 7.49346 10.2345 7.81248C10.2623 8.176 10.2566 8.53705 10.2491 8.90135C10.2481 8.99949 10.247 9.09763 10.2459 9.19874C10.2432 9.43981 10.2393 9.68082 10.2345 9.92186C10.3033 9.92004 10.3721 9.91823 10.4429 9.91636C10.579 9.91425 10.579 9.91425 10.7179 9.91209C10.8076 9.91028 10.8974 9.90846 10.9898 9.9066C11.343 9.9273 11.5451 9.98044 11.7951 10.2358C11.999 10.5361 12.0757 10.824 12.165 11.1729C12.1839 11.2435 12.2028 11.3141 12.2222 11.3868C12.2846 11.621 12.3457 11.8555 12.4067 12.0901C12.4506 12.2556 12.4945 12.4211 12.5385 12.5866C12.6557 13.028 12.7717 13.4697 12.8874 13.9115C13.0064 14.3649 13.1265 14.818 13.2465 15.2711C13.3886 15.8076 13.5305 16.3442 13.672 16.8809C13.9268 17.8474 14.1833 18.8134 14.445 19.7781C14.4716 19.8761 14.4981 19.9741 14.5255 20.0751C14.6199 20.4229 14.7144 20.7706 14.8094 21.1183C14.8702 21.3413 14.9308 21.5645 14.9913 21.7877C15.0085 21.8503 15.0257 21.9129 15.0435 21.9774C15.1065 22.2107 15.1564 22.4133 15.1564 22.6562C15.5173 22.6562 15.8782 22.6562 16.2501 22.6562C16.2485 22.5665 16.2468 22.4767 16.2452 22.3842C16.2395 22.047 16.2359 21.7098 16.233 21.3726C16.2314 21.2274 16.2293 21.0823 16.2265 20.9371C16.2024 19.6191 16.3625 18.5552 17.2856 17.5409C17.8842 16.9663 18.5436 16.5755 19.3751 16.4844C19.3683 16.3541 19.3683 16.3541 19.3614 16.2213C19.3292 15.3464 19.4163 14.7531 20.0099 14.0722C20.6374 13.5131 21.4133 13.4697 22.2169 13.4752C22.3178 13.4746 22.4186 13.4741 22.5225 13.4735C22.7966 13.4721 23.0707 13.4726 23.3448 13.4736C23.6332 13.4744 23.9216 13.4737 24.21 13.4732C24.6941 13.4726 25.1782 13.4734 25.6624 13.4749C26.2201 13.4766 26.7777 13.476 27.3354 13.4743C27.8164 13.4729 28.2974 13.4727 28.7784 13.4735C29.0647 13.474 29.3511 13.4741 29.6374 13.473C29.9569 13.4719 30.2763 13.4734 30.5958 13.4752C30.6893 13.4745 30.7827 13.4739 30.879 13.4733C31.6263 13.4807 32.2801 13.6022 32.8468 14.1162C33.4997 14.8509 33.4764 15.5466 33.4376 16.4844C33.5186 16.4933 33.5996 16.5023 33.683 16.5115C34.6095 16.6681 35.4074 17.2943 35.9483 18.0438C36.0913 18.277 36.2175 18.4997 36.3282 18.75C36.35 18.7984 36.3718 18.8467 36.3943 18.8966C36.6628 19.6107 36.5877 20.3924 36.5773 21.1426C36.5761 21.2896 36.575 21.4365 36.5741 21.5835C36.5715 21.9411 36.5675 22.2987 36.5626 22.6562C36.6501 22.6542 36.7376 22.6521 36.8277 22.65C37.1535 22.6429 37.4794 22.6385 37.8053 22.6348C37.9461 22.6328 38.0868 22.6302 38.2276 22.6268C38.4305 22.622 38.6333 22.6198 38.8362 22.6181C38.8987 22.6161 38.9612 22.6141 39.0256 22.612C39.3479 22.6118 39.549 22.6373 39.8048 22.8426C40.006 23.0531 40.0691 23.1275 40.0734 23.4131C40.0435 23.8648 39.8211 24.0793 39.5125 24.3909C37.5374 26.3938 36.4879 29.1162 36.172 31.875C36.1546 32.0043 36.1546 32.0043 36.1369 32.1362C36.0978 32.6411 36.0978 32.6411 36.316 33.081C36.9966 33.6496 37.8443 34.0003 38.723 34.0924C38.7747 34.098 38.8264 34.1036 38.8797 34.1094C39.032 34.1253 39.1845 34.1387 39.337 34.1519C39.6692 34.2334 39.7944 34.3388 40.0001 34.6094C40.052 34.8047 40.052 34.8047 40.049 35C40.05 35.0644 40.051 35.1289 40.052 35.1953C39.9747 35.4864 39.8485 35.6013 39.6095 35.7812C39.3852 35.8196 39.2169 35.8337 38.9943 35.8252C38.9358 35.8238 38.8773 35.8224 38.817 35.8209C37.503 35.7654 36.4245 35.1731 35.3126 34.5312C35.2689 34.5653 35.2252 34.5993 35.1802 34.6344C34.1006 35.4363 32.8786 35.8287 31.5382 35.8154C31.4529 35.8148 31.3676 35.8141 31.2798 35.8134C29.9065 35.7848 28.7909 35.28 27.6564 34.5312C27.6034 34.5662 27.5504 34.6011 27.4958 34.6371C25.9582 35.636 24.3905 36.0437 22.5541 35.7324C21.6832 35.526 20.7607 35.117 20.0782 34.5312C19.8906 34.6203 19.7151 34.7181 19.5372 34.8257C18.0695 35.7111 16.4142 36.0538 14.7118 35.6971C13.8509 35.4811 13.0414 35.0793 12.3439 34.5312C12.2945 34.5653 12.2452 34.5993 12.1943 34.6344C11.0536 35.3938 9.86755 35.8291 8.49133 35.8154C8.40594 35.8147 8.32055 35.814 8.23256 35.8133C6.87986 35.7844 5.7136 35.2934 4.6095 34.5312C4.54615 34.5718 4.48281 34.6124 4.41754 34.6542C3.33534 35.3358 2.31606 35.7883 1.01575 35.8203C0.931587 35.8239 0.931587 35.8239 0.845726 35.8276C0.544568 35.8277 0.402403 35.79 0.159424 35.6079C-0.00891671 35.3783 -0.0530816 35.28 -0.0487061 35C-0.0497131 34.9355 -0.0507202 34.8711 -0.0517578 34.8047C0.026149 34.5114 0.149431 34.4008 0.390747 34.2187C0.622355 34.1493 0.853859 34.1258 1.09387 34.1015C2.13371 33.9645 3.06605 33.6528 3.82825 32.8906C4.09269 29.9991 2.63057 26.9709 0.858887 24.7937C0.644821 24.5402 0.424268 24.2929 0.200623 24.0478C-0.0109735 23.803 -0.025698 23.6068 -0.0227661 23.2843C0.0128213 23.0366 0.137087 22.9047 0.312622 22.7344C0.547242 22.617 0.765019 22.649 1.02551 22.6513C1.12562 22.6521 1.22572 22.6528 1.32886 22.6535C1.44457 22.6548 1.44457 22.6548 1.56262 22.6562C1.56226 22.5934 1.5619 22.5305 1.56153 22.4658C1.55291 20.9368 1.54644 19.4078 1.54238 17.8788C1.54037 17.1393 1.53762 16.3999 1.53315 15.6605C1.52926 15.0161 1.52674 14.3717 1.52587 13.7272C1.52536 13.3859 1.52416 13.0447 1.52132 12.7035C1.51867 12.3822 1.51785 12.0611 1.51844 11.7399C1.51833 11.622 1.51755 11.5041 1.51606 11.3862C1.51411 11.2252 1.51458 11.0643 1.51565 10.9032C1.51529 10.8131 1.51493 10.723 1.51456 10.6302C1.57736 10.3171 1.71102 10.2006 1.95325 9.99998C2.20255 9.89669 2.45583 9.91286 2.72351 9.91423C2.81062 9.91448 2.89774 9.91473 2.98749 9.91499C3.07802 9.91564 3.16856 9.9163 3.26184 9.91697C3.35359 9.91733 3.44533 9.91768 3.53986 9.91804C3.7662 9.91896 3.99253 9.92025 4.21887 9.92186C4.21835 9.85928 4.21783 9.7967 4.21729 9.73222C4.21259 9.14143 4.20903 8.55064 4.20673 7.95983C4.20551 7.65611 4.20385 7.35241 4.20119 7.0487C4.19864 6.7554 4.19724 6.46212 4.19664 6.16882C4.1962 6.05712 4.19536 5.94543 4.19409 5.83374C4.19238 5.67687 4.19229 5.51998 4.19226 5.3631C4.19174 5.27393 4.19122 5.18476 4.19069 5.09289C4.23217 4.7262 4.34564 4.46223 4.63391 4.2285C4.88472 4.12351 5.04289 4.10689 5.31262 4.14061ZM3.12512 11.5625C3.12512 14.0633 3.12512 16.564 3.12512 19.1406C4.75302 19.157 4.75302 19.157 6.38095 19.1709C6.58504 19.1734 6.78913 19.176 6.99323 19.1788C7.07236 19.1791 7.07236 19.1791 7.1531 19.1794C7.30934 19.1802 7.46557 19.1826 7.62179 19.185C7.75373 19.1863 7.75373 19.1863 7.88833 19.1876C8.15333 19.2224 8.30208 19.295 8.51575 19.4531C8.65041 19.7224 8.63317 20.018 8.59387 20.3125C8.44729 20.5079 8.34083 20.5953 8.12512 20.7031C7.9664 20.7125 7.80738 20.717 7.6484 20.7191C7.54831 20.7207 7.44822 20.7223 7.34509 20.7239C7.23543 20.7252 7.12577 20.7265 7.01611 20.7278C6.90423 20.7294 6.79236 20.7311 6.68048 20.7327C6.38585 20.7371 6.09122 20.7409 5.79658 20.7447C5.496 20.7486 5.19542 20.753 4.89484 20.7573C4.30494 20.7657 3.71503 20.7736 3.12512 20.7812C3.12512 21.4 3.12512 22.0187 3.12512 22.6562C6.52825 22.6562 9.93137 22.6562 13.4376 22.6562C13.3358 22.0964 13.2281 21.5585 13.0799 21.0122C13.0603 20.9388 13.0407 20.8655 13.0205 20.79C12.9562 20.5496 12.8915 20.3094 12.8267 20.0693C12.7811 19.8992 12.7355 19.7291 12.6899 19.5591C12.57 19.1115 12.4497 18.6641 12.3292 18.2167C12.209 17.7696 12.0891 17.3223 11.9691 16.8751C11.833 16.3676 11.6968 15.8602 11.5604 15.3528C11.2208 14.0898 10.884 12.8262 10.547 11.5625C8.09778 11.5625 5.64856 11.5625 3.12512 11.5625ZM21.0157 15.4687C20.9226 15.6937 20.9292 15.9107 20.9327 16.1523C20.9334 16.2148 20.9341 16.2772 20.9349 16.3415C20.9358 16.3887 20.9367 16.4358 20.9376 16.4844C21.0242 16.5087 21.0242 16.5087 21.1125 16.5335C21.9858 16.7987 22.6341 17.1755 23.2032 17.8906C23.2548 17.8906 23.3064 17.8906 23.3595 17.8906C23.4223 17.8117 23.4852 17.7327 23.5499 17.6513C24.0944 17.0001 24.8308 16.718 25.6251 16.4844C25.6251 16.0461 25.6251 15.6078 25.6251 15.1562C25.0315 15.1485 24.4378 15.1428 23.8441 15.1391C23.6422 15.1375 23.4402 15.1354 23.2383 15.1327C22.948 15.1289 22.6577 15.1271 22.3674 15.1257C22.2771 15.1241 22.1868 15.1225 22.0938 15.1208C21.4859 15.1112 21.486 15.1112 21.0157 15.4687ZM27.1876 15.1562C27.1876 15.5945 27.1876 16.0328 27.1876 16.4844C27.3931 16.5448 27.3931 16.5448 27.6027 16.6064C28.3807 16.8673 28.945 17.2521 29.4532 17.8906C29.5048 17.8906 29.5564 17.8906 29.6095 17.8906C29.6723 17.8117 29.7352 17.7327 29.7999 17.6513C30.34 17.0053 31.0828 16.707 31.8751 16.4844C31.9063 15.9162 31.9063 15.9162 31.7189 15.3906C31.4748 15.1645 31.3128 15.1273 30.9836 15.1296C30.8992 15.1296 30.8147 15.1297 30.7278 15.1297C30.6371 15.1309 30.5464 15.1321 30.453 15.1333C30.3598 15.1337 30.2666 15.134 30.1706 15.1343C29.8729 15.1357 29.5752 15.1386 29.2775 15.1416C29.0756 15.1428 28.8738 15.1438 28.672 15.1448C28.1772 15.1474 27.6824 15.1514 27.1876 15.1562ZM18.5157 18.6719C17.4968 19.7191 17.8126 21.3431 17.8126 22.6562C19.3595 22.6562 20.9064 22.6562 22.5001 22.6562C22.6501 20.5429 22.6501 20.5429 21.8226 18.6856C21.5437 18.4307 21.3024 18.3134 20.9376 18.2031C20.9305 18.309 20.9305 18.309 20.9233 18.417C20.9167 18.5092 20.9102 18.6013 20.9034 18.6963C20.8971 18.7878 20.8908 18.8794 20.8842 18.9737C20.8595 19.2187 20.8595 19.2187 20.7814 19.4531C20.551 19.5299 20.3965 19.5417 20.1564 19.541C20.0549 19.5413 20.0549 19.5413 19.9513 19.5416C19.7657 19.5312 19.7657 19.5312 19.5314 19.4531C19.445 19.1941 19.4282 18.9684 19.4093 18.6963C19.4028 18.6041 19.3962 18.512 19.3895 18.417C19.3847 18.3464 19.38 18.2758 19.3751 18.2031C19.0054 18.2031 18.7897 18.4395 18.5157 18.6719ZM24.7657 18.6719C23.7468 19.7191 24.0626 21.3431 24.0626 22.6562C25.6095 22.6562 27.1564 22.6562 28.7501 22.6562C28.9001 20.5429 28.9001 20.5429 28.0726 18.6856C27.7937 18.4307 27.5524 18.3134 27.1876 18.2031C27.1805 18.309 27.1805 18.309 27.1733 18.417C27.1667 18.5092 27.1602 18.6013 27.1534 18.6963C27.1471 18.7878 27.1408 18.8794 27.1342 18.9737C27.1095 19.2187 27.1095 19.2187 27.0314 19.4531C26.801 19.5299 26.6465 19.5417 26.4064 19.541C26.3049 19.5413 26.3049 19.5413 26.2013 19.5416C26.0157 19.5312 26.0157 19.5312 25.7814 19.4531C25.695 19.1941 25.6782 18.9684 25.6593 18.6963C25.6528 18.6041 25.6462 18.512 25.6395 18.417C25.6347 18.3464 25.63 18.2758 25.6251 18.2031C25.2554 18.2031 25.0397 18.4395 24.7657 18.6719ZM31.0157 18.6719C29.9968 19.7191 30.3126 21.3431 30.3126 22.6562C31.8595 22.6562 33.4064 22.6562 35.0001 22.6562C35.1501 20.5429 35.1501 20.5429 34.3226 18.6856C34.0437 18.4307 33.8024 18.3134 33.4376 18.2031C33.4305 18.309 33.4305 18.309 33.4233 18.417C33.4167 18.5092 33.4102 18.6013 33.4034 18.6963C33.3971 18.7878 33.3908 18.8794 33.3842 18.9737C33.3595 19.2187 33.3595 19.2187 33.2814 19.4531C33.051 19.5299 32.8965 19.5417 32.6564 19.541C32.5549 19.5413 32.5549 19.5413 32.4513 19.5416C32.2657 19.5312 32.2657 19.5312 32.0314 19.4531C31.945 19.1941 31.9282 18.9684 31.9093 18.6963C31.9028 18.6041 31.8962 18.512 31.8895 18.417C31.8847 18.3464 31.88 18.2758 31.8751 18.2031C31.5054 18.2031 31.2897 18.4395 31.0157 18.6719ZM2.57825 24.2187C2.73293 24.4508 2.88762 24.6828 3.047 24.9219C4.28038 26.7932 5.05878 28.7916 5.39075 31.0156C5.39903 31.068 5.40731 31.1203 5.41585 31.1743C5.45647 31.4552 5.47086 31.7233 5.46338 32.0071C5.42846 32.7169 5.42846 32.7169 5.71851 33.3319C5.94272 33.4749 6.15841 33.5764 6.40637 33.6719C6.50245 33.7187 6.50245 33.7187 6.60046 33.7665C7.57126 34.2385 8.73143 34.3131 9.77063 34.0137C10.4505 33.7649 11.0251 33.4658 11.5199 32.9333C11.7589 32.6944 12.008 32.598 12.3341 32.5342C12.7613 32.6111 13.0438 32.9132 13.3693 33.186C14.4331 34.0523 15.6137 34.2704 16.9532 34.1406C17.6506 34.0151 18.2741 33.7197 18.8282 33.2812C18.8977 33.2264 18.9672 33.1717 19.0388 33.1152C19.176 33.0058 19.3125 32.8955 19.4481 32.7841C19.7193 32.5692 19.8888 32.5449 20.2345 32.5781C20.4754 32.7095 20.6683 32.8616 20.879 33.0368C21.3186 33.4001 21.7389 33.6854 22.2657 33.9062C22.3488 33.9437 22.3488 33.9437 22.4336 33.9819C23.4054 34.3502 24.6931 34.246 25.6251 33.8281C26.193 33.5491 26.6709 33.2166 27.1296 32.7814C27.3331 32.5944 27.4635 32.5596 27.7345 32.5683C28.0802 32.6105 28.2357 32.7319 28.4816 32.9736C28.8095 33.2949 29.1335 33.5045 29.5411 33.706C29.5925 33.7318 29.6438 33.7575 29.6966 33.784C30.6515 34.2409 31.8536 34.3307 32.8663 34.0088C33.2576 33.8526 33.6281 33.662 33.9845 33.4375C34.0668 33.4007 34.1491 33.364 34.2338 33.3261C34.4852 33.0957 34.4895 33.0441 34.5195 32.7188C34.5268 32.5499 34.5323 32.3809 34.5363 32.2119C34.6765 29.4427 35.5733 26.9794 37.1095 24.6875C37.2126 24.5328 37.3157 24.3781 37.422 24.2187C25.9236 24.2187 14.4251 24.2187 2.57825 24.2187Z" fill="#FBF9FF"/>
<path d="M5.07825 36.7969C5.25433 36.937 5.25433 36.937 5.43469 37.1143C5.76381 37.4372 6.08934 37.6453 6.49915 37.8467C6.55112 37.8724 6.60309 37.8982 6.65664 37.9247C7.61539 38.3811 8.74672 38.4493 9.77063 38.1543C10.4505 37.9056 11.0251 37.6064 11.5199 37.074C11.7589 36.835 12.008 36.7386 12.3341 36.6748C12.7613 36.7517 13.0438 37.0538 13.3693 37.3267C14.4331 38.193 15.6137 38.411 16.9532 38.2812C17.6506 38.1558 18.2741 37.8604 18.8282 37.4219C18.8977 37.3671 18.9672 37.3123 19.0388 37.2559C19.176 37.1464 19.3125 37.0361 19.4481 36.9247C19.7193 36.7099 19.8888 36.6855 20.2345 36.7188C20.4754 36.8502 20.6683 37.0022 20.879 37.1774C21.3186 37.5408 21.7389 37.8261 22.2657 38.0469C22.3488 38.0843 22.3488 38.0843 22.4336 38.1226C23.4054 38.4908 24.6931 38.3867 25.6251 37.9688C26.193 37.6898 26.6709 37.3572 27.1296 36.922C27.3331 36.735 27.4635 36.7003 27.7345 36.709C28.0802 36.7512 28.2357 36.8726 28.4816 37.1143C28.8095 37.4355 29.1335 37.6451 29.5411 37.8467C29.5925 37.8724 29.6438 37.8982 29.6966 37.9247C30.6471 38.3794 31.8471 38.4718 32.8566 38.1543C32.9999 38.0965 33.1416 38.0346 33.2814 37.9688C33.354 37.9356 33.4266 37.9025 33.5014 37.8683C33.9063 37.6662 34.2166 37.4395 34.5411 37.124C34.84 36.8432 35.0515 36.6965 35.4673 36.6928C35.7921 36.7462 35.9917 36.9334 36.223 37.1548C36.9136 37.8017 37.7815 38.2137 38.722 38.3105C38.7739 38.3163 38.8258 38.322 38.8792 38.3278C39.0316 38.344 39.1843 38.3574 39.337 38.3707C39.6692 38.4521 39.7944 38.5576 40.0001 38.8281C40.052 39.0234 40.052 39.0234 40.049 39.2188C40.05 39.2832 40.051 39.3477 40.052 39.4141C39.9747 39.7051 39.8485 39.8201 39.6095 40C39.3852 40.0383 39.2169 40.0524 38.9943 40.0439C38.9065 40.0418 38.9065 40.0418 38.817 40.0397C37.503 39.9842 36.4245 39.3919 35.3126 38.75C35.2471 38.8011 35.2471 38.8011 35.1802 38.8531C34.1006 39.6551 32.8786 40.0475 31.5382 40.0342C31.4529 40.0335 31.3676 40.0329 31.2798 40.0322C29.9065 40.0036 28.7909 39.4988 27.6564 38.75C27.5769 38.8024 27.5769 38.8024 27.4958 38.8559C25.9582 39.8547 24.3905 40.2625 22.5541 39.9512C21.6832 39.7447 20.7607 39.3357 20.0782 38.75C19.8906 38.839 19.7151 38.9369 19.5372 39.0445C18.0695 39.9299 16.4142 40.2726 14.7118 39.9158C13.8509 39.6999 13.0414 39.298 12.3439 38.75C12.2945 38.784 12.2452 38.8181 12.1943 38.8531C11.0536 39.6126 9.86755 40.0479 8.49133 40.0342C8.36324 40.0331 8.36324 40.0331 8.23256 40.032C6.87986 40.0032 5.7136 39.5122 4.6095 38.75C4.54615 38.7906 4.48281 38.8312 4.41754 38.873C3.33534 39.5546 2.31606 40.0071 1.01575 40.0391C0.95964 40.0415 0.903533 40.0439 0.845726 40.0463C0.544568 40.0464 0.402403 40.0087 0.159424 39.8267C-0.00891671 39.597 -0.0530816 39.4988 -0.0487061 39.2188C-0.0497131 39.1543 -0.0507202 39.0898 -0.0517578 39.0234C0.026149 38.7301 0.149431 38.6196 0.390747 38.4375C0.622355 38.3681 0.853859 38.3446 1.09387 38.3203C2.38043 38.1508 3.24084 37.6244 4.21887 36.7969C4.50474 36.6539 4.78041 36.7 5.07825 36.7969Z" fill="#FBF9FF"/>
<path d="M35.1131 -0.0759591C35.5586 0.0936689 35.8169 0.489109 36.0939 0.859405C36.1549 0.940449 36.1549 0.940449 36.2172 1.02313C36.4483 1.3317 36.676 1.64258 36.9023 1.95468C37.1767 2.3316 37.4613 2.69975 37.7492 3.06644C39.2534 4.98904 40.2629 6.58078 39.9666 9.11532C39.662 10.5047 38.7784 11.6697 37.5993 12.432C36.3508 13.1465 34.8791 13.3697 33.4767 13.003C31.9797 12.4933 30.9203 11.5506 30.215 10.1416C29.5927 8.73067 29.6452 7.24667 30.1888 5.82187C30.6246 4.85457 31.3265 4.03504 31.981 3.20956C32.1577 2.98597 32.3315 2.7603 32.505 2.53421C32.5662 2.45475 32.6273 2.37529 32.6903 2.29343C32.8419 2.09571 32.9924 1.89713 33.1426 1.69833C33.3574 1.41414 33.5746 1.13178 33.7932 0.85044C33.8915 0.722531 33.9873 0.592614 34.0825 0.462371C34.3759 0.0860552 34.6151 -0.129694 35.1131 -0.0759591ZM34.8439 2.18753C34.7386 2.29671 34.7386 2.29671 34.634 2.44235C34.572 2.52439 34.572 2.52439 34.5088 2.60808C34.4647 2.66749 34.4206 2.7269 34.3752 2.78812C34.2825 2.91122 34.1898 3.0343 34.0971 3.15738C34.0513 3.21853 34.0055 3.27969 33.9583 3.3427C33.7852 3.57291 33.6092 3.80064 33.4328 4.02835C33.136 4.41406 32.8416 4.80158 32.549 5.19046C32.4904 5.26811 32.4904 5.26811 32.4306 5.34734C31.742 6.26484 31.3227 7.17459 31.4263 8.35025C31.531 9.02787 31.7824 9.6037 32.1877 10.1563C32.2425 10.232 32.2972 10.3077 32.3537 10.3858C32.9326 11.0562 33.7323 11.43 34.6044 11.514C35.5341 11.5553 36.2736 11.3161 37.0314 10.7813C37.0975 10.7378 37.1635 10.6943 37.2316 10.6494C37.928 9.98877 38.3621 9.10662 38.4018 8.14672C38.4159 6.61174 37.625 5.61088 36.7131 4.45346C36.3786 4.02862 36.0504 3.59916 35.7228 3.16897C35.6688 3.09819 35.6148 3.0274 35.5591 2.95447C35.5088 2.8884 35.4585 2.82232 35.4067 2.75424C35.3621 2.69569 35.3175 2.63713 35.2715 2.5768C35.1772 2.44985 35.0879 2.31914 35.0002 2.18753C34.9486 2.18753 34.897 2.18753 34.8439 2.18753Z" fill="#FBF9FF"/>
<path d="M8.6774 13.0718C9.17103 13.4629 9.49402 13.9904 9.60941 14.6093C9.67614 15.3922 9.54549 16.0333 9.04667 16.6519C8.5345 17.1807 7.96089 17.4145 7.23636 17.4462C6.49671 17.4234 5.91573 17.1605 5.39066 16.6406C4.90663 16.0397 4.76204 15.3696 4.84379 14.6093C5.01206 13.898 5.32431 13.3893 5.93265 12.9833C6.81188 12.479 7.82503 12.5283 8.6774 13.0718ZM6.64066 14.5312C6.48017 14.7355 6.48441 14.8487 6.48441 15.1122C6.58625 15.475 6.70909 15.5903 7.03129 15.7812C7.40153 15.8007 7.53315 15.7425 7.81254 15.498C7.99197 15.2448 7.99197 15.2448 7.97367 14.9511C7.88243 14.6613 7.82795 14.5458 7.57816 14.3749C7.1831 14.2672 6.96055 14.2661 6.64066 14.5312Z" fill="#FBF9FF"/>
<path d="M28.5055 27.4874C28.596 27.4867 28.6865 27.4859 28.7797 27.4851C28.8768 27.4848 28.9739 27.4845 29.0739 27.4841C29.1744 27.4837 29.2749 27.4832 29.3784 27.4828C29.5907 27.482 29.8031 27.4815 30.0155 27.4812C30.2865 27.4808 30.5575 27.4789 30.8284 27.4767C31.0883 27.4749 31.3482 27.4747 31.6081 27.4744C31.7049 27.4734 31.8017 27.4724 31.9014 27.4714C32.3916 27.4727 32.7775 27.4779 33.203 27.7344C33.4003 28.0453 33.4491 28.2042 33.3934 28.5693C33.2764 28.8389 33.1975 28.9607 32.9686 29.1406C32.732 29.1808 32.732 29.1808 32.4516 29.1823C32.3748 29.1833 32.3748 29.1833 32.2964 29.1843C32.1275 29.1861 31.9586 29.1856 31.7897 29.1849C31.672 29.1853 31.5542 29.1858 31.4365 29.1863C31.1899 29.1871 30.9433 29.1868 30.6967 29.1857C30.3811 29.1843 30.0656 29.1861 29.75 29.1889C29.5069 29.1906 29.2638 29.1905 29.0207 29.1898C28.9044 29.1898 28.788 29.1903 28.6717 29.1915C28.5088 29.1928 28.3461 29.1917 28.1831 29.1899C28.0443 29.1898 28.0443 29.1898 27.9026 29.1897C27.584 29.1263 27.4672 28.999 27.2655 28.75C27.1943 28.4822 27.2099 28.2394 27.2655 27.9687C27.4384 27.7267 27.5473 27.6069 27.8365 27.5304C28.0621 27.4978 28.2775 27.4889 28.5055 27.4874Z" fill="#FBF9FF"/>
<path d="M20 27.4707C20.0973 27.4698 20.1946 27.4689 20.2948 27.468C20.7977 27.4696 21.2037 27.4725 21.6406 27.7344C21.8342 28.0006 21.875 28.1524 21.875 28.4815C21.7788 28.8123 21.6761 28.9278 21.4062 29.1406C21.1774 29.1797 20.9949 29.1956 20.7666 29.1925C20.6752 29.1931 20.6752 29.1931 20.5819 29.1936C20.4535 29.1939 20.325 29.1932 20.1966 29.1916C20.0005 29.1895 19.8048 29.1915 19.6088 29.194C19.4836 29.1938 19.3585 29.1933 19.2334 29.1925C19.1751 29.1933 19.1168 29.1941 19.0568 29.1949C18.7492 29.188 18.6075 29.1515 18.3633 28.9589C18.1612 28.6953 18.125 28.5342 18.125 28.2031C18.2198 27.8951 18.2969 27.7718 18.5742 27.6056C19.0269 27.4247 19.5208 27.4662 20 27.4707Z" fill="#FBF9FF"/>
<path d="M14.2188 27.4707C14.316 27.4698 14.4133 27.4689 14.5135 27.468C15.0181 27.4696 15.4193 27.4762 15.8594 27.7344C16.0839 27.98 16.0938 28.1018 16.0938 28.4375C16.071 28.6723 16.0055 28.7628 15.8563 28.9521C15.5663 29.1885 15.344 29.1974 14.9854 29.1925C14.8939 29.1931 14.8939 29.1931 14.8007 29.1936C14.6722 29.1939 14.5438 29.1932 14.4154 29.1916C14.2193 29.1895 14.0236 29.1915 13.8275 29.194C13.7024 29.1938 13.5773 29.1933 13.4521 29.1925C13.3939 29.1933 13.3356 29.1941 13.2755 29.1949C12.968 29.188 12.8263 29.1515 12.5821 28.9589C12.3799 28.6953 12.3438 28.5342 12.3438 28.2031C12.4385 27.8951 12.5157 27.7718 12.793 27.6056C13.2456 27.4247 13.7395 27.4662 14.2188 27.4707Z" fill="#FBF9FF"/>
<path d="M8.4375 27.4708C8.53478 27.4698 8.63207 27.4689 8.7323 27.468C9.2363 27.4696 9.63896 27.4752 10.0781 27.7344C10.2555 27.9461 10.3061 28.0822 10.3467 28.3545C10.3034 28.6573 10.1881 28.8246 10 29.0626C9.62776 29.2487 9.06558 29.1651 8.65179 29.168C8.5191 29.1693 8.38642 29.1715 8.25377 29.1744C8.06219 29.1787 7.87075 29.1804 7.67914 29.1816C7.59062 29.1842 7.59062 29.1842 7.50031 29.1869C7.1874 29.1857 7.04813 29.1541 6.80033 28.9568C6.61216 28.7132 6.5625 28.5888 6.5625 28.2813C6.6525 27.9494 6.715 27.7846 7.01172 27.6029C7.46476 27.4256 7.959 27.4663 8.4375 27.4708Z" fill="#FBF9FF"/>
<path d="M10.9376 19.1406C11.3735 19.3873 11.3735 19.3873 11.4845 19.6093C11.5174 19.8483 11.5224 20.0739 11.4845 20.3125C11.3141 20.5277 11.182 20.659 10.9376 20.7812C10.526 20.828 10.3217 20.7229 10.0001 20.4687C9.86449 20.1974 9.87499 19.9053 9.92202 19.6093C10.2278 19.2231 10.4477 19.0935 10.9376 19.1406Z" fill="#FBF9FF"/>
<path d="M25.2345 27.6562C25.4425 27.8908 25.5346 28.0502 25.5861 28.3593C25.5366 28.6564 25.42 28.8279 25.2345 29.0625C24.9619 29.1987 24.6725 29.1848 24.3751 29.1406C24.1407 28.9843 24.0259 28.8693 23.9329 28.6013C23.8727 28.2969 23.8955 28.1485 24.0285 27.8613C24.4008 27.4603 24.7414 27.437 25.2345 27.6562Z" fill="#FBF9FF"/>
</g>
<defs>
<clipPath id="clip0_1277_1162">
<rect width="40" height="40" fill="white"/>
</clipPath>
</defs>
</svg>
