<svg width="41" height="41" viewBox="0 0 41 41" fill="none" xmlns="http://www.w3.org/2000/svg">
<path d="M4.71548 0C7.03579 0 9.3561 0 11.7467 0C11.7467 0.773438 11.7467 1.54688 11.7467 2.34375C17.1866 2.34375 22.6264 2.34375 28.2311 2.34375C28.2311 1.57031 28.2311 0.796875 28.2311 0C30.5772 0 32.9233 0 35.3405 0C35.3405 6.96094 35.3405 13.9219 35.3405 21.0938C32.9944 21.0938 30.6483 21.0938 28.2311 21.0938C28.2311 20.3203 28.2311 19.5469 28.2311 18.75C26.6842 18.75 25.1374 18.75 23.5436 18.75C23.5533 19.3188 23.5629 19.8876 23.5729 20.4736C23.5756 20.6522 23.5782 20.8308 23.5809 21.0147C23.5837 21.1575 23.5865 21.3004 23.5894 21.4432C23.5903 21.5163 23.5912 21.5894 23.5921 21.6647C23.6033 22.1764 23.6243 22.615 23.9489 23.0322C24.4722 23.4392 25.0798 23.3815 25.714 23.3793C25.867 23.3798 26.02 23.3802 26.173 23.3806C26.3368 23.381 26.5005 23.3809 26.6642 23.3808C27.0068 23.3806 27.3494 23.3817 27.6921 23.3831C28.6661 23.3867 29.6402 23.3886 30.6143 23.3891C31.1529 23.3894 31.6914 23.3908 32.23 23.3934C32.5695 23.395 32.909 23.3952 33.2485 23.3943C33.5113 23.3941 33.774 23.3959 34.0368 23.3973C34.1292 23.3967 34.2215 23.3961 34.3167 23.3954C35.2059 23.4041 36.05 23.6276 36.8395 24.0381C36.8915 24.0647 36.9435 24.0914 36.9971 24.1188C38.4674 24.8999 39.3535 26.1895 39.8787 27.7298C40.2207 28.8788 40.1906 30.3803 39.7155 31.4844C39.6941 31.5344 39.6727 31.5845 39.6507 31.6361C38.977 33.178 37.8665 34.338 36.2935 34.967C35.6362 35.2086 35.0603 35.3237 34.3595 35.3261C34.294 35.3266 34.2285 35.3271 34.1611 35.3276C34.0195 35.3287 33.8779 35.3297 33.7364 35.3305C33.512 35.3317 33.2877 35.3336 33.0634 35.3355C32.4258 35.341 31.7882 35.3457 31.1505 35.3498C30.76 35.3522 30.3694 35.3555 29.9788 35.3591C29.8303 35.3604 29.6818 35.3614 29.5333 35.362C29.3254 35.363 29.1176 35.3649 28.9097 35.367C28.8184 35.367 28.8184 35.367 28.7253 35.3671C28.269 35.3731 27.8826 35.4807 27.4499 35.625C27.3133 35.8392 27.2656 36.0393 27.2292 36.2885C27.0439 37.4512 26.7905 38.537 25.8092 39.2969C25.046 39.8366 24.3576 40.0356 23.4285 40.0308C23.2966 40.0315 23.2966 40.0315 23.1621 40.0323C22.8686 40.0336 22.5752 40.0332 22.2818 40.0328C22.0709 40.0334 21.86 40.034 21.6491 40.0348C21.1364 40.0365 20.6237 40.0368 20.111 40.0367C19.694 40.0366 19.277 40.0369 18.86 40.0374C18.7397 40.0376 18.6193 40.0378 18.499 40.0379C18.4091 40.0381 18.4091 40.0381 18.3174 40.0382C17.1855 40.0397 16.0536 40.0396 14.9217 40.039C13.8878 40.0386 12.8539 40.0402 11.82 40.0428C10.7568 40.0455 9.69355 40.0466 8.63034 40.0463C8.03407 40.0461 7.4378 40.0465 6.84153 40.0485C6.33381 40.0501 5.8261 40.0504 5.31837 40.0489C5.05968 40.0482 4.80106 40.0483 4.54237 40.0497C3.07604 40.0572 2.02123 39.9876 0.912989 38.9389C0.117523 38.0963 -0.0160426 37.1452 0.00142917 36.044C0.0423393 35.0739 0.519405 34.3134 1.2145 33.6572C1.73873 33.2307 2.41145 32.8829 3.09581 32.8793C3.16184 32.8788 3.22788 32.8782 3.29591 32.8777C3.36771 32.8775 3.43951 32.8773 3.51349 32.8771C3.58962 32.8765 3.66575 32.876 3.74418 32.8755C3.90945 32.8744 4.07472 32.8735 4.23999 32.8727C4.50173 32.8714 4.76345 32.8696 5.02518 32.8676C5.76933 32.8621 6.51349 32.8574 7.25765 32.8534C7.7129 32.8509 8.16815 32.8477 8.62339 32.844C8.79672 32.8427 8.97006 32.8418 9.1434 32.8411C9.38612 32.8401 9.62881 32.8383 9.87152 32.8362C9.97851 32.8361 9.97851 32.8361 10.0877 32.836C10.5986 32.8302 11.0242 32.809 11.4245 32.4609C11.6948 32.1429 11.6907 31.9282 11.6854 31.5216C11.6634 31.2679 11.6023 31.1288 11.4342 30.9375C10.9726 30.5973 10.4996 30.6147 9.94985 30.614C9.80978 30.6126 9.6697 30.6111 9.52963 30.6094C9.31091 30.6072 9.09226 30.6055 8.87354 30.6054C7.55259 30.6038 6.59343 30.4254 5.60049 29.4858C4.80502 28.6432 4.67146 27.6921 4.68893 26.5909C4.72984 25.6208 5.20691 24.8603 5.902 24.2041C6.42623 23.7776 7.09895 23.4298 7.78331 23.4262C7.84935 23.4257 7.91538 23.4251 7.98341 23.4246C8.05521 23.4244 8.12701 23.4241 8.20099 23.4239C8.27712 23.4234 8.35325 23.4229 8.43168 23.4224C8.59695 23.4213 8.76222 23.4203 8.92749 23.4195C9.18923 23.4183 9.45095 23.4165 9.71268 23.4145C10.4568 23.409 11.201 23.4043 11.9452 23.4002C12.4004 23.3978 12.8556 23.3945 13.3109 23.3909C13.4842 23.3896 13.6576 23.3886 13.8309 23.388C14.0736 23.387 14.3163 23.3851 14.559 23.383C14.6303 23.383 14.7017 23.383 14.7752 23.3829C15.2759 23.3772 15.6989 23.3497 16.1071 23.0322C16.4763 22.5575 16.4596 22.0211 16.4666 21.4432C16.468 21.3746 16.4693 21.3061 16.4708 21.2354C16.4756 20.9815 16.4793 20.7276 16.4831 20.4736C16.4927 19.9048 16.5024 19.336 16.5124 18.75C14.9397 18.75 13.367 18.75 11.7467 18.75C11.7467 19.5234 11.7467 20.2969 11.7467 21.0938C9.42642 21.0938 7.1061 21.0938 4.71548 21.0938C4.71548 14.1328 4.71548 7.17188 4.71548 0ZM7.05923 2.34375C7.05923 7.75781 7.05923 13.1719 7.05923 18.75C7.83267 18.75 8.6061 18.75 9.40298 18.75C9.40298 13.3359 9.40298 7.92188 9.40298 2.34375C8.62954 2.34375 7.8561 2.34375 7.05923 2.34375ZM30.653 2.34375C30.653 7.75781 30.653 13.1719 30.653 18.75C31.4006 18.75 32.1483 18.75 32.9186 18.75C32.9186 13.3359 32.9186 7.92188 32.9186 2.34375C32.1709 2.34375 31.4233 2.34375 30.653 2.34375ZM11.7467 4.6875C11.7467 8.55469 11.7467 12.4219 11.7467 16.4062C17.1866 16.4062 22.6264 16.4062 28.2311 16.4062C28.2311 12.5391 28.2311 8.67188 28.2311 4.6875C22.7913 4.6875 17.3514 4.6875 11.7467 4.6875ZM18.8561 18.75C18.855 19.0484 18.8539 19.3468 18.8527 19.6542C18.8503 19.9462 18.8473 20.2381 18.8442 20.53C18.8424 20.7315 18.8412 20.933 18.8408 21.1344C18.8401 21.4256 18.8369 21.7166 18.8332 22.0078C18.8335 22.0965 18.8338 22.1852 18.8341 22.2767C18.8154 23.3258 18.4359 24.1889 17.6848 24.9164C16.6721 25.7808 15.576 25.7591 14.3157 25.7529C14.1416 25.7535 13.9674 25.7543 13.7933 25.7553C13.3375 25.7575 12.8818 25.7576 12.4261 25.7571C11.6952 25.7565 10.9642 25.7589 10.2333 25.7619C9.97889 25.7626 9.72449 25.7622 9.47006 25.7617C9.31384 25.7619 9.15763 25.7622 9.00141 25.7625C8.93118 25.7621 8.86096 25.7617 8.78861 25.7612C8.28399 25.7636 7.86056 25.7847 7.4645 26.1279C7.20541 26.4314 7.08988 26.6328 7.05923 27.0312C7.13542 27.4656 7.2722 27.6837 7.6061 27.9688C8.02329 28.2469 8.44912 28.2135 8.93423 28.2141C9.07431 28.2155 9.21438 28.2171 9.35446 28.2187C9.57317 28.2209 9.79182 28.2227 10.0105 28.2227C11.2208 28.2242 12.2389 28.3333 13.153 29.2188C13.8996 29.9895 14.1501 30.8715 14.1367 31.9226C14.0938 32.9125 13.7037 33.6853 12.9973 34.3695C11.9846 35.2339 10.8885 35.2122 9.6282 35.206C9.45405 35.2066 9.2799 35.2074 9.10575 35.2085C8.65002 35.2107 8.19431 35.2107 7.73857 35.2102C7.00765 35.2096 6.27673 35.2121 5.54582 35.2151C5.29139 35.2157 5.03699 35.2153 4.78256 35.2148C4.62634 35.215 4.47013 35.2153 4.31391 35.2157C4.20857 35.215 4.20857 35.215 4.10111 35.2143C3.59649 35.2167 3.17306 35.2378 2.777 35.5811C2.51791 35.8846 2.40238 36.0859 2.37173 36.4844C2.44792 36.9187 2.5847 37.1368 2.9186 37.4219C3.23993 37.6361 3.52203 37.6659 3.90205 37.6665C3.97207 37.6668 4.04208 37.6671 4.11421 37.6674C4.22851 37.6673 4.22851 37.6673 4.34512 37.6672C4.46739 37.6676 4.46739 37.6676 4.59212 37.6679C4.86566 37.6686 5.13919 37.6687 5.41273 37.6688C5.60869 37.6692 5.80465 37.6696 6.00061 37.67C6.53328 37.671 7.06596 37.6715 7.59864 37.6719C7.9314 37.6721 8.26416 37.6724 8.59693 37.6728C9.51871 37.6737 10.4405 37.6745 11.3623 37.6748C11.4507 37.6748 11.4507 37.6748 11.541 37.6749C11.6296 37.6749 11.6296 37.6749 11.7201 37.6749C11.8398 37.6749 11.9596 37.675 12.0794 37.675C12.1388 37.675 12.1982 37.6751 12.2594 37.6751C13.2218 37.6754 14.1842 37.6767 15.1466 37.6786C16.1353 37.6804 17.124 37.6814 18.1127 37.6815C18.6675 37.6816 19.2224 37.682 19.7773 37.6834C20.2993 37.6847 20.8212 37.6849 21.3432 37.6842C21.5346 37.6841 21.7261 37.6845 21.9175 37.6852C22.1792 37.6862 22.4408 37.6858 22.7024 37.685C22.8157 37.6859 22.8157 37.6859 22.9312 37.6869C23.4808 37.6829 24.0289 37.6341 24.4372 37.2363C24.6655 36.8528 24.7388 36.5228 24.7838 36.0791C24.9008 35.1142 25.2494 34.3918 25.9932 33.7466C26.929 33.0489 27.8275 33.0015 28.9507 33.0048C29.0959 33.004 29.2412 33.0031 29.3864 33.002C29.7669 32.9995 30.1475 32.9986 30.528 32.9983C31.1363 32.9976 31.7446 32.9948 32.3529 32.9911C32.5636 32.9901 32.7743 32.9902 32.985 32.9903C34.3809 32.9933 34.3809 32.9933 35.6872 32.5537C35.7741 32.5089 35.861 32.4641 35.9505 32.4179C36.754 31.9272 37.313 31.152 37.5694 30.2438C37.7885 29.2542 37.5988 28.2758 37.0641 27.4316C36.5365 26.6909 35.7875 26.081 34.8835 25.8906C34.2711 25.7938 33.6784 25.7595 33.059 25.7625C32.9614 25.7624 32.8638 25.7622 32.7633 25.7621C32.5533 25.7618 32.3433 25.7618 32.1332 25.7622C31.8001 25.7628 31.467 25.762 31.1339 25.7609C30.1873 25.7579 29.2408 25.7565 28.2943 25.7574C27.7698 25.7579 27.2453 25.757 26.7208 25.7545C26.3907 25.7531 26.0606 25.7533 25.7305 25.7549C25.4756 25.7555 25.2206 25.7536 24.9657 25.7522C24.8311 25.7535 24.8311 25.7535 24.6938 25.7549C23.746 25.7442 22.9005 25.4292 22.2155 24.7656C21.4647 23.9906 21.2191 23.0641 21.2227 22.0078C21.2216 21.9138 21.2204 21.8199 21.2192 21.7231C21.2158 21.427 21.2151 21.131 21.2145 20.835C21.2127 20.6326 21.2107 20.4302 21.2086 20.2278C21.2033 19.7352 21.2017 19.2427 21.1999 18.75C20.4264 18.75 19.653 18.75 18.8561 18.75Z" fill="#FBF9FF"/>
<path d="M18.3091 7.1875C18.5718 7.30136 18.7423 7.44619 18.9426 7.64954C19.0015 7.70895 19.0605 7.76837 19.1212 7.82959C19.1819 7.89163 19.2426 7.95366 19.3052 8.01758C19.3671 8.08022 19.429 8.14286 19.4929 8.2074C19.6455 8.36188 19.7978 8.51671 19.9497 8.67188C20.2125 8.55801 20.3829 8.41319 20.5833 8.20984C20.6422 8.15042 20.7011 8.091 20.7618 8.02979C20.8225 7.96775 20.8832 7.90571 20.9458 7.8418C21.0077 7.77916 21.0697 7.71652 21.1335 7.65198C21.2861 7.4975 21.4384 7.34266 21.5903 7.1875C21.8691 7.30576 22.0464 7.46915 22.2581 7.68372C22.324 7.75018 22.39 7.81665 22.4579 7.88513C22.5602 7.98936 22.5602 7.98936 22.6646 8.0957C22.7339 8.1658 22.8033 8.23589 22.8748 8.30811C23.046 8.4811 23.2167 8.65445 23.3872 8.82812C23.2733 9.09089 23.1285 9.26135 22.9252 9.46167C22.836 9.55004 22.836 9.55004 22.7451 9.6402C22.6831 9.70092 22.621 9.76165 22.5571 9.82422C22.4945 9.88615 22.4318 9.94809 22.3673 10.0119C22.2128 10.1645 22.058 10.3168 21.9028 10.4688C22.0167 10.7315 22.1615 10.902 22.3649 11.1023C22.4243 11.1612 22.4837 11.2201 22.5449 11.2808C22.607 11.3415 22.669 11.4023 22.7329 11.4648C22.7956 11.5268 22.8582 11.5887 22.9227 11.6525C23.0772 11.8052 23.232 11.9574 23.3872 12.1094C23.2689 12.3881 23.1056 12.5654 22.891 12.7771C22.8245 12.8431 22.7581 12.909 22.6896 12.977C22.5853 13.0793 22.5853 13.0793 22.479 13.1836C22.4089 13.253 22.3388 13.3224 22.2666 13.3939C22.0936 13.565 21.9203 13.7358 21.7466 13.9062C21.4838 13.7924 21.3134 13.6476 21.113 13.4442C21.0541 13.3848 20.9952 13.3254 20.9345 13.2642C20.8738 13.2021 20.8131 13.1401 20.7505 13.0762C20.6886 13.0135 20.6266 12.9509 20.5628 12.8864C20.4102 12.7319 20.2579 12.577 20.106 12.4219C19.8432 12.5357 19.6727 12.6806 19.4724 12.8839C19.4135 12.9433 19.3546 13.0027 19.2939 13.064C19.2332 13.126 19.1724 13.188 19.1099 13.252C19.0479 13.3146 18.986 13.3772 18.9222 13.4418C18.7695 13.5963 18.6173 13.7511 18.4653 13.9062C18.1866 13.788 18.0093 13.6246 17.7976 13.41C17.7316 13.3436 17.6657 13.2771 17.5977 13.2086C17.5295 13.1391 17.4614 13.0696 17.3911 12.998C17.287 12.8929 17.287 12.8929 17.1808 12.7856C17.0097 12.6127 16.8389 12.4393 16.6685 12.2656C16.7823 12.0029 16.9271 11.8324 17.1305 11.6321C17.1899 11.5732 17.2493 11.5143 17.3105 11.4536C17.3726 11.3928 17.4346 11.3321 17.4985 11.2695C17.5612 11.2076 17.6238 11.1457 17.6884 11.0818C17.8428 10.9292 17.9977 10.7769 18.1528 10.625C18.039 10.3622 17.8941 10.1918 17.6908 9.99146C17.6314 9.93254 17.572 9.87363 17.5107 9.81293C17.4487 9.7522 17.3867 9.69147 17.3228 9.62891C17.2601 9.56697 17.1975 9.50504 17.1329 9.44122C16.9785 9.28858 16.8236 9.13632 16.6685 8.98438C16.7867 8.70565 16.9501 8.52835 17.1647 8.31665C17.2311 8.25069 17.2976 8.18472 17.3661 8.11676C17.4356 8.04858 17.5051 7.9804 17.5767 7.91016C17.6468 7.84077 17.7168 7.77138 17.7891 7.69989C17.9621 7.52874 18.1354 7.35796 18.3091 7.1875Z" fill="#FBF9FF"/>
</svg>
