<svg width="40" height="40" viewBox="0 0 40 40" fill="none" xmlns="http://www.w3.org/2000/svg">
<g clip-path="url(#clip0_1277_1129)">
<path d="M30.8942 -0.0505206C30.9814 -0.0515473 30.9814 -0.0515473 31.0703 -0.0525948C31.262 -0.0543122 31.4537 -0.0531765 31.6454 -0.0518557C31.7789 -0.0521189 31.9124 -0.0524981 32.0459 -0.0529882C32.3256 -0.053564 32.6053 -0.0527276 32.885 -0.0509021C33.2432 -0.0486781 33.6013 -0.0499568 33.9594 -0.0522976C34.2351 -0.0537107 34.5107 -0.0532591 34.7864 -0.0522476C34.9185 -0.0519874 35.0505 -0.0523056 35.1825 -0.0532162C35.3673 -0.054211 35.552 -0.0526929 35.7367 -0.0505206C35.7911 -0.0513113 35.8455 -0.052102 35.9015 -0.0529167C36.1895 -0.0466588 36.3241 -0.0031344 36.5576 0.170037C36.7422 0.422396 36.7677 0.537104 36.767 0.84599C36.7681 0.980512 36.7681 0.980512 36.7692 1.11775C36.7673 1.26193 36.7673 1.26193 36.7654 1.40902C36.7654 1.5083 36.7654 1.60758 36.7654 1.70988C36.7649 1.91962 36.7638 2.1292 36.7613 2.33891C36.7582 2.60732 36.7579 2.87564 36.7585 3.14407C36.7588 3.40069 36.7571 3.65729 36.7556 3.9139C36.7556 4.01018 36.7556 4.10646 36.7555 4.20565C36.7537 4.3398 36.7537 4.3398 36.7518 4.47667C36.7511 4.55529 36.7505 4.63392 36.7498 4.71492C36.719 4.9219 36.719 4.9219 36.5948 5.07668C36.4614 5.23281 36.4614 5.23281 36.498 5.4567C36.5656 5.71424 36.6463 5.9593 36.7395 6.20879C36.7574 6.25723 36.7754 6.30568 36.7939 6.35559C36.8534 6.51566 36.9134 6.6755 36.9735 6.83535C37.0158 6.94888 37.0581 7.06242 37.1003 7.17597C37.2131 7.47887 37.3265 7.78158 37.4399 8.08424C37.5566 8.39608 37.6729 8.7081 37.7892 9.0201C38.0568 9.7376 38.3253 10.4548 38.594 11.1719C38.6298 11.2676 38.6657 11.3633 38.7026 11.4619C39.0699 12.4421 39.0699 12.4421 39.4384 13.4219C39.4601 13.4796 39.4818 13.5372 39.5042 13.5966C39.5603 13.7456 39.6165 13.8946 39.6728 14.0436C39.7035 14.1272 39.7342 14.2108 39.7658 14.2969C39.7926 14.366 39.8193 14.4352 39.8468 14.5064C39.9352 14.8108 39.9574 15.1021 39.9698 15.4166C39.9727 15.4809 39.9756 15.5452 39.9786 15.6114C40.014 16.4666 40.0162 17.3224 40.0188 18.1781C40.0192 18.2679 40.0195 18.3576 40.0198 18.4501C40.0214 18.9254 40.0225 19.4006 40.0233 19.8758C40.024 20.2632 40.0256 20.6506 40.0281 21.038C40.0536 25.1091 40.0536 25.1091 39.6877 27.0313C39.6669 27.1553 39.6465 27.2794 39.6267 27.4035C39.5649 27.7886 39.4964 28.1725 39.4276 28.5564C39.0204 30.903 39.2414 33.2483 39.8934 35.5298C40.1587 36.4882 40.0097 37.3961 39.5727 38.2794C39.0766 39.1309 38.2948 39.7008 37.3505 39.9661C37.0448 40.0298 36.738 40.0217 36.4268 40.0202C36.3524 40.0205 36.278 40.0208 36.2014 40.0211C35.9566 40.0218 35.7119 40.0213 35.4671 40.0208C35.2962 40.0209 35.1253 40.021 34.9543 40.0212C34.5964 40.0215 34.2385 40.0211 33.8806 40.0204C33.4231 40.0195 32.9656 40.02 32.5081 40.021C32.1551 40.0215 31.8022 40.0213 31.4492 40.0209C31.2806 40.0208 31.112 40.021 30.9433 40.0213C30.7071 40.0217 30.4708 40.0211 30.2345 40.0202C30.1311 40.0207 30.1311 40.0207 30.0256 40.0212C29.6356 40.0186 29.2961 39.9762 28.9223 39.862C28.7396 39.8302 28.7396 39.8302 28.5349 39.9195C28.2751 40.0021 28.0761 40.0198 27.8046 40.0201C27.7102 40.0206 27.6157 40.0211 27.5184 40.0217C27.4153 40.0214 27.3123 40.0212 27.2061 40.0209C27.0949 40.0212 26.9838 40.0216 26.8727 40.022C26.5676 40.0229 26.2626 40.0229 25.9575 40.0227C25.6284 40.0227 25.2993 40.0236 24.9702 40.0243C24.3255 40.0256 23.6808 40.026 23.0362 40.0261C22.5122 40.0262 21.9882 40.0265 21.4642 40.027C19.9787 40.0284 18.4931 40.0291 17.0075 40.029C16.9274 40.029 16.8473 40.029 16.7648 40.029C16.6446 40.029 16.6446 40.029 16.5219 40.029C15.2222 40.0289 13.9225 40.0304 12.6228 40.0326C11.2883 40.0348 9.95386 40.0359 8.61936 40.0358C7.87014 40.0357 7.12093 40.0362 6.37171 40.0378C5.73388 40.0393 5.09605 40.0396 4.45822 40.0385C4.13282 40.038 3.80744 40.038 3.48205 40.0394C3.18403 40.0406 2.88604 40.0404 2.58802 40.039C2.42944 40.0387 2.27086 40.0399 2.11228 40.0411C1.46636 40.0362 1.03069 39.9692 0.528175 39.5368C0.486079 39.4866 0.443983 39.4365 0.400611 39.3848C0.357307 39.335 0.314003 39.2853 0.269386 39.234C0.0412368 38.8875 -0.0193068 38.5421 -0.0196609 38.133C-0.0201166 38.0421 -0.0205719 37.9513 -0.0210414 37.8577C-0.0207461 37.7586 -0.0204515 37.6595 -0.0201473 37.5574C-0.0203834 37.4506 -0.0206852 37.3437 -0.0210509 37.2368C-0.0218545 36.9435 -0.0216855 36.6502 -0.0213513 36.3568C-0.0211587 36.0403 -0.0218628 35.7238 -0.0224481 35.4073C-0.0234443 34.7874 -0.0235822 34.1675 -0.0233994 33.5475C-0.0232601 33.0436 -0.0233981 32.5397 -0.0237308 32.0357C-0.0237773 31.964 -0.0238235 31.8923 -0.0238714 31.8184C-0.0239661 31.6727 -0.0240601 31.527 -0.0241551 31.3813C-0.025005 30.0147 -0.0248365 28.6482 -0.0243602 27.2816C-0.0239564 26.0318 -0.0248344 24.7819 -0.02632 23.5321C-0.0278339 22.2485 -0.0284804 20.965 -0.0281868 19.6814C-0.0280374 18.9609 -0.0282316 18.2403 -0.029336 17.5198C-0.0302668 16.9063 -0.0303749 16.2929 -0.029429 15.6794C-0.0289689 15.3665 -0.0288832 15.0536 -0.02982 14.7407C-0.0306683 14.454 -0.0304263 14.1673 -0.0293312 13.8806C-0.0290268 13.7283 -0.0298714 13.576 -0.0307617 13.4237C-0.0252204 12.5235 0.161524 11.9125 0.781471 11.25C1.40397 10.6612 2.20625 10.5888 3.02726 10.5912C3.11255 10.5907 3.19785 10.5903 3.28572 10.5899C3.46503 10.5894 3.64433 10.5895 3.82363 10.5902C4.09589 10.5908 4.36802 10.5886 4.64027 10.5861C4.81549 10.586 4.99071 10.586 5.16593 10.5863C5.2462 10.5854 5.32647 10.5845 5.40917 10.5836C6.23621 10.5915 6.9096 10.8187 7.50968 11.3941C7.95632 11.9066 8.0593 12.4313 8.05597 13.0949C8.05597 13.1553 8.05598 13.2158 8.05599 13.278C8.05593 13.4732 8.05534 13.6684 8.05473 13.8636C8.05461 13.9842 8.05453 14.1049 8.05449 14.2256C8.05408 14.6725 8.05299 15.1195 8.05198 15.5664C8.05037 16.5655 8.04876 17.5645 8.0471 18.5938C10.2385 18.5938 12.4299 18.5938 14.6877 18.5938C14.6754 16.6492 14.6754 16.6492 14.6596 14.7047C14.6582 14.3263 14.6582 14.3263 14.6579 14.1485C14.6574 14.0259 14.6563 13.9032 14.6547 13.7805C14.6423 12.7767 14.7301 12.0053 15.4467 11.2485C16.0404 10.7339 16.6727 10.614 17.4367 10.6064C17.4977 10.6058 17.5586 10.6051 17.6214 10.6045C17.7499 10.6034 17.8783 10.6026 18.0067 10.602C18.1378 10.6011 18.2689 10.5995 18.4 10.5972C18.59 10.5938 18.7799 10.5926 18.9699 10.5918C19.0282 10.5904 19.0865 10.589 19.1465 10.5876C19.4319 10.5888 19.5957 10.6164 19.84 10.7687C20.0793 11.0208 20.0886 11.2307 20.0944 11.5643C20.0959 11.644 20.0975 11.7238 20.0991 11.8059C20.1011 11.9348 20.1011 11.9348 20.1031 12.0664C20.1047 12.1545 20.1063 12.2426 20.108 12.3334C20.1131 12.6151 20.1177 12.8969 20.1223 13.1787C20.1257 13.3696 20.1291 13.5605 20.1325 13.7514C20.1409 14.2197 20.1488 14.688 20.1565 15.1563C20.2637 14.9829 20.3692 14.8087 20.4739 14.6338C20.5196 14.5605 20.5196 14.5605 20.5662 14.4857C20.6991 14.261 20.7848 14.1106 20.7665 13.8462C20.7352 13.7599 20.7352 13.7599 20.7033 13.6719C20.6297 13.4509 20.6146 13.3117 20.6126 13.0825C20.6119 13.0108 20.6111 12.9391 20.6104 12.8652C20.6099 12.7491 20.6099 12.7491 20.6094 12.6306C20.6089 12.5508 20.6085 12.4709 20.608 12.3886C20.6073 12.2194 20.6068 12.0503 20.6065 11.8811C20.6057 11.6232 20.6033 11.3654 20.6008 11.1075C20.6003 10.943 20.5999 10.7785 20.5996 10.614C20.5986 10.5373 20.5977 10.4605 20.5967 10.3814C20.5985 9.82469 20.6781 9.45367 21.0256 9.00393C21.584 8.56696 22.2186 8.55881 22.9031 8.56265C22.9923 8.56242 23.0815 8.5622 23.1735 8.56197C23.3613 8.56181 23.5491 8.56223 23.7368 8.56322C24.0228 8.56447 24.3087 8.56323 24.5946 8.56173C24.7778 8.56189 24.9611 8.56219 25.1443 8.56265C25.229 8.56217 25.3137 8.5617 25.401 8.56121C26.0036 8.56673 26.5363 8.62409 27.0217 9.00393C27.3906 9.48131 27.4575 9.89979 27.4621 10.4856C27.4642 10.5858 27.4642 10.5858 27.4663 10.6881C27.4705 10.8999 27.4732 11.1115 27.4758 11.3233C27.4784 11.4676 27.4811 11.6119 27.4839 11.7562C27.4905 12.1083 27.4957 12.4604 27.5002 12.8125C27.5253 12.7457 27.5503 12.6789 27.5761 12.61C27.815 11.9724 28.0539 11.3349 28.2929 10.6973C28.4397 10.3057 28.5865 9.914 28.7332 9.52234C28.8045 9.33225 28.8757 9.14218 28.947 8.95211C29.04 8.70404 29.1329 8.4559 29.2256 8.20773C29.42 7.68793 29.6155 7.16886 29.8202 6.65297C29.8503 6.57635 29.8805 6.49973 29.9116 6.42079C29.9652 6.28556 30.0196 6.15063 30.0749 6.01613C30.1993 5.70135 30.2792 5.48065 30.1565 5.15627C30.1049 5.07893 30.0533 5.00159 30.0002 4.9219C29.9793 4.72432 29.9793 4.72432 29.9775 4.48554C29.9765 4.3961 29.9755 4.30665 29.9745 4.2145C29.9742 4.06948 29.9742 4.06948 29.974 3.92153C29.9735 3.82222 29.9729 3.7229 29.9724 3.62057C29.9716 3.41027 29.9712 3.20001 29.9713 2.98972C29.9713 2.72078 29.9692 2.45191 29.9665 2.18299C29.9643 1.92592 29.9644 1.66885 29.9642 1.41177C29.9631 1.3154 29.962 1.21904 29.9608 1.11975C29.9613 1.02982 29.9618 0.939888 29.9623 0.84723C29.962 0.768307 29.9618 0.689385 29.9616 0.60807C30.0604 0.0517073 30.3787 -0.0579988 30.8942 -0.0505206ZM31.4065 1.40627C31.4065 2.25706 31.4065 3.10784 31.4065 3.9844C32.6955 3.9844 33.9846 3.9844 35.3127 3.9844C35.3127 3.13362 35.3127 2.28284 35.3127 1.40627C34.0237 1.40627 32.7346 1.40627 31.4065 1.40627ZM31.7971 5.39065C31.7746 5.45135 31.7521 5.51206 31.7289 5.57461C31.4643 6.28853 31.1995 7.00238 30.9346 7.7162C30.8648 7.90438 30.795 8.09255 30.7252 8.28073C30.2652 9.52079 29.8051 10.7607 29.3352 11.9971C29.3037 12.0801 29.2722 12.1631 29.2397 12.2487C29.0961 12.6265 28.9519 13.0042 28.807 13.3816C28.7569 13.5128 28.7069 13.6441 28.6568 13.7754C28.6342 13.8337 28.6116 13.892 28.5883 13.9521C28.5007 14.1829 28.4377 14.3603 28.4377 14.6094C31.6862 14.6094 34.9346 14.6094 38.2815 14.6094C38.2178 14.2911 38.1401 14.0263 38.0279 13.7245C38.01 13.6763 37.9922 13.6281 37.9738 13.5785C37.9146 13.4188 37.855 13.2592 37.7953 13.0997C37.7532 12.9865 37.7112 12.8732 37.6691 12.76C37.5567 12.4573 37.4438 12.1548 37.3309 11.8523C37.2611 11.6654 37.1915 11.4785 37.1218 11.2916C36.5603 9.7837 35.9967 8.27658 35.425 6.77248C35.3991 6.70399 35.3731 6.6355 35.3463 6.56494C35.275 6.37717 35.2035 6.18952 35.1318 6.00192C35.1113 5.94791 35.0908 5.8939 35.0697 5.83825C34.988 5.5959 34.988 5.5959 34.844 5.39065C34.6186 5.38372 34.3952 5.38165 34.1698 5.38302C34.1023 5.38313 34.0348 5.38324 33.9652 5.38335C33.7487 5.38379 33.5322 5.38477 33.3157 5.38577C33.1692 5.38616 33.0228 5.38651 32.8764 5.38683C32.5166 5.3877 32.1568 5.38905 31.7971 5.39065ZM22.0315 10C22.0315 10.8766 22.0315 11.7531 22.0315 12.6563C23.3463 12.6563 24.6612 12.6563 26.0158 12.6563C26.0158 11.7797 26.0158 10.9031 26.0158 10C24.701 10 23.3862 10 22.0315 10ZM1.71897 12.3438C1.33789 12.8428 1.3626 13.3102 1.36731 13.9217C1.36701 14.0271 1.36657 14.1324 1.366 14.2378C1.36485 14.5265 1.36565 14.8152 1.36676 15.1039C1.36763 15.4155 1.3667 15.7272 1.36599 16.0388C1.36491 16.6489 1.3655 17.259 1.36667 17.8691C1.36799 18.5794 1.36774 19.2896 1.36745 19.9998C1.36699 21.2667 1.3681 22.5336 1.37002 23.8005C1.37189 25.0304 1.37244 26.2604 1.37162 27.4903C1.37073 28.8294 1.37058 30.1685 1.37171 31.5077C1.37183 31.6503 1.37195 31.793 1.37206 31.9357C1.37212 32.0059 1.37218 32.0761 1.37225 32.1484C1.37262 32.6438 1.37247 33.1392 1.37214 33.6346C1.37175 34.2379 1.37222 34.8411 1.37377 35.4444C1.37454 35.7523 1.37494 36.0602 1.37433 36.3682C1.37378 36.6498 1.3743 36.9314 1.3757 37.213C1.37617 37.3637 1.37548 37.5144 1.37476 37.6651C1.37542 37.7539 1.37608 37.8428 1.37676 37.9343C1.37684 38.0113 1.37692 38.0883 1.377 38.1676C1.41135 38.3912 1.46056 38.4613 1.64085 38.5938C1.81296 38.6283 1.81296 38.6283 2.00714 38.622C2.08241 38.6223 2.15767 38.6226 2.23521 38.6229C2.35887 38.6217 2.35887 38.6217 2.48502 38.6204C2.57192 38.6204 2.65882 38.6204 2.74836 38.6205C3.03625 38.6203 3.3241 38.6185 3.61198 38.6167C3.81132 38.6162 4.01067 38.6159 4.21001 38.6157C4.68149 38.6149 5.15295 38.613 5.62441 38.6107C6.16118 38.608 6.69794 38.6067 7.2347 38.6056C8.33884 38.6031 9.44297 38.599 10.5471 38.5938C10.4923 37.4966 10.3638 36.4075 10.2419 35.3162C10.2194 35.1135 10.197 34.9108 10.1745 34.7081C10.1277 34.2857 10.0806 33.8634 10.0334 33.4411C9.97895 32.9532 9.92483 32.4652 9.87089 31.9772C9.81877 31.5058 9.76637 31.0344 9.71384 30.563C9.69159 30.363 9.66941 30.163 9.64731 29.963C9.61652 29.6848 9.58541 29.4066 9.55421 29.1284C9.54511 29.0456 9.53602 28.9628 9.52665 28.8775C9.51811 28.802 9.50957 28.7264 9.50077 28.6486C9.4898 28.5501 9.4898 28.5501 9.4786 28.4496C9.45621 28.2675 9.45621 28.2675 9.37522 28.0469C9.28499 28.0211 9.19475 27.9953 9.10178 27.9688C9.01155 27.943 8.92131 27.9172 8.82835 27.8906C8.75787 27.6792 8.73934 27.5511 8.73639 27.3334C8.73489 27.2364 8.73489 27.2364 8.73335 27.1375C8.73278 27.0679 8.7322 26.9983 8.73161 26.9266C8.73097 26.8548 8.73034 26.7831 8.7297 26.7091C8.72861 26.5574 8.72778 26.4056 8.72716 26.2539C8.72581 26.0217 8.72238 25.7896 8.71894 25.5574C8.71815 25.41 8.71748 25.2625 8.71696 25.1151C8.71559 25.0456 8.71422 24.9762 8.71281 24.9047C8.71451 24.424 8.7145 24.424 8.89512 24.1762C9.08327 24.0486 9.22872 24.0094 9.45335 23.9844C9.4902 23.8498 9.4902 23.8498 9.52781 23.7125C9.61482 23.3959 9.70297 23.0796 9.79186 22.7636C9.82456 22.6472 9.85708 22.5308 9.88937 22.4144C9.92866 22.2734 9.96928 22.1328 10.01 21.9922C10.0327 21.9125 10.0555 21.8327 10.079 21.7505C10.1565 21.5625 10.1565 21.5625 10.3908 21.4063C10.549 21.3858 10.549 21.3858 10.7334 21.3845C10.8382 21.3832 10.8382 21.3832 10.9451 21.3819C11.0218 21.3817 11.0986 21.3815 11.1776 21.3814C11.2598 21.3806 11.3419 21.3798 11.4265 21.379C11.6927 21.3766 11.959 21.3752 12.2253 21.3739C12.3895 21.3726 12.5537 21.3712 12.7179 21.3697C13.3273 21.3648 13.9367 21.3612 14.5461 21.3574C15.9077 21.3478 17.2693 21.3381 18.6721 21.3281C18.6721 18.2602 18.6721 15.1922 18.6721 12.0313C17.1222 11.9032 17.1222 11.9032 16.4846 12.2656C16.1431 12.6441 16.0824 12.876 16.0816 13.3726C16.0813 13.4303 16.0809 13.4879 16.0804 13.5474C16.0796 13.6729 16.0789 13.7985 16.0784 13.924C16.0775 14.1231 16.076 14.3221 16.0743 14.5212C16.0694 15.0873 16.0652 15.6533 16.0626 16.2194C16.061 16.5656 16.0582 16.9117 16.0547 17.2579C16.0536 17.3895 16.053 17.5211 16.0527 17.6528C16.0523 17.8377 16.0505 18.0226 16.0484 18.2075C16.0487 18.2881 16.0487 18.2881 16.0491 18.3704C16.0422 18.7805 15.9369 19.0797 15.7815 19.4531C15.7557 19.5305 15.7299 19.6078 15.7033 19.6875C15.5129 19.7754 15.5129 19.7754 15.3127 19.8438C15.2354 19.8824 15.2354 19.8824 15.1565 19.9219C15.0221 19.9298 14.8874 19.9328 14.7528 19.9334C14.6673 19.934 14.5817 19.9345 14.4936 19.9351C14.3993 19.9353 14.3051 19.9355 14.2079 19.9357C14.109 19.9362 14.01 19.9368 13.908 19.9373C13.5792 19.9389 13.2505 19.9397 12.9217 19.9405C12.8085 19.9408 12.6952 19.9412 12.582 19.9415C12.05 19.943 11.5179 19.9441 10.9858 19.9447C10.372 19.9455 9.75819 19.9475 9.14437 19.9507C8.66977 19.9531 8.19518 19.9542 7.72058 19.9545C7.43721 19.9547 7.15387 19.9554 6.8705 19.9573C6.55405 19.9595 6.23765 19.9592 5.92118 19.9586C5.8277 19.9596 5.73421 19.9606 5.63789 19.9616C5.12522 19.9584 4.77573 19.9447 4.37522 19.6094C4.06514 19.1934 4.01691 18.7807 4.02007 18.2752C4.01926 18.2073 4.01846 18.1394 4.01762 18.0694C4.01534 17.847 4.01521 17.6247 4.01511 17.4024C4.01394 17.2474 4.01264 17.0924 4.0112 16.9374C4.00779 16.531 4.00623 16.1247 4.00505 15.7183C4.00352 15.303 4.00024 14.8877 3.99711 14.4724C3.99123 13.6587 3.9873 12.845 3.9846 12.0313C3.70955 12.0221 3.43455 12.0166 3.1594 12.0117C3.08201 12.0091 3.00461 12.0065 2.92487 12.0038C2.42511 11.9972 2.115 12.0278 1.71897 12.3438ZM5.39085 12.0313C5.39085 14.1969 5.39085 16.3625 5.39085 18.5938C5.80335 18.5938 6.21585 18.5938 6.64085 18.5938C6.64791 17.8379 6.65364 17.0821 6.65704 16.3262C6.65867 15.9751 6.66088 15.6242 6.66442 15.2732C6.66782 14.9343 6.66969 14.5954 6.6705 14.2565C6.67107 14.1274 6.6722 13.9982 6.67389 13.8691C6.67616 13.6879 6.67647 13.5067 6.67632 13.3255C6.67702 13.2224 6.67771 13.1194 6.67843 13.0132C6.62475 12.6149 6.4572 12.3701 6.14768 12.1192C5.89158 11.9961 5.89158 11.9961 5.39085 12.0313ZM22.4221 14.0625C21.85 15.0702 21.2824 16.08 20.7229 17.0948C20.6951 17.1451 20.6673 17.1954 20.6387 17.2473C20.1855 18.0563 20.1855 18.0563 20.0707 18.963C20.0708 19.0304 20.0709 19.0979 20.0711 19.1673C20.0715 19.383 20.0725 19.5988 20.0735 19.8145C20.0739 19.9606 20.0742 20.1066 20.0745 20.2527C20.0754 20.6112 20.0767 20.9697 20.0783 21.3281C21.1758 21.3318 22.2732 21.3345 23.3706 21.3362C23.8801 21.3371 24.3896 21.3382 24.8992 21.3399C25.3905 21.3416 25.8819 21.3426 26.3732 21.343C26.5611 21.3433 26.7489 21.3438 26.9367 21.3447C27.199 21.3458 27.4613 21.346 27.7236 21.3459C27.8019 21.3464 27.8802 21.347 27.961 21.3476C28.0678 21.3473 28.0678 21.3473 28.1767 21.3469C28.2699 21.3472 28.2699 21.3472 28.3648 21.3474C28.5344 21.3414 28.5344 21.3414 28.6721 21.1719C28.7533 19.2563 27.6148 17.5252 26.6955 15.9333C26.5186 15.6267 26.3434 15.3192 26.1681 15.0118C25.9875 14.6952 25.8063 14.3789 25.6252 14.0625C24.5682 14.0625 23.5112 14.0625 22.4221 14.0625ZM28.3596 16.0156C28.5658 16.4282 28.7721 16.8406 28.9846 17.2656C29.628 18.5739 30.1489 19.9975 30.0002 21.4844C29.959 21.5841 29.959 21.5841 29.9169 21.6858C29.8333 21.9027 29.8444 21.9873 29.9074 22.2071C30.0103 22.5744 30.0339 22.8813 30.0783 23.2813C32.9143 23.2813 35.7502 23.2813 38.6721 23.2813C38.6721 20.8836 38.6721 18.486 38.6721 16.0156C35.269 16.0156 31.8658 16.0156 28.3596 16.0156ZM11.2502 22.7344C11.1471 23.1469 11.044 23.5594 10.9377 23.9844C13.851 23.9844 16.7643 23.9844 19.7658 23.9844C19.6511 23.1912 19.6511 23.1912 19.4533 22.7344C16.7463 22.7344 14.0393 22.7344 11.2502 22.7344ZM20.9377 22.7344C21.0408 23.1469 21.144 23.5594 21.2502 23.9844C21.4307 24.036 21.6112 24.0875 21.7971 24.1406C21.9744 24.4066 21.9819 24.5442 22.0022 24.8584C22.008 24.9433 22.0139 25.0282 22.0199 25.1157C22.0256 25.2131 22.0256 25.2131 22.0315 25.3125C22.8858 25.3143 23.7401 25.3157 24.5944 25.3166C24.991 25.317 25.3876 25.3175 25.7843 25.3184C26.1667 25.3193 26.5492 25.3197 26.9316 25.3199C27.0779 25.3201 27.2241 25.3204 27.3704 25.3208C27.5745 25.3213 27.7786 25.3214 27.9827 25.3214C28.0743 25.3218 28.0743 25.3218 28.1678 25.3222C28.4428 25.3471 28.4428 25.3471 28.6721 25.2344C28.6799 25.0563 28.6823 24.878 28.6825 24.6997C28.6826 24.6195 28.6826 24.6195 28.6827 24.5377C28.6828 24.4245 28.6826 24.3113 28.6823 24.1981C28.6819 24.0242 28.6823 23.8503 28.6828 23.6765C28.6827 23.5667 28.6826 23.457 28.6825 23.3472C28.6823 23.1964 28.6823 23.1964 28.6822 23.0425C28.6984 22.8213 28.6984 22.8213 28.594 22.7344C28.3562 22.727 28.1201 22.7246 27.8823 22.7255C27.8076 22.7255 27.7329 22.7255 27.656 22.7255C27.4078 22.7255 27.1597 22.7262 26.9115 22.7268C26.74 22.7269 26.5685 22.727 26.3969 22.7271C25.9444 22.7274 25.4919 22.7282 25.0395 22.729C24.5781 22.7298 24.1168 22.7302 23.6555 22.7306C22.7495 22.7314 21.8436 22.7328 20.9377 22.7344ZM30.0783 24.6875C30.0268 25.0227 29.9752 25.3578 29.9221 25.7031C29.8963 25.8321 29.8705 25.961 29.844 26.0938C29.8956 26.2502 29.9478 26.4064 30.0002 26.5625C30.0147 26.784 30.0222 26.9974 30.021 27.2187C30.0212 27.3117 30.0212 27.3117 30.0214 27.4066C30.0215 27.5372 30.0212 27.6679 30.0206 27.7986C30.0198 27.9969 30.0206 28.1952 30.0216 28.3936C30.0215 28.5211 30.0213 28.6487 30.021 28.7763C30.0213 28.8348 30.0216 28.8933 30.0219 28.9536C30.0194 29.2464 29.9941 29.4972 29.911 29.7787C29.8353 30.1167 29.8809 30.2307 30.0002 30.5469C30.0147 30.7684 30.0222 30.9818 30.021 31.203C30.0211 31.265 30.0213 31.3271 30.0214 31.3909C30.0215 31.5216 30.0212 31.6523 30.0206 31.7829C30.0198 31.9813 30.0206 32.1796 30.0216 32.378C30.0215 32.5055 30.0213 32.6331 30.021 32.7606C30.0213 32.8192 30.0216 32.8777 30.0219 32.938C30.0194 33.2308 29.9941 33.4816 29.911 33.763C29.8348 34.1034 29.8835 34.2116 30.0002 34.5313C30.0234 34.7898 30.0203 35.0476 30.0182 35.307C30.0182 35.3812 30.0182 35.4553 30.0181 35.5317C30.0179 35.6881 30.0173 35.8446 30.0163 36.001C30.0149 36.2389 30.0147 36.4768 30.0147 36.7148C30.0143 36.8673 30.0139 37.0198 30.0133 37.1723C30.0133 37.2428 30.0132 37.3133 30.0131 37.3859C30.0126 37.4531 30.0121 37.5204 30.0116 37.5897C30.0113 37.648 30.011 37.7062 30.0107 37.7663C29.9963 38.0445 29.9588 38.3176 29.9221 38.5938C30.8267 38.601 31.7313 38.6066 32.6359 38.61C33.0561 38.6116 33.4761 38.6138 33.8962 38.6173C34.302 38.6208 34.7077 38.6226 35.1135 38.6234C35.2679 38.624 35.4224 38.6251 35.5768 38.6268C35.7939 38.6291 36.011 38.6294 36.2281 38.6292C36.3229 38.6309 36.3229 38.6309 36.4197 38.6327C36.9971 38.6285 37.4356 38.4299 37.9104 38.1104C38.3313 37.6799 38.6004 37.1672 38.6126 36.5595C38.6072 36.1151 38.4916 35.7093 38.3742 35.2832C37.5609 32.182 37.8248 29.2589 38.3883 26.1452C38.4752 25.6426 38.5158 25.2039 38.5158 24.6875C35.7315 24.6875 32.9471 24.6875 30.0783 24.6875ZM10.0783 25.3906C10.0783 25.8031 10.0783 26.2156 10.0783 26.6406C13.5588 26.6406 17.0393 26.6406 20.6252 26.6406C20.6252 26.2281 20.6252 25.8156 20.6252 25.3906C17.1448 25.3906 13.6643 25.3906 10.0783 25.3906ZM22.0315 26.7188C22.0286 26.7837 22.0256 26.8487 22.0226 26.9156C22.0175 27.0005 22.0123 27.0854 22.0071 27.1729C22.0025 27.2572 21.998 27.3415 21.9933 27.4283C21.9533 27.6563 21.9533 27.6563 21.8572 27.7939C21.719 27.8906 21.719 27.8906 21.3283 28.0469C21.2768 28.4594 21.2252 28.8719 21.1721 29.2969C22.1384 29.2987 23.1048 29.3001 24.0711 29.3009C24.5198 29.3014 24.9684 29.3019 25.4171 29.3028C25.8497 29.3036 26.2823 29.3041 26.7149 29.3043C26.8803 29.3045 27.0458 29.3047 27.2112 29.3052C27.4421 29.3057 27.6729 29.3058 27.9038 29.3058C28.0075 29.3062 28.0075 29.3062 28.1133 29.3066C28.417 29.3363 28.417 29.3363 28.6721 29.2188C28.6799 29.0407 28.6823 28.8624 28.6825 28.6841C28.6826 28.6039 28.6826 28.6039 28.6827 28.5221C28.6828 28.4089 28.6826 28.2957 28.6823 28.1824C28.6819 28.0086 28.6823 27.8347 28.6828 27.6609C28.6827 27.5511 28.6826 27.4413 28.6825 27.3316C28.6823 27.1807 28.6823 27.1807 28.6822 27.0268C28.6984 26.8056 28.6984 26.8056 28.594 26.7188C28.3895 26.7113 28.1872 26.709 27.9827 26.7099C27.8867 26.7099 27.8867 26.7099 27.7887 26.7099C27.5761 26.7099 27.3634 26.7105 27.1508 26.7111C27.0038 26.7113 26.8568 26.7114 26.7097 26.7115C26.322 26.7118 25.9342 26.7125 25.5465 26.7134C25.1511 26.7142 24.7558 26.7146 24.3604 26.715C23.5841 26.7158 22.8078 26.7171 22.0315 26.7188ZM10.7815 28.0469C11.1682 31.5274 11.5549 35.0078 11.9533 38.5938C14.1963 38.5938 16.4393 38.5938 18.7502 38.5938C18.8711 37.5351 18.9919 36.4765 19.1164 35.3858C19.1723 34.8975 19.1723 34.8975 19.2293 34.3994C19.2646 34.0891 19.2646 34.0891 19.2999 33.7788C19.3148 33.6479 19.3298 33.5171 19.3448 33.3863C19.5487 31.6077 19.7327 29.8271 19.9221 28.0469C16.9057 28.0469 13.8893 28.0469 10.7815 28.0469ZM21.0158 30.7031C20.976 31.0009 20.9373 31.2988 20.8987 31.5967C20.8875 31.6802 20.8763 31.7638 20.8648 31.8498C20.8029 32.3317 20.7692 32.7955 20.7815 33.2813C21.7987 33.2831 22.816 33.2845 23.8333 33.2853C24.3056 33.2857 24.7779 33.2863 25.2502 33.2872C25.7056 33.288 26.161 33.2885 26.6164 33.2887C26.7905 33.2888 26.9647 33.2891 27.1389 33.2895C27.3819 33.2901 27.6249 33.2902 27.8679 33.2901C27.9407 33.2904 28.0135 33.2907 28.0885 33.291C28.4054 33.3228 28.4054 33.3228 28.6721 33.2031C28.6799 33.0251 28.6823 32.8467 28.6825 32.6685C28.6826 32.5883 28.6826 32.5883 28.6827 32.5065C28.6828 32.3933 28.6826 32.28 28.6823 32.1668C28.6819 31.9929 28.6823 31.8191 28.6828 31.6452C28.6827 31.5355 28.6826 31.4257 28.6825 31.3159C28.6823 31.1651 28.6823 31.1651 28.6822 31.0112C28.6984 30.79 28.6984 30.79 28.594 30.7031C28.3585 30.6957 28.1249 30.6933 27.8895 30.6943C27.8155 30.6943 27.7416 30.6943 27.6654 30.6942C27.4198 30.6943 27.1742 30.6949 26.9286 30.6955C26.7588 30.6957 26.589 30.6958 26.4193 30.6959C25.9714 30.6962 25.5235 30.6969 25.0757 30.6978C24.6191 30.6986 24.1624 30.6989 23.7058 30.6993C22.8092 30.7002 21.9125 30.7015 21.0158 30.7031ZM20.5471 34.6875C20.4912 35.181 20.4356 35.6745 20.3802 36.1681C20.3613 36.336 20.3424 36.5038 20.3234 36.6716C20.296 36.9131 20.2689 37.1545 20.2419 37.396C20.2334 37.4708 20.2248 37.5457 20.216 37.6229C20.2082 37.6932 20.2004 37.7636 20.1923 37.8361C20.1819 37.9285 20.1819 37.9285 20.1713 38.0227C20.1556 38.2138 20.154 38.4021 20.1565 38.5938C21.1772 38.6028 22.1979 38.6098 23.2186 38.614C23.6926 38.6161 24.1665 38.6188 24.6405 38.6232C25.0979 38.6275 25.5553 38.6298 26.0127 38.6308C26.1872 38.6316 26.3617 38.633 26.5362 38.6351C26.7807 38.6379 27.0251 38.6383 27.2695 38.6381C27.3416 38.6395 27.4137 38.6409 27.488 38.6424C27.8274 38.6397 28.0538 38.6244 28.3234 38.4067C28.7042 38.004 28.6947 37.6384 28.6901 37.1106C28.6901 37.0437 28.69 36.9768 28.69 36.9079C28.6898 36.7671 28.6891 36.6264 28.6882 36.4856C28.6867 36.2692 28.6866 36.0529 28.6866 35.8365C28.6862 35.6997 28.6858 35.5629 28.6852 35.426C28.6851 35.361 28.685 35.296 28.685 35.229C28.7109 34.9343 28.7109 34.9343 28.594 34.6875C28.4892 34.6801 28.3841 34.678 28.2791 34.6781C28.2113 34.678 28.1435 34.6779 28.0736 34.6778C27.9611 34.6782 27.9611 34.6782 27.8464 34.6787C27.7679 34.6786 27.6894 34.6786 27.6086 34.6786C27.3477 34.6787 27.0869 34.6793 26.8261 34.6799C26.6458 34.68 26.4655 34.6802 26.2852 34.6802C25.8096 34.6805 25.334 34.6813 24.8584 34.6822C24.3735 34.683 23.8886 34.6833 23.4037 34.6837C22.4515 34.6845 21.4993 34.6859 20.5471 34.6875Z" fill="#FBF9FF"/>
<path d="M16.7969 30.3125C17.4283 30.7697 17.8996 31.3266 18.0469 32.1094C18.1185 33.03 18.0172 33.7526 17.4219 34.4776C16.8767 35.0445 16.1666 35.3924 15.376 35.4102C14.5868 35.3971 13.9246 35.0782 13.3585 34.5374C12.7841 33.916 12.6254 33.2732 12.6347 32.4371C12.6987 31.6997 13.0421 31.0642 13.5847 30.5689C14.4526 29.8745 15.8261 29.6937 16.7969 30.3125ZM14.3385 31.8567C14.0681 32.2382 14.0028 32.5057 14.0626 32.9688C14.2275 33.4362 14.5284 33.6907 14.9512 33.9356C15.3199 34.0233 15.6472 33.9655 15.9913 33.8135C16.2878 33.5811 16.5196 33.3322 16.6407 32.9688C16.6695 32.53 16.6575 32.2518 16.4063 31.875C16.0784 31.5514 15.8326 31.3938 15.3712 31.3819C14.9006 31.3886 14.646 31.487 14.3385 31.8567Z" fill="#FBF9FF"/>
<path d="M36.9529 26.6406C37.1775 26.7627 37.1775 26.7627 37.3435 26.9531C37.4702 27.4353 37.3645 27.7661 37.2019 28.2178C36.8829 29.1193 36.766 29.9868 36.7673 30.9424C36.7675 31.0342 36.7676 31.1259 36.7677 31.2205C36.7828 32.3031 37.0071 33.2998 37.3719 34.3155C37.4309 34.5714 37.4081 34.7468 37.3435 35C37.178 35.2269 37.0696 35.3002 36.8015 35.3858C36.5086 35.3917 36.3979 35.3397 36.1716 35.1563C35.0683 33.552 35.1039 30.9181 35.4008 29.0746C35.7569 27.1996 35.7569 27.1996 36.2476 26.7264C36.4942 26.5929 36.678 26.6069 36.9529 26.6406Z" fill="#FBF9FF"/>
<path d="M3.74986 26.0156C3.95005 26.1862 4.04924 26.3245 4.09135 26.5868C4.10382 26.8145 4.10566 27.0401 4.10387 27.2681C4.10417 27.3516 4.10446 27.435 4.10477 27.5211C4.10498 27.6973 4.10441 27.8736 4.1031 28.0498C4.10143 28.3194 4.10309 28.5888 4.10509 28.8583C4.10488 29.0297 4.10448 29.2012 4.10387 29.3726C4.1045 29.4531 4.10513 29.5335 4.10578 29.6165C4.09848 30.1752 4.09848 30.1752 3.91328 30.4787C3.71264 30.6583 3.63922 30.7002 3.369 30.7178C3.12793 30.7033 3.00688 30.6858 2.81236 30.5469C2.6669 30.3105 2.6359 30.1291 2.63341 29.8537C2.63192 29.7407 2.63192 29.7407 2.63039 29.6253C2.63022 29.5444 2.63005 29.4635 2.62987 29.3802C2.62935 29.2966 2.62883 29.213 2.62829 29.1269C2.6275 28.9501 2.62713 28.7734 2.62716 28.5967C2.62682 28.3265 2.62398 28.0563 2.62102 27.7861C2.62056 27.6143 2.62025 27.4426 2.6201 27.2708C2.61842 27.1497 2.61842 27.1497 2.6167 27.0261C2.61891 26.6783 2.62092 26.4661 2.79996 26.1618C3.113 25.8905 3.36175 25.9203 3.74986 26.0156Z" fill="#FBF9FF"/>
<path d="M34.2968 7.96873C34.6608 8.26248 34.8168 8.58594 34.9853 9.00877C35.0096 9.06511 35.0339 9.12146 35.059 9.17951C35.2201 9.57442 35.2727 9.88604 35.2343 10.3125C35.0732 10.5469 35.0732 10.5469 34.8437 10.7031C34.5345 10.7528 34.3716 10.7486 34.1027 10.585C33.8449 10.33 33.7414 10.071 33.6132 9.73631C33.5777 9.6493 33.5777 9.6493 33.5415 9.56053C33.2202 8.75228 33.2202 8.75228 33.3788 8.33982C33.6252 7.95261 33.858 7.91577 34.2968 7.96873Z" fill="#FBF9FF"/>
<path d="M35.7032 11.3281C36.1088 11.6808 36.3015 12.144 36.3526 12.6758C36.3278 12.8937 36.2946 13.0223 36.1719 13.2031C35.8836 13.3953 35.6472 13.4216 35.3125 13.3594C34.9474 13.0997 34.7866 12.7704 34.6875 12.3437C34.6418 12.0046 34.63 11.7431 34.7999 11.4404C35.1005 11.2717 35.3675 11.25 35.7032 11.3281Z" fill="#FBF9FF"/>
<path d="M3.59363 31.9531C3.80456 32.0937 3.94846 32.194 4.06238 32.4219C4.07622 32.6137 4.08405 32.8012 4.08679 32.9932C4.08971 33.096 4.09263 33.1988 4.09564 33.3047C4.05768 33.6345 3.98842 33.7581 3.74988 33.9844C3.44134 34.0741 3.27882 34.0962 2.98328 33.9648C2.81238 33.8281 2.81238 33.8281 2.65613 33.5937C2.62988 33.3282 2.62988 33.3282 2.62683 33.0176C2.62462 32.9155 2.6224 32.8133 2.62012 32.7081C2.661 32.3832 2.73898 32.2592 2.96863 32.0312C3.19154 31.9198 3.34633 31.9289 3.59363 31.9531Z" fill="#FBF9FF"/>
</g>
<defs>
<clipPath id="clip0_1277_1129">
<rect width="40" height="40" fill="white"/>
</clipPath>
</defs>
</svg>
