<svg width="80" height="80" viewBox="0 0 80 80" fill="none" xmlns="http://www.w3.org/2000/svg">
<g clip-path="url(#clip0_1317_29)">
<path d="M67.8894 39.9998C70.2154 39.1608 72.5109 37.8936 74.4164 35.988C80.9265 29.4779 79.9706 18.3205 79.9267 17.8486L79.7935 16.4194L78.3646 16.2862C78.3338 16.2834 77.6014 16.2163 76.4355 16.2163C72.4648 16.2163 65.0795 16.9415 60.2245 21.7961C57.4461 24.5745 56.0304 28.1985 55.3205 31.4779C51.2719 28.2342 45.8967 24.7568 39.7243 22.8191C39.9848 20.061 39.8125 18.043 39.7942 17.8486L39.661 16.4194L38.2321 16.2862C38.2013 16.2834 37.4689 16.2163 36.303 16.2163C32.3323 16.2163 24.947 16.9415 20.0924 21.7961C19.4845 22.4039 18.942 23.0523 18.4577 23.7286C7.30059 28.5089 0.903666 38.6931 0.558737 39.2536L0 40.1607L0.558737 41.0678C1.01057 41.8013 11.8345 59.0328 30.1348 59.0328C40.3422 59.0328 49.3473 53.642 55.3807 48.7953C56.1096 52.0014 57.5229 55.5019 60.2242 58.2035C65.0788 63.0582 72.4645 63.783 76.4352 63.7833C77.6011 63.7833 78.3335 63.7162 78.3643 63.7134L79.7931 63.5802L79.9263 62.151C79.9702 61.6795 80.9265 50.522 74.4161 44.0116C72.5109 42.106 70.2154 40.8388 67.8894 39.9998ZM16.6272 39.6068C14.9205 39.6068 13.537 38.2233 13.537 36.5166C13.537 34.81 14.9205 33.4264 16.6272 33.4264C18.3338 33.4264 19.7173 34.81 19.7173 36.5166C19.7173 38.2233 18.3338 39.6068 16.6272 39.6068Z" fill="#044D91"/>
</g>
<defs>
<clipPath id="clip0_1317_29">
<rect width="80" height="80" fill="white"/>
</clipPath>
</defs>
</svg>
