<svg width="80" height="80" viewBox="0 0 80 80" fill="none" xmlns="http://www.w3.org/2000/svg">
<g clip-path="url(#clip0_1317_29)">
<path d="M12.1106 39.9998C9.78463 39.1608 7.48914 37.8936 5.58356 35.988C-0.926503 29.4779 0.0294031 18.3205 0.0733409 17.8486L0.206536 16.4194L1.63538 16.2862C1.66617 16.2834 2.39859 16.2163 3.56449 16.2163C7.53516 16.2163 14.9205 16.9415 19.7755 21.7961C22.5539 24.5745 23.9696 28.1985 24.6795 31.4779C28.7281 28.2342 34.1033 24.7568 40.2757 22.8191C40.0152 20.061 40.1875 18.043 40.2058 17.8486L40.339 16.4194L41.7679 16.2862C41.7987 16.2834 42.5311 16.2163 43.697 16.2163C47.6677 16.2163 55.053 16.9415 59.9076 21.7961C60.5155 22.4039 61.058 23.0523 61.5423 23.7286C72.6994 28.5089 79.0963 38.6931 79.4413 39.2536L80 40.1607L79.4413 41.0678C78.9894 41.8013 68.1655 59.0328 49.8652 59.0328C39.6578 59.0328 30.6527 53.642 24.6193 48.7953C23.8904 52.0014 22.4771 55.5019 19.7758 58.2035C14.9212 63.0582 7.5355 63.783 3.56484 63.7833C2.39893 63.7833 1.66652 63.7162 1.63573 63.7134L0.206885 63.5802L0.0736894 62.151C0.0297516 61.6795 -0.926501 50.522 5.5839 44.0116C7.48914 42.106 9.78463 40.8388 12.1106 39.9998ZM63.3728 39.6068C65.0795 39.6068 66.463 38.2233 66.463 36.5166C66.463 34.81 65.0795 33.4264 63.3728 33.4264C61.6662 33.4264 60.2827 34.81 60.2827 36.5166C60.2827 38.2233 61.6662 39.6068 63.3728 39.6068Z" fill="#044D91"/>
</g>
<defs>
<clipPath id="clip0_1317_29">
<rect width="80" height="80" fill="white" transform="matrix(-1 0 0 1 80 0)"/>
</clipPath>
</defs>
</svg>
