<svg width="1280" height="130" viewBox="0 0 1280 130" fill="none" xmlns="http://www.w3.org/2000/svg">
<path d="M649.073 82.7593C721.778 64.3767 795.322 51.2402 870.062 44.75C870.933 44.6729 871.803 44.5958 872.7 44.5163C904.571 41.7322 936.5 40.6526 968.482 40.7393C972.718 40.7507 976.954 40.7439 981.191 40.7324C1012.73 40.6602 1044.2 41.9258 1075.62 44.75C1076.56 44.8321 1077.49 44.9141 1078.45 44.9986C1144.03 50.834 1210.69 61.7902 1273.23 82.8203C1277 84 1277 84 1280 84C1280 56.28 1280 28.56 1280 1.52588e-05C857.6 1.52588e-05 435.2 1.52588e-05 0 1.52588e-05C0 28.05 0 56.1 0 85C28.4694 94.4898 28.4694 94.4898 41.8125 97.9375C42.5976 98.1421 43.3827 98.3467 44.1916 98.5575C103.254 113.886 163.986 122.62 224.817 126.846C226.937 126.996 229.055 127.155 231.173 127.316C323.724 134.256 418.275 127.885 649.073 82.7593Z" fill="#FBF9FF"/>
</svg>
