<svg width="375" height="46" viewBox="0 0 375 46" fill="none" xmlns="http://www.w3.org/2000/svg">
<path d="M-334 42.8154L-312.5 42.0524C-291 41.2469 -248 39.7208 -205.2 38.3643C-162.3 37.0078 -119.7 35.9056 -76.8 36.8806C-34 37.8556 8.99999 40.9926 51.8 43.3241C94.7 45.6556 137.3 47.1817 180.2 44.8078C223 42.3915 266 36.0328 308.8 33.3621C351.7 30.6491 394.3 31.6665 437.2 33.5741C480 35.4817 523 38.2795 544.5 39.7208L566 41.1198V0H544.5C523 0 480 0 437.2 0C394.3 0 351.7 0 308.8 0C266 0 223 0 180.2 0C137.3 0 94.7 0 51.8 0C8.99999 0 -34 0 -76.8 0C-119.7 0 -162.3 0 -205.2 0C-248 0 -291 0 -312.5 0H-334V42.8154Z" fill="#FBF9FF"/>
</svg>
