<svg width="375" height="36" viewBox="0 0 375 36" fill="none" xmlns="http://www.w3.org/2000/svg">
<path d="M0 13.3805L8.95833 13.2212C17.9167 13.0619 35.8333 12.7434 53.6667 10.9912C71.5417 9.23894 89.2917 6.0531 107.167 4.84248C125 3.6 142.917 4.3646 160.75 6.30796C178.625 8.28318 196.375 11.469 214.25 10.2584C232.083 9.01593 250 3.40885 267.833 2.77169C285.708 2.13452 303.458 6.46726 321.333 6.84956C339.167 7.23186 357.083 3.6 366.042 1.81593L375 0V36H366.042C357.083 36 339.167 36 321.333 36C303.458 36 285.708 36 267.833 36C250 36 232.083 36 214.25 36C196.375 36 178.625 36 160.75 36C142.917 36 125 36 107.167 36C89.2917 36 71.5417 36 53.6667 36C35.8333 36 17.9167 36 8.95833 36H0V13.3805Z" fill="#FBF9FF"/>
</svg>
