<svg width="375" height="20" viewBox="0 0 375 20" fill="none" xmlns="http://www.w3.org/2000/svg">
<path d="M0 20L11.7533 18C23.5067 15.9726 47.0133 11.9726 70.4107 10.1918C93.8627 8.41096 117.151 8.84932 140.603 10.4658C164 12.0548 187.507 14.7945 210.904 15.7534C234.356 16.7123 257.644 15.8904 281.096 16.7671C304.493 17.6164 328 20.1918 351.397 19.9178C374.849 19.6438 398.137 16.5205 421.589 14.5205C444.987 12.5205 468.493 11.589 480.247 11.1507L492 10.6849V0H480.247C468.493 0 444.987 0 421.589 0C398.137 0 374.849 0 351.397 0C328 0 304.493 0 281.096 0C257.644 0 234.356 0 210.904 0C187.507 0 164 0 140.603 0C117.151 0 93.8627 0 70.4107 0C47.0133 0 23.5067 0 11.7533 0H0V20Z" fill="#FBF9FF"/>
</svg>
