<svg width="375" height="21" viewBox="0 0 375 21" fill="none" xmlns="http://www.w3.org/2000/svg">
<path d="M0 21L13.8611 19.7389C27.7222 18.4833 55.4444 15.9611 83.1667 15.9333C110.889 15.9056 138.611 18.3722 166.333 19.6667C194.056 20.9611 221.778 21.0944 249.5 19.6389C277.222 18.1833 304.944 15.15 332.667 14.1944C360.389 13.2389 388.111 14.3722 415.833 15.1944C443.556 16.0167 471.278 16.5389 485.139 16.7944L499 17.0556V0H485.139C471.278 0 443.556 0 415.833 0C388.111 0 360.389 0 332.667 0C304.944 0 277.222 0 249.5 0C221.778 0 194.056 0 166.333 0C138.611 0 110.889 0 83.1667 0C55.4444 0 27.7222 0 13.8611 0H0V21Z" fill="#FBF9FF"/>
</svg>
