<svg width="375" height="20" viewBox="0 0 375 20" fill="none" xmlns="http://www.w3.org/2000/svg">
<path d="M375 1.49012e-07L366.042 2C357.083 4.0274 339.167 8.0274 321.333 9.80822C303.458 11.589 285.708 11.1507 267.833 9.53425C250 7.94521 232.083 5.20548 214.25 4.24658C196.375 3.28767 178.625 4.10959 160.75 3.23288C142.917 2.38356 125 -0.19178 107.167 0.0821928C89.2917 0.356165 71.5417 3.47945 53.6667 5.47945C35.8333 7.47945 17.9167 8.41096 8.95834 8.84931L8.9407e-06 9.31507V20H8.95834C17.9167 20 35.8333 20 53.6667 20C71.5417 20 89.2917 20 107.167 20C125 20 142.917 20 160.75 20C178.625 20 196.375 20 214.25 20C232.083 20 250 20 267.833 20C285.708 20 303.458 20 321.333 20C339.167 20 357.083 20 366.042 20H375V1.49012e-07Z" fill="#FBF9FF"/>
</svg>
