<svg width="850" height="56" viewBox="0 0 850 56" fill="none" xmlns="http://www.w3.org/2000/svg">
<path d="M0 56L20.3056 50.4C40.6111 44.7233 81.2222 33.5233 121.644 28.537C162.161 23.5507 202.394 24.7781 242.911 29.3041C283.333 33.7534 323.944 41.4247 364.367 44.1096C404.883 46.7945 445.117 44.4932 485.633 46.9479C526.056 49.326 566.667 56.537 607.089 55.7699C647.606 55.0027 687.839 46.2575 728.356 40.6575C768.778 35.0575 809.389 32.4493 829.694 31.2219L850 29.9178V0H829.694C809.389 0 768.778 0 728.356 0C687.839 0 647.606 0 607.089 0C566.667 0 526.056 0 485.633 0C445.117 0 404.883 0 364.367 0C323.944 0 283.333 0 242.911 0C202.394 0 162.161 0 121.644 0C81.2222 0 40.6111 0 20.3056 0H0V56Z" fill="#FBF9FF"/>
</svg>
