<svg width="80" height="80" viewBox="0 0 80 80" fill="none" xmlns="http://www.w3.org/2000/svg">
<path d="M42.8125 4.37504C44.1187 5.34221 44.9002 6.5218 45.6738 7.91996C45.7886 8.12227 45.9037 8.32441 46.0191 8.52638C46.2501 8.93118 46.4798 9.33666 46.7085 9.74278C47.1559 10.5354 47.6205 11.3176 48.0859 12.0996C48.248 12.3732 48.4099 12.6469 48.5718 12.9206C48.6514 13.0551 48.7311 13.1897 48.8132 13.3284C49.0798 13.7793 49.3459 14.2307 49.6118 14.682C49.7029 14.8365 49.794 14.991 49.8878 15.1502C50.0608 15.4436 50.2336 15.7371 50.4063 16.0306C50.8842 16.8407 51.373 17.6422 51.875 18.4375C52.3554 18.2629 52.7855 18.0548 53.2227 17.793C53.75 17.5 53.75 17.5 54.2188 17.5C54.2861 18.5007 54.3528 19.5015 54.419 20.5022C54.4416 20.8423 54.4643 21.1824 54.4872 21.5224C54.5202 22.0126 54.5526 22.5029 54.585 22.9932C54.5952 23.144 54.6055 23.2947 54.616 23.4501C54.6703 24.2815 54.6978 25.1044 54.6875 25.9375C54.0548 25.7115 53.54 25.4044 52.984 25.0287C52.8973 24.9705 52.8105 24.9122 52.7211 24.8522C52.4419 24.6645 52.1633 24.4759 51.8848 24.2871C51.5049 24.0311 51.1248 23.7755 50.7446 23.5199C50.6523 23.4578 50.5599 23.3956 50.4647 23.3315C49.5985 22.7498 48.7187 22.1923 47.8302 21.6455C47.6668 21.5271 47.6668 21.5271 47.5 21.4063C47.5 21.3032 47.5 21.2 47.5 21.0938C47.805 20.8932 48.1193 20.7064 48.4375 20.5274C48.6115 20.4287 48.7855 20.33 48.9648 20.2283C49.1002 20.153 49.2355 20.0777 49.375 20C48.8748 18.9655 48.3338 17.9722 47.7344 16.9922C47.568 16.7176 47.4018 16.443 47.2357 16.1683C47.1505 16.0275 47.0653 15.8868 46.9775 15.7418C46.5514 15.0349 46.1321 14.3242 45.7129 13.6133C45.5876 13.4012 45.5876 13.4012 45.4599 13.1849C45.019 12.4382 44.5793 11.6909 44.1406 10.943C44.0507 10.79 43.9607 10.637 43.8681 10.4794C43.6976 10.1893 43.5274 9.89907 43.3576 9.60858C42.4009 7.71974 42.4009 7.71974 40.7812 6.56254C39.9074 6.4495 39.1882 6.45905 38.4127 6.93474C37.7592 7.50902 37.3822 8.32195 36.9629 9.07231C36.8546 9.26131 36.746 9.45015 36.6371 9.63883C36.411 10.0311 36.1862 10.4241 35.9622 10.8176C35.4355 11.7404 34.8895 12.6517 34.3457 13.5645C34.1373 13.916 33.9289 14.2676 33.7207 14.6192C33.6206 14.7882 33.5205 14.9572 33.4174 15.1313C32.9712 15.8848 32.5256 16.6387 32.0801 17.3926C31.9983 17.531 31.9165 17.6694 31.8322 17.812C31.4131 18.5212 30.9946 19.2308 30.5768 19.9408C30.1554 20.6566 29.7326 21.3714 29.3085 22.0855C29.1433 22.3639 28.9785 22.6425 28.8141 22.9213C28.5793 23.3188 28.3426 23.7152 28.1055 24.1114C28.0353 24.231 27.965 24.3505 27.8927 24.4738C27.3974 25.2947 27.3974 25.2947 26.875 25.4688C26.5089 25.276 26.1745 25.0793 25.8301 24.8536C25.7353 24.7932 25.6405 24.7329 25.5429 24.6708C25.3089 24.5215 25.0762 24.3703 24.8438 24.2188C25.3675 23.1003 25.9803 22.0455 26.6205 20.9913C27.0797 20.235 27.5292 19.4731 27.9785 18.711C28.8084 17.3047 29.64 15.8996 30.4729 14.4951C31.1001 13.4376 31.726 12.3794 32.3494 11.3197C32.6773 10.7633 33.0073 10.2081 33.3372 9.6529C33.6126 9.18684 33.8845 8.71879 34.1565 8.25077C34.3464 7.92885 34.5364 7.60699 34.7266 7.2852C34.8113 7.13751 34.896 6.98982 34.9833 6.83766C35.7733 5.51253 36.8005 4.36877 38.2916 3.8477C39.8192 3.52225 41.4514 3.56247 42.8125 4.37504Z" fill="#044D91"/>
<path d="M57.347 28.1448C57.7544 28.3245 57.8552 28.5143 58.0737 28.9001C58.1888 29.0993 58.1888 29.0993 58.3063 29.3026C58.3883 29.4489 58.4702 29.5953 58.5547 29.746C58.7361 30.0614 58.9175 30.3768 59.0991 30.6921C59.2425 30.9431 59.2425 30.9431 59.3887 31.1991C59.8958 32.0809 60.4174 32.9539 60.9375 33.8281C61.1503 34.1866 61.3628 34.5454 61.5753 34.9041C61.6784 35.078 61.7814 35.2519 61.8876 35.4311C62.5835 36.6061 63.2779 37.782 63.9724 38.9578C64.3081 39.5262 64.6439 40.0945 64.9798 40.6628C65.1483 40.948 65.3167 41.2334 65.485 41.5187C65.9245 42.2639 66.3666 43.0074 66.8127 43.7487C66.951 43.9795 66.951 43.9795 67.092 44.215C67.2675 44.5081 67.4439 44.8007 67.6212 45.0927C68.5754 46.6899 69.0375 48.1143 68.75 49.9999C68.2857 51.4572 67.4254 52.6277 66.0645 53.3398C65.4301 53.6369 64.8586 53.7696 64.1576 53.7687C64.0213 53.7689 63.8851 53.7691 63.7447 53.7694C63.5964 53.7688 63.4482 53.7682 63.2954 53.7677C63.1384 53.7677 62.9813 53.7677 62.8195 53.7677C62.3004 53.7676 61.7813 53.7664 61.2622 53.7652C60.9023 53.7649 60.5423 53.7647 60.1824 53.7645C59.2351 53.7639 58.2877 53.7624 57.3404 53.7607C56.3737 53.7591 55.407 53.7583 54.4403 53.7576C52.5435 53.7559 50.6468 53.7532 48.75 53.7499C48.75 54.5749 48.75 55.3999 48.75 56.2499C48.1496 56.0498 47.6547 55.8779 47.1037 55.6007C46.9723 55.5351 46.841 55.4694 46.7057 55.4017C46.4977 55.2965 46.4977 55.2965 46.2854 55.1891C46.0689 55.0806 46.0689 55.0806 45.848 54.9698C45.3893 54.7395 44.931 54.5084 44.4727 54.2773C44.1608 54.1206 43.8489 53.9639 43.537 53.8073C42.7743 53.4242 42.012 53.0405 41.25 52.6562C41.25 52.5531 41.25 52.4499 41.25 52.3437C42.2675 51.831 43.2854 51.3193 44.3037 50.8083C44.6503 50.6342 44.9967 50.4599 45.3431 50.2853C45.84 50.035 46.3373 49.7854 46.8347 49.5361C46.9903 49.4574 47.1459 49.3788 47.3062 49.2978C47.5221 49.1899 47.5221 49.1899 47.7422 49.0798C47.9327 48.9841 47.9327 48.9841 48.1271 48.8864C48.4375 48.7499 48.4375 48.7499 48.75 48.7499C48.75 49.5749 48.75 50.3999 48.75 51.2499C50.6611 51.2403 52.5722 51.2283 54.4833 51.2131C55.3708 51.2061 56.2582 51.2 57.1457 51.1958C58.0028 51.1917 58.8599 51.1854 59.717 51.1776C60.0434 51.175 60.3697 51.1731 60.6961 51.1722C61.1546 51.1707 61.613 51.1663 62.0715 51.1612C62.2052 51.1615 62.339 51.1617 62.4768 51.1619C63.5983 51.1446 64.6002 50.9664 65.4688 50.2245C65.9656 49.619 66.013 49.1981 65.9977 48.4283C65.9316 47.9236 65.7944 47.6261 65.5414 47.1868C65.4559 47.0369 65.3705 46.8871 65.2825 46.7327C65.1427 46.4937 65.1427 46.4937 65 46.2499C64.9057 46.0865 64.8113 45.9231 64.7142 45.7547C64.4015 45.2153 64.0859 44.6777 63.7695 44.1406C63.6528 43.9419 63.5361 43.7432 63.4193 43.5445C62.3284 41.6885 61.2303 39.8367 60.1315 37.9852C59.6156 37.1152 59.1013 36.2442 58.5873 35.373C58.1636 34.655 57.7386 33.9378 57.3116 33.2218C57.0795 32.8327 56.8478 32.4434 56.6161 32.0541C56.503 31.8643 56.3898 31.6747 56.2764 31.4851C56.1182 31.2208 55.9607 30.9561 55.8032 30.6915C55.6667 30.4628 55.6667 30.4628 55.5275 30.2296C55.3125 29.8437 55.3125 29.8437 55.1562 29.3749C57.0312 28.1249 57.0312 28.1249 57.347 28.1448Z" fill="#044D91"/>
<path d="M24.2187 27.9688C24.1207 30.7859 23.9487 33.5947 23.7499 36.4062C23.0301 36.2775 22.6029 36.0362 22.0104 35.6189C21.9142 35.5693 21.8179 35.5198 21.7187 35.4688C21.155 35.6566 21.1218 35.7711 20.8435 36.2756C20.7676 36.4111 20.6918 36.5465 20.6137 36.6861C20.4936 36.9053 20.4936 36.9053 20.371 37.1289C20.2014 37.4324 20.0315 37.7357 19.8614 38.0389C19.7781 38.1881 19.6949 38.3372 19.6091 38.4908C19.3094 39.0226 18.9984 39.5466 18.6816 40.0684C18.1047 41.0212 17.5377 41.9796 16.9726 42.9395C16.2425 44.1796 15.5011 45.4119 14.7403 46.6335C14.6737 46.7412 14.6071 46.8489 14.5385 46.9598C14.4803 47.0533 14.422 47.1468 14.362 47.2432C13.9601 47.9635 13.9739 48.7307 14.0624 49.5312C14.4306 50.31 14.828 50.6285 15.6249 50.9375C16.1912 51.0744 16.7191 51.1147 17.3009 51.1185C17.4795 51.12 17.6581 51.1215 17.842 51.1231C18.0365 51.124 18.2309 51.1249 18.4312 51.1258C18.6371 51.1274 18.8429 51.1289 19.055 51.1305C19.6183 51.1347 20.1816 51.138 20.7449 51.1411C21.334 51.1446 21.9231 51.1488 22.5122 51.153C23.6272 51.1608 24.7422 51.1678 25.8573 51.1746C27.1269 51.1823 28.3965 51.1909 29.6662 51.1995C32.2774 51.2173 34.8887 51.234 37.5 51.25C37.5 52.075 37.5 52.9 37.5 53.75C34.6137 53.7645 31.7274 53.7756 28.8411 53.7824C27.5008 53.7856 26.1606 53.79 24.8204 53.7971C23.6517 53.8034 22.4831 53.8074 21.3144 53.8088C20.696 53.8096 20.0777 53.8115 19.4594 53.8161C18.8763 53.8204 18.2934 53.8216 17.7103 53.8207C17.3964 53.8209 17.0825 53.8243 16.7686 53.8278C15.1117 53.8203 13.8383 53.4818 12.6177 52.3328C11.6728 51.2931 11.194 50.206 11.1914 48.7988C11.1875 48.6962 11.1837 48.5936 11.1798 48.4879C11.1708 46.9509 11.9971 45.6589 12.7734 44.3848C12.9549 44.0823 13.1364 43.7797 13.3178 43.4772C13.4134 43.3187 13.509 43.1602 13.6074 42.9969C14.1282 42.1308 14.6417 41.2604 15.1562 40.3906C15.3669 40.035 15.5777 39.6793 15.7885 39.3237C16.3724 38.3384 16.956 37.353 17.539 36.3672C17.621 36.2287 17.703 36.0902 17.7874 35.9476C18.2185 35.2184 18.6443 34.4867 19.0624 33.75C18.9303 33.7113 18.7982 33.6727 18.6621 33.6328C18.0649 33.4157 17.5752 33.1389 17.0312 32.8125C17.0312 32.7094 17.0312 32.6062 17.0312 32.5C17.2503 32.3183 17.2503 32.3183 17.5614 32.1159C17.6772 32.0397 17.7931 31.9635 17.9124 31.8851C18.0394 31.8032 18.1663 31.7213 18.2971 31.637C18.4266 31.5522 18.5562 31.4674 18.6897 31.3801C19.1063 31.1078 19.5238 30.8371 19.9414 30.5664C20.2195 30.385 20.4977 30.2036 20.7757 30.022C21.4017 29.6133 22.0282 29.2055 22.6556 28.7991C22.9416 28.6115 23.2232 28.4188 23.5048 28.2247C23.9062 27.9688 23.9062 27.9688 24.2187 27.9688Z" fill="#044D91"/>
<path d="M41.2598 21.1621C41.875 21.25 41.875 21.25 42.2215 21.4954C42.5936 22.0026 42.5835 22.4312 42.571 23.0361C42.5711 23.152 42.5711 23.2679 42.5712 23.3873C42.5708 23.7695 42.5659 24.1515 42.561 24.5337C42.5599 24.7991 42.559 25.0644 42.5584 25.3298C42.556 26.0275 42.5498 26.7251 42.5429 27.4227C42.5365 28.1349 42.5337 28.8471 42.5305 29.5593C42.5238 30.9563 42.5128 32.3531 42.5 33.75C43.325 33.75 44.15 33.75 45 33.75C45 34.575 45 35.4 45 36.25C44.175 36.25 43.35 36.25 42.5 36.25C42.5 39.1375 42.5 42.025 42.5 45C41.675 45 40.85 45 40 45C40 42.1125 40 39.225 40 36.25C37.3542 36.2747 37.3542 36.2747 34.7084 36.3063C34.3767 36.3082 34.0451 36.3097 33.7134 36.3111C33.455 36.3159 33.455 36.3159 33.1915 36.3207C33.0266 36.3208 32.8617 36.3209 32.6918 36.321C32.5489 36.3224 32.4059 36.3237 32.2586 36.3252C31.7488 36.2253 31.5651 36.0308 31.25 35.625C31.093 34.6586 31.3054 34.1553 31.8609 33.3686C31.9494 33.2495 32.0378 33.1305 32.1289 33.0078C32.2203 32.8798 32.3116 32.7518 32.4058 32.6199C32.5987 32.3497 32.7928 32.0804 32.9879 31.8118C33.3635 31.2926 33.7295 30.7672 34.0954 30.2413C34.3681 29.8495 34.642 29.4586 34.9164 29.068C35.3748 28.4153 35.8325 27.762 36.2898 27.1085C36.4707 26.85 36.6517 26.5916 36.8328 26.3333C37.3085 25.6548 37.782 24.9748 38.2526 24.2926C38.3506 24.1511 38.4486 24.0096 38.5495 23.8639C38.7365 23.5937 38.9229 23.3231 39.1086 23.0521C40.4391 21.1344 40.4391 21.1344 41.2598 21.1621ZM39.8438 26.7188C39.5933 27.067 39.351 27.4178 39.1113 27.7735C38.9558 28.002 38.8002 28.2305 38.6444 28.4589C38.5609 28.5814 38.4774 28.704 38.3914 28.8302C37.9232 29.5132 37.4479 30.1911 36.9727 30.8692C36.8817 30.9991 36.7907 31.1291 36.697 31.263C36.6095 31.3878 36.522 31.5126 36.4319 31.6413C36.3486 31.7603 36.2652 31.8794 36.1794 32.002C36.0213 32.2254 35.8614 32.4474 35.6993 32.6678C35.2946 33.1573 35.2946 33.1573 35.1563 33.75C36.7547 33.75 38.3531 33.75 40 33.75C40 31.4297 40 29.1094 40 26.7188C39.9484 26.7188 39.8969 26.7188 39.8438 26.7188Z" fill="#044D91"/>
<path d="M30.6116 59.917C30.7318 59.9164 30.8521 59.9158 30.976 59.9152C31.2305 59.9147 31.4851 59.9159 31.7396 59.9185C32.1244 59.9218 32.5088 59.9186 32.8937 59.9145C34.6226 59.9114 36.0959 60.0625 37.417 61.2964C38.535 62.5399 38.7988 63.7954 38.8025 65.4272C38.804 65.6694 38.804 65.6694 38.8056 65.9164C38.8072 66.2574 38.8079 66.5983 38.8079 66.9392C38.8086 67.457 38.8143 67.9746 38.8202 68.4924C38.8211 68.8249 38.8217 69.1573 38.822 69.4897C38.8243 69.6428 38.8265 69.7958 38.8288 69.9535C38.8195 71.3728 38.4359 72.6152 37.4536 73.667C36.3449 74.6638 35.1838 75.048 33.6999 75.0525C33.5779 75.0535 33.4559 75.0546 33.3301 75.0556C33.0735 75.0572 32.8169 75.058 32.5603 75.0579C32.168 75.0586 31.7759 75.0643 31.3837 75.0702C31.1336 75.0711 30.8836 75.0717 30.6335 75.072C30.5167 75.0743 30.3998 75.0765 30.2794 75.0788C29.7826 75.0745 29.4469 75.0491 29.0318 74.7655C28.6342 74.2146 28.6625 73.706 28.6691 73.0518C28.668 72.9186 28.6669 72.7854 28.6658 72.6481C28.663 72.2081 28.6649 71.7682 28.667 71.3281C28.6666 71.0222 28.666 70.7163 28.6652 70.4105C28.6642 69.7695 28.6656 69.1285 28.6685 68.4875C28.6721 67.6657 28.67 66.8441 28.6663 66.0223C28.664 65.3907 28.6647 64.7591 28.6664 64.1275C28.6668 63.8244 28.6663 63.5214 28.6648 63.2184C28.6632 62.7949 28.6656 62.3717 28.6691 61.9482C28.6679 61.8229 28.6666 61.6975 28.6653 61.5684C28.6737 61.0165 28.7045 60.6878 29.0324 60.2348C29.5358 59.8898 30.0223 59.9105 30.6116 59.917ZM31.25 62.5C31.25 65.8 31.25 69.1 31.25 72.5C33.4557 72.6453 33.4557 72.6453 35.4028 71.8298C36.4226 70.7338 36.3036 69.2525 36.2993 67.8585C36.2988 67.5214 36.3025 67.1846 36.3064 66.8475C36.3443 64.9897 36.3443 64.9897 35.582 63.3485C34.363 62.2179 32.8158 62.5 31.25 62.5Z" fill="#044D91"/>
<path d="M55.1918 59.9289C55.4357 59.929 55.4357 59.929 55.6846 59.9291C55.9463 59.9339 55.9463 59.9339 56.2134 59.9389C56.4826 59.9402 56.4826 59.9402 56.7572 59.9415C57.3304 59.945 57.9034 59.9529 58.4766 59.9608C58.8651 59.964 59.2537 59.9668 59.6423 59.9694C60.5949 59.9763 61.5474 59.9871 62.5 59.9999C62.5 60.8249 62.5 61.6499 62.5 62.4999C60.4375 62.4999 58.375 62.4999 56.25 62.4999C56.25 63.7374 56.25 64.9749 56.25 66.2499C58.3125 66.2499 60.375 66.2499 62.5 66.2499C62.5 67.0749 62.5 67.8999 62.5 68.7499C60.4375 68.7499 58.375 68.7499 56.25 68.7499C56.25 69.9874 56.25 71.2249 56.25 72.4999C58.3125 72.4999 60.375 72.4999 62.5 72.4999C62.5 73.3249 62.5 74.1499 62.5 74.9999C61.3543 75.0153 60.2087 75.0267 59.0629 75.0342C58.6731 75.0374 58.2833 75.0416 57.8935 75.0471C57.3334 75.0546 56.7735 75.0582 56.2134 75.0609C56.0389 75.0642 55.8644 75.0674 55.6846 75.0707C55.4407 75.0708 55.4407 75.0708 55.1918 75.0709C55.0488 75.0722 54.9059 75.0736 54.7586 75.0751C54.2243 74.9704 54.0571 74.8252 53.75 74.3749C53.6883 73.9143 53.6645 73.5121 53.6691 73.0517C53.668 72.9185 53.6669 72.7853 53.6658 72.648C53.663 72.208 53.6649 71.7681 53.667 71.328C53.6666 71.0221 53.666 70.7162 53.6652 70.4104C53.6642 69.7694 53.6656 69.1284 53.6685 68.4874C53.6721 67.6656 53.67 66.844 53.6663 66.0222C53.664 65.3906 53.6647 64.759 53.6664 64.1274C53.6668 63.8244 53.6663 63.5213 53.6648 63.2183C53.6632 62.7949 53.6656 62.3716 53.6691 61.9481C53.6679 61.8228 53.6666 61.6975 53.6653 61.5683C53.6735 61.0267 53.7079 60.6866 54.0165 60.2341C54.4468 59.953 54.6804 59.924 55.1918 59.9289Z" fill="#044D91"/>
<path d="M43.1116 59.9169C43.2318 59.9163 43.3521 59.9157 43.476 59.9151C43.7305 59.9146 43.9851 59.9158 44.2396 59.9184C44.6244 59.9217 45.0088 59.9185 45.3937 59.9144C47.1226 59.9113 48.5959 60.0624 49.917 61.2963C51.0723 62.5812 51.3409 63.9428 51.2988 65.6267C51.2247 66.937 50.6602 68.0316 49.6875 68.9061C48.361 69.9036 47.195 70.0442 45.5664 70.0194C44.6673 70.0098 44.6673 70.0098 43.75 69.9999C43.75 71.6499 43.75 73.2999 43.75 74.9999C42.925 74.9999 42.1 74.9999 41.25 74.9999C41.2355 73.1364 41.2244 71.273 41.2176 69.4095C41.2144 68.5442 41.2099 67.679 41.2029 66.8137C41.1961 65.9789 41.1923 65.1441 41.1907 64.3093C41.1895 63.9906 41.1873 63.6719 41.1839 63.3532C41.1794 62.9072 41.1788 62.4614 41.1791 62.0154C41.1768 61.8833 41.1746 61.7511 41.1722 61.6149C41.1764 61.0236 41.1808 60.7217 41.5318 60.2305C42.0366 59.8913 42.5239 59.9104 43.1116 59.9169ZM43.75 62.4999C43.75 64.1499 43.75 65.7999 43.75 67.4999C45.9591 67.6589 45.9591 67.6589 47.9083 66.8023C48.5472 66.0662 48.6493 65.5605 48.6371 64.6154C48.5729 64.0273 48.3621 63.7158 47.9688 63.2811C46.6282 62.2258 45.5428 62.4999 43.75 62.4999Z" fill="#044D91"/>
<path d="M17.5 60C18.325 60 19.15 60 20 60C20 64.125 20 68.25 20 72.5C22.0625 72.5 24.125 72.5 26.25 72.5C26.25 73.325 26.25 74.15 26.25 75C25.1043 75.0154 23.9587 75.0268 22.813 75.0343C22.4231 75.0375 22.0333 75.0417 21.6435 75.0471C21.0835 75.0547 20.5235 75.0583 19.9634 75.061C19.7889 75.0643 19.6144 75.0675 19.4346 75.0708C19.1907 75.0709 19.1907 75.0709 18.9418 75.071C18.7989 75.0723 18.6559 75.0737 18.5086 75.0752C17.9716 74.9699 17.8064 74.8301 17.5 74.375C17.4119 73.9109 17.421 73.4556 17.429 72.9845C17.4289 72.774 17.4289 72.774 17.4288 72.5593C17.4292 72.096 17.4341 71.6328 17.439 71.1694C17.4401 70.848 17.441 70.5266 17.4416 70.2052C17.444 69.3596 17.4502 68.514 17.4571 67.6684C17.4635 66.8054 17.4663 65.9424 17.4695 65.0793C17.4762 63.3862 17.4869 61.6931 17.5 60Z" fill="#044D91"/>
</svg>
