<svg width="100" height="100" viewBox="0 0 100 100" fill="none" xmlns="http://www.w3.org/2000/svg">
<path d="M53.5156 5.4688C55.1484 6.67777 56.1253 8.15225 57.0923 9.89995C57.2358 10.1528 57.3797 10.4055 57.5239 10.658C57.8126 11.164 58.0997 11.6708 58.3856 12.1785C58.9448 13.1692 59.5256 14.147 60.1074 15.1246C60.3099 15.4666 60.5124 15.8086 60.7147 16.1507C60.8143 16.3189 60.9139 16.4871 61.0165 16.6605C61.3498 17.2242 61.6823 17.7883 62.0148 18.3526C62.1286 18.5457 62.2425 18.7388 62.3598 18.9378C62.576 19.3045 62.7921 19.6713 63.0079 20.0382C63.6053 21.0508 64.2163 22.0527 64.8438 23.0469C65.4442 22.8286 65.9819 22.5684 66.5283 22.2413C67.1875 21.875 67.1875 21.875 67.7734 21.875C67.8576 23.1259 67.941 24.3768 68.0238 25.6278C68.052 26.0529 68.0804 26.4779 68.109 26.903C68.1502 27.5158 68.1908 28.1287 68.2312 28.7415C68.244 28.93 68.2568 29.1184 68.27 29.3126C68.3379 30.3518 68.3722 31.3805 68.3594 32.4219C67.5685 32.1393 66.925 31.7555 66.23 31.2859C66.1216 31.2131 66.0131 31.1403 65.9014 31.0653C65.5524 30.8306 65.2042 30.5948 64.856 30.3589C64.3812 30.0389 63.906 29.7193 63.4308 29.3999C63.3153 29.3222 63.1998 29.2445 63.0809 29.1644C61.9981 28.4373 60.8984 27.7404 59.7878 27.0569C59.5834 26.9089 59.5834 26.9089 59.375 26.7579C59.375 26.629 59.375 26.5 59.375 26.3672C59.7563 26.1164 60.1491 25.883 60.5469 25.6592C60.7644 25.5359 60.9819 25.4125 61.2061 25.2854C61.3752 25.1912 61.5444 25.0971 61.7188 25C61.0935 23.7069 60.4172 22.4653 59.668 21.2403C59.4601 20.897 59.2523 20.5537 59.0446 20.2103C58.9381 20.0344 58.8316 19.8585 58.7218 19.6772C58.1893 18.7937 57.6651 17.9052 57.1411 17.0167C56.9846 16.7516 56.9846 16.7516 56.8248 16.4811C56.2738 15.5478 55.7242 14.6137 55.1758 13.6788C55.0634 13.4875 54.9509 13.2963 54.8351 13.0992C54.6219 12.7367 54.4092 12.3738 54.197 12.0107C53.0011 9.64968 53.0011 9.64968 50.9766 8.20318C49.8842 8.06187 48.9852 8.07382 48.0158 8.66843C47.199 9.38628 46.7278 10.4024 46.2036 11.3404C46.0682 11.5766 45.9325 11.8127 45.7963 12.0485C45.5137 12.5389 45.2327 13.0301 44.9528 13.522C44.2944 14.6755 43.6119 15.8146 42.9321 16.9556C42.6716 17.395 42.4112 17.8344 42.1509 18.274C42.0257 18.4852 41.9006 18.6964 41.7717 18.9141C41.214 19.856 40.6569 20.7983 40.1001 21.7408C39.9979 21.9138 39.8956 22.0867 39.7903 22.265C39.2664 23.1515 38.7433 24.0385 38.221 24.926C37.6943 25.8207 37.1658 26.7143 36.6356 27.6069C36.4291 27.9549 36.2231 28.3031 36.0176 28.6516C35.7241 29.1485 35.4283 29.644 35.1318 30.1392C35.0441 30.2887 34.9563 30.4382 34.8659 30.5922C34.2467 31.6183 34.2467 31.6183 33.5938 31.836C33.1362 31.5949 32.7182 31.3492 32.2876 31.0669C32.1691 30.9915 32.0507 30.9161 31.9286 30.8384C31.6362 30.6519 31.3453 30.4629 31.0547 30.2735C31.7093 28.8754 32.4754 27.5568 33.2756 26.2391C33.8496 25.2937 34.4115 24.3414 34.9731 23.3887C36.0105 21.6309 37.0501 19.8745 38.0912 18.1189C38.8751 16.797 39.6575 15.4743 40.4367 14.1496C40.8467 13.4541 41.2591 12.7601 41.6716 12.0661C42.0158 11.4836 42.3556 10.8985 42.6956 10.3135C42.933 9.91106 43.1705 9.50873 43.4082 9.1065C43.5141 8.92189 43.62 8.73727 43.7291 8.54707C44.7166 6.89066 46.0006 5.46096 47.8645 4.80962C49.774 4.40281 51.8142 4.45308 53.5156 5.4688Z" fill="#044D91"/>
<path d="M71.6837 35.1812C72.193 35.4057 72.319 35.643 72.5922 36.1252C72.736 36.3743 72.736 36.3743 72.8828 36.6284C72.9853 36.8113 73.0878 36.9942 73.1934 37.1826C73.4201 37.5769 73.6469 37.9711 73.8739 38.3652C74.0531 38.6789 74.0531 38.6789 74.2359 38.999C74.8697 40.1012 75.5218 41.1925 76.1719 42.2852C76.4378 42.7334 76.7035 43.1818 76.9691 43.6302C77.098 43.8476 77.2268 44.065 77.3595 44.289C78.2294 45.7577 79.0974 47.2276 79.9655 48.6974C80.3851 49.4079 80.8049 50.1183 81.2248 50.8286C81.4354 51.1852 81.6459 51.5418 81.8562 51.8986C82.4056 52.8301 82.9583 53.7594 83.5159 54.686C83.6887 54.9745 83.6887 54.9745 83.865 55.2689C84.0844 55.6352 84.3049 56.001 84.5264 56.366C85.7192 58.3625 86.2969 60.143 85.9375 62.5C85.3571 64.3216 84.2817 65.7848 82.5806 66.6748C81.7876 67.0463 81.0733 67.2121 80.197 67.211C80.0267 67.2113 79.8563 67.2116 79.6808 67.2118C79.4955 67.2111 79.3102 67.2104 79.1193 67.2097C78.923 67.2097 78.7266 67.2098 78.5244 67.2098C77.8755 67.2097 77.2266 67.2081 76.5778 67.2066C76.1278 67.2062 75.6779 67.206 75.228 67.2058C74.0438 67.205 72.8597 67.2031 71.6755 67.2009C70.4671 67.1989 69.2588 67.1981 68.0504 67.1971C65.6794 67.195 63.3085 67.1916 60.9375 67.1875C60.9375 68.2188 60.9375 69.25 60.9375 70.3125C60.1871 70.0624 59.5684 69.8475 58.8796 69.501C58.7154 69.419 58.5513 69.3369 58.3822 69.2523C58.1221 69.1208 58.1221 69.1208 57.8568 68.9865C57.5861 68.8508 57.5861 68.8508 57.31 68.7123C56.7366 68.4245 56.1637 68.1356 55.5908 67.8467C55.201 67.6508 54.8111 67.455 54.4212 67.2592C53.4679 66.7804 52.515 66.3007 51.5625 65.8203C51.5625 65.6914 51.5625 65.5625 51.5625 65.4297C52.8343 64.7889 54.1067 64.1492 55.3796 63.5104C55.8128 63.2928 56.2459 63.075 56.6789 62.8568C57.3 62.5439 57.9216 62.2319 58.5434 61.9202C58.7379 61.8219 58.9324 61.7237 59.1328 61.6224C59.4026 61.4875 59.4026 61.4875 59.6778 61.3499C59.9159 61.2302 59.9159 61.2302 60.1588 61.1081C60.5469 60.9375 60.5469 60.9375 60.9375 60.9375C60.9375 61.9688 60.9375 63 60.9375 64.0625C63.3264 64.0506 65.7153 64.0355 68.1041 64.0165C69.2135 64.0078 70.3228 64.0001 71.4322 63.9949C72.5036 63.9898 73.5749 63.9819 74.6463 63.9721C75.0542 63.9688 75.4621 63.9666 75.8701 63.9653C76.4432 63.9634 77.0163 63.958 77.5894 63.9517C77.7565 63.9519 77.9237 63.9522 78.096 63.9525C79.4979 63.9309 80.7503 63.7081 81.8359 62.7808C82.457 62.0239 82.5163 61.4978 82.4971 60.5355C82.4145 59.9047 82.243 59.5327 81.9267 58.9836C81.8199 58.7963 81.7131 58.609 81.6031 58.416C81.4283 58.1173 81.4283 58.1173 81.25 57.8125C81.1321 57.6082 81.0142 57.4039 80.8927 57.1935C80.5018 56.5193 80.1074 55.8473 79.7119 55.1758C79.566 54.9275 79.4201 54.6791 79.2742 54.4308C77.9113 52.1121 76.5396 49.7988 75.167 47.486C74.5072 46.3733 73.8491 45.2596 73.1917 44.1456C72.6533 43.2332 72.1134 42.3218 71.5714 41.4116C71.3994 41.1223 71.3994 41.1223 71.224 40.8271C71.006 40.4603 70.7876 40.0938 70.5687 39.7276C69.9838 38.7424 69.4443 37.7503 68.9453 36.7188C71.2891 35.1563 71.2891 35.1563 71.6837 35.1812Z" fill="#044D91"/>
<path d="M30.2735 34.9609C30.151 38.4824 29.936 41.9934 29.6876 45.5078C28.7877 45.3469 28.2538 45.0452 27.5132 44.5236C27.3928 44.4617 27.2725 44.3997 27.1485 44.3359C26.4439 44.5708 26.4023 44.7139 26.0544 45.3445C25.9597 45.5138 25.8649 45.6831 25.7672 45.8576C25.6171 46.1316 25.6171 46.1316 25.4639 46.4111C25.2518 46.7905 25.0395 47.1696 24.8269 47.5487C24.7228 47.7351 24.6187 47.9215 24.5115 48.1135C24.1368 48.7782 23.7481 49.4333 23.3521 50.0854C21.7747 52.6938 20.2291 55.3213 18.7012 57.959C18.6102 58.116 18.5193 58.2731 18.4255 58.4349C17.7143 59.6659 17.4194 60.4586 17.5782 61.9141C18.0383 62.8875 18.5351 63.2856 19.5313 63.6719C20.2391 63.8431 20.899 63.8934 21.6263 63.8981C21.8495 63.9 22.0727 63.9019 22.3027 63.9039C22.5457 63.905 22.7888 63.9061 23.0392 63.9073C23.2965 63.9092 23.5538 63.9112 23.8189 63.9131C24.523 63.9184 25.2271 63.9225 25.9312 63.9264C26.6676 63.9307 27.404 63.9361 28.1404 63.9413C29.5341 63.951 30.9279 63.9598 32.3217 63.9682C33.9088 63.9779 35.4958 63.9886 37.0829 63.9994C40.3469 64.0216 43.611 64.0425 46.8751 64.0625C46.8751 65.0938 46.8751 66.125 46.8751 67.1875C43.2672 67.2056 39.6594 67.2195 36.0515 67.228C34.3762 67.232 32.7009 67.2375 31.0256 67.2464C29.5648 67.2542 28.104 67.2593 26.6431 67.261C25.8702 67.262 25.0973 67.2644 24.3243 67.2701C23.5956 67.2754 22.8668 67.277 22.138 67.2759C21.7456 67.2762 21.3532 67.2804 20.9608 67.2847C18.8898 67.2753 17.2979 66.8522 15.7723 65.416C14.5911 64.1164 13.9927 62.7575 13.9893 60.9985C13.9845 60.8703 13.9797 60.742 13.9748 60.6098C13.9637 58.6886 14.9965 57.0736 15.9669 55.481C16.1937 55.1028 16.4206 54.7247 16.6474 54.3465C16.7669 54.1484 16.8863 53.9502 17.0094 53.7461C17.6603 52.6635 18.3022 51.5755 18.9454 50.4883C19.2088 50.0437 19.4723 49.5992 19.7358 49.1547C20.4656 47.923 21.1951 46.6912 21.9239 45.459C22.0264 45.2859 22.1288 45.1128 22.2344 44.9345C22.7732 44.023 23.3055 43.1084 23.8282 42.1875C23.663 42.1392 23.4979 42.0908 23.3277 42.041C22.5813 41.7696 21.9691 41.4236 21.2891 41.0156C21.2891 40.8867 21.2891 40.7578 21.2891 40.625C21.563 40.3979 21.563 40.3979 21.9518 40.1448C22.0966 40.0496 22.2414 39.9544 22.3906 39.8563C22.5493 39.754 22.708 39.6516 22.8715 39.5462C23.0334 39.4402 23.1954 39.3343 23.3622 39.2251C23.8829 38.8848 24.4048 38.5464 24.9268 38.208C25.2745 37.9813 25.6222 37.7544 25.9698 37.5275C26.7522 37.0167 27.5354 36.5069 28.3197 35.9989C28.6771 35.7644 29.0292 35.5235 29.3811 35.2809C29.8829 34.9609 29.8829 34.9609 30.2735 34.9609Z" fill="#044D91"/>
<path d="M51.5747 26.4526C52.4338 26.5754 52.6089 26.676 53.125 27.3437C53.2211 27.8425 53.2211 27.8425 53.2189 28.4164C53.22 28.6344 53.2211 28.8524 53.2222 29.0771C53.2194 29.3153 53.2166 29.5536 53.2137 29.7991C53.2138 30.0506 53.2139 30.3022 53.214 30.5614C53.2143 31.2506 53.2097 31.9397 53.2042 32.6289C53.1993 33.3494 53.1989 34.0699 53.1979 34.7904C53.1955 36.1545 53.1891 37.5185 53.1813 38.8825C53.1725 40.4356 53.1682 41.9886 53.1643 43.5417C53.1561 46.7361 53.1423 49.9306 53.125 53.125C54.6719 53.125 56.2188 53.125 57.8125 53.125C57.8125 54.1562 57.8125 55.1875 57.8125 56.25C53.6875 56.25 49.5625 56.25 45.3125 56.25C45.3125 55.2187 45.3125 54.1875 45.3125 53.125C46.8594 53.125 48.4062 53.125 50 53.125C49.9033 43.6504 49.9033 43.6504 49.8047 33.9844C48.8379 35.4023 47.8711 36.8203 46.875 38.2812C46.6816 38.3779 46.6816 38.3779 46.4844 38.4766C46.0917 38.2358 45.7015 37.9909 45.3125 37.7441C45.095 37.6082 44.8774 37.4722 44.6533 37.3321C44.4841 37.1942 44.3149 37.0562 44.1406 36.9141C44.1406 36.0875 44.2112 35.9281 44.6451 35.2707C44.7553 35.1019 44.8656 34.933 44.9792 34.7591C45.1 34.5782 45.2208 34.3973 45.3453 34.211C45.4687 34.0236 45.5921 33.8363 45.7193 33.6433C45.981 33.2469 46.2435 32.8511 46.5069 32.4559C46.9087 31.8525 47.3073 31.2472 47.7055 30.6415C47.9602 30.2565 48.2152 29.8716 48.4703 29.4868C48.5892 29.3064 48.708 29.1259 48.8305 28.9399C50.5177 26.4169 50.5177 26.4169 51.5747 26.4526Z" fill="#044D91"/>
<path d="M45.5523 74.9112C45.8572 74.9113 45.8572 74.9113 46.1683 74.9114C46.4955 74.9175 46.4955 74.9175 46.8293 74.9236C47.1658 74.9253 47.1658 74.9253 47.509 74.927C48.2255 74.9314 48.9418 74.9412 49.6582 74.9511C50.144 74.955 50.6297 74.9586 51.1155 74.9618C52.3062 74.9704 53.4969 74.9839 54.6875 74.9999C54.6875 76.0312 54.6875 77.0624 54.6875 78.1249C52.1094 78.1249 49.5313 78.1249 46.875 78.1249C46.875 79.6718 46.875 81.2187 46.875 82.8124C49.4532 82.8124 52.0313 82.8124 54.6875 82.8124C54.6875 83.8437 54.6875 84.8749 54.6875 85.9374C52.1094 85.9374 49.5313 85.9374 46.875 85.9374C46.875 87.4843 46.875 89.0312 46.875 90.6249C49.4532 90.6249 52.0313 90.6249 54.6875 90.6249C54.6875 91.6562 54.6875 92.6874 54.6875 93.7499C53.2555 93.7692 51.8234 93.7834 50.3912 93.7929C49.904 93.7968 49.4167 93.8021 48.9295 93.8089C48.2294 93.8183 47.5294 93.8228 46.8293 93.8262C46.6111 93.8303 46.393 93.8343 46.1683 93.8384C45.8634 93.8385 45.8634 93.8385 45.5523 93.8386C45.3736 93.8404 45.1949 93.8421 45.0108 93.8439C44.3429 93.713 44.1339 93.5316 43.75 92.9687C43.673 92.3929 43.6431 91.8902 43.649 91.3146C43.6476 91.1481 43.6462 90.9816 43.6448 90.8101C43.6414 90.26 43.6436 89.7102 43.6463 89.1601C43.6458 88.7777 43.645 88.3954 43.644 88.013C43.6429 87.2118 43.6445 86.4106 43.6482 85.6094C43.6526 84.5821 43.6501 83.555 43.6454 82.5278C43.6426 81.7383 43.6435 80.9488 43.6455 80.1593C43.646 79.7805 43.6454 79.4017 43.6436 79.023C43.6416 78.4936 43.6446 77.9646 43.649 77.4352C43.6474 77.2786 43.6458 77.1219 43.6442 76.9605C43.6545 76.2835 43.6974 75.8584 44.0832 75.2927C44.6211 74.9413 44.913 74.905 45.5523 74.9112Z" fill="#044D91"/>
<path d="M30.452 74.8963C30.6023 74.8955 30.7527 74.8948 30.9075 74.894C31.2257 74.8935 31.5439 74.8949 31.862 74.8982C32.3431 74.9023 32.8236 74.8982 33.3046 74.8932C35.4657 74.8893 37.3074 75.0782 38.9588 76.6205C40.4028 78.2267 40.7387 79.9286 40.6861 82.0336C40.5934 83.6714 39.8878 85.0397 38.6719 86.1329C37.0138 87.3797 35.5563 87.5554 33.5205 87.5245C32.3966 87.5124 32.3966 87.5124 31.25 87.5C31.25 89.5625 31.25 91.625 31.25 93.75C30.2188 93.75 29.1875 93.75 28.125 93.75C28.1069 91.4207 28.0931 89.0914 28.0846 86.762C28.0805 85.6804 28.0749 84.5989 28.0661 83.5173C28.0576 82.4738 28.0529 81.4303 28.0509 80.3868C28.0495 79.9884 28.0466 79.59 28.0424 79.1916C28.0368 78.6342 28.036 78.0769 28.0363 77.5195C28.0335 77.3542 28.0307 77.189 28.0278 77.0188C28.033 76.2796 28.0386 75.9023 28.4773 75.2883C29.1083 74.8643 29.7174 74.8882 30.452 74.8963ZM31.25 78.125C31.25 80.1875 31.25 82.25 31.25 84.375C34.0115 84.5738 34.0115 84.5738 36.4479 83.503C37.2466 82.5829 37.3742 81.9508 37.3589 80.7694C37.2786 80.0343 37.0151 79.645 36.5235 79.1016C34.8478 77.7825 33.4911 78.125 31.25 78.125Z" fill="#044D91"/>
<path d="M57.8125 75C61.9375 75 66.0625 75 70.3125 75C70.3125 76.0312 70.3125 77.0625 70.3125 78.125C68.7656 78.125 67.2188 78.125 65.625 78.125C65.625 83.2812 65.625 88.4375 65.625 93.75C64.5938 93.75 63.5625 93.75 62.5 93.75C62.5 88.5938 62.5 83.4375 62.5 78.125C60.9531 78.125 59.4062 78.125 57.8125 78.125C57.8125 77.0938 57.8125 76.0625 57.8125 75Z" fill="#044D91"/>
</svg>
