<svg width="80" height="80" viewBox="0 0 80 80" fill="none" xmlns="http://www.w3.org/2000/svg">
<path d="M42.8125 4.37504C44.1187 5.34221 44.9002 6.5218 45.6738 7.91996C45.7886 8.12227 45.9037 8.32441 46.0191 8.52638C46.2501 8.93118 46.4798 9.33666 46.7085 9.74278C47.1559 10.5354 47.6205 11.3176 48.0859 12.0996C48.248 12.3732 48.4099 12.6469 48.5718 12.9206C48.6514 13.0551 48.7311 13.1897 48.8132 13.3284C49.0798 13.7793 49.3459 14.2307 49.6118 14.682C49.7029 14.8365 49.794 14.991 49.8878 15.1502C50.0608 15.4436 50.2336 15.7371 50.4063 16.0306C50.8842 16.8407 51.373 17.6422 51.875 18.4375C52.3554 18.2629 52.7855 18.0548 53.2227 17.793C53.75 17.5 53.75 17.5 54.2188 17.5C54.2861 18.5007 54.3528 19.5015 54.419 20.5022C54.4416 20.8423 54.4643 21.1824 54.4872 21.5224C54.5202 22.0126 54.5526 22.5029 54.585 22.9932C54.5952 23.144 54.6055 23.2947 54.616 23.4501C54.6703 24.2815 54.6978 25.1044 54.6875 25.9375C54.0548 25.7115 53.54 25.4044 52.984 25.0287C52.8973 24.9705 52.8105 24.9122 52.7211 24.8522C52.4419 24.6645 52.1633 24.4759 51.8848 24.2871C51.5049 24.0311 51.1248 23.7755 50.7446 23.5199C50.6523 23.4578 50.5599 23.3956 50.4647 23.3315C49.5985 22.7498 48.7187 22.1923 47.8302 21.6455C47.6668 21.5271 47.6668 21.5271 47.5 21.4063C47.5 21.3032 47.5 21.2 47.5 21.0938C47.805 20.8932 48.1193 20.7064 48.4375 20.5274C48.6115 20.4287 48.7855 20.33 48.9648 20.2283C49.1002 20.153 49.2355 20.0777 49.375 20C48.8748 18.9655 48.3338 17.9722 47.7344 16.9922C47.568 16.7176 47.4018 16.443 47.2357 16.1683C47.1505 16.0275 47.0653 15.8868 46.9775 15.7418C46.5514 15.0349 46.1321 14.3242 45.7129 13.6133C45.5876 13.4012 45.5876 13.4012 45.4599 13.1849C45.019 12.4382 44.5793 11.6909 44.1406 10.943C44.0507 10.79 43.9607 10.637 43.8681 10.4794C43.6976 10.1893 43.5274 9.89907 43.3576 9.60858C42.4009 7.71974 42.4009 7.71974 40.7812 6.56254C39.9074 6.4495 39.1882 6.45905 38.4127 6.93474C37.7592 7.50902 37.3822 8.32195 36.9629 9.07231C36.8546 9.26131 36.746 9.45015 36.6371 9.63883C36.411 10.0311 36.1862 10.4241 35.9622 10.8176C35.4355 11.7404 34.8895 12.6517 34.3457 13.5645C34.1373 13.916 33.9289 14.2676 33.7207 14.6192C33.6206 14.7882 33.5205 14.9572 33.4174 15.1313C32.9712 15.8848 32.5256 16.6387 32.0801 17.3926C31.9983 17.531 31.9165 17.6694 31.8322 17.812C31.4131 18.5212 30.9946 19.2308 30.5768 19.9408C30.1554 20.6566 29.7326 21.3714 29.3085 22.0855C29.1433 22.3639 28.9785 22.6425 28.8141 22.9213C28.5793 23.3188 28.3426 23.7152 28.1055 24.1114C28.0353 24.231 27.965 24.3505 27.8927 24.4738C27.3974 25.2947 27.3974 25.2947 26.875 25.4688C26.5089 25.276 26.1745 25.0793 25.8301 24.8536C25.7353 24.7932 25.6405 24.7329 25.5429 24.6708C25.3089 24.5215 25.0762 24.3703 24.8438 24.2188C25.3675 23.1003 25.9803 22.0455 26.6205 20.9913C27.0797 20.235 27.5292 19.4731 27.9785 18.711C28.8084 17.3047 29.64 15.8996 30.4729 14.4951C31.1001 13.4376 31.726 12.3794 32.3494 11.3197C32.6773 10.7633 33.0073 10.2081 33.3372 9.6529C33.6126 9.18684 33.8845 8.71879 34.1565 8.25077C34.3464 7.92885 34.5364 7.60699 34.7266 7.2852C34.8113 7.13751 34.896 6.98982 34.9833 6.83766C35.7733 5.51253 36.8005 4.36877 38.2916 3.8477C39.8192 3.52225 41.4514 3.56247 42.8125 4.37504Z" fill="#044D91"/>
<path d="M57.347 28.1448C57.7544 28.3245 57.8552 28.5143 58.0737 28.9001C58.1888 29.0993 58.1888 29.0993 58.3063 29.3026C58.3883 29.4489 58.4702 29.5953 58.5547 29.746C58.7361 30.0614 58.9175 30.3768 59.0991 30.6921C59.2425 30.9431 59.2425 30.9431 59.3887 31.1991C59.8958 32.0809 60.4174 32.9539 60.9375 33.8281C61.1503 34.1866 61.3628 34.5454 61.5753 34.9041C61.6784 35.078 61.7814 35.2519 61.8876 35.4311C62.5835 36.6061 63.2779 37.782 63.9724 38.9578C64.3081 39.5262 64.6439 40.0945 64.9798 40.6628C65.1483 40.948 65.3167 41.2334 65.485 41.5187C65.9245 42.2639 66.3666 43.0074 66.8127 43.7487C66.951 43.9795 66.951 43.9795 67.092 44.215C67.2675 44.5081 67.4439 44.8007 67.6212 45.0927C68.5754 46.6899 69.0375 48.1143 68.75 49.9999C68.2857 51.4572 67.4254 52.6277 66.0645 53.3398C65.4301 53.6369 64.8586 53.7696 64.1576 53.7687C64.0213 53.7689 63.8851 53.7691 63.7447 53.7694C63.5964 53.7688 63.4482 53.7682 63.2954 53.7677C63.1384 53.7677 62.9813 53.7677 62.8195 53.7677C62.3004 53.7676 61.7813 53.7664 61.2622 53.7652C60.9023 53.7649 60.5423 53.7647 60.1824 53.7645C59.2351 53.7639 58.2877 53.7624 57.3404 53.7607C56.3737 53.7591 55.407 53.7583 54.4403 53.7576C52.5435 53.7559 50.6468 53.7532 48.75 53.7499C48.75 54.5749 48.75 55.3999 48.75 56.2499C48.1496 56.0498 47.6547 55.8779 47.1037 55.6007C46.9723 55.5351 46.841 55.4694 46.7057 55.4017C46.4977 55.2965 46.4977 55.2965 46.2854 55.1891C46.0689 55.0806 46.0689 55.0806 45.848 54.9698C45.3893 54.7395 44.931 54.5084 44.4727 54.2773C44.1608 54.1206 43.8489 53.9639 43.537 53.8073C42.7743 53.4242 42.012 53.0405 41.25 52.6562C41.25 52.5531 41.25 52.4499 41.25 52.3437C42.2675 51.831 43.2854 51.3193 44.3037 50.8083C44.6503 50.6342 44.9967 50.4599 45.3431 50.2853C45.84 50.035 46.3373 49.7854 46.8347 49.5361C46.9903 49.4574 47.1459 49.3788 47.3062 49.2978C47.5221 49.1899 47.5221 49.1899 47.7422 49.0798C47.9327 48.9841 47.9327 48.9841 48.1271 48.8864C48.4375 48.7499 48.4375 48.7499 48.75 48.7499C48.75 49.5749 48.75 50.3999 48.75 51.2499C50.6611 51.2403 52.5722 51.2283 54.4833 51.2131C55.3708 51.2061 56.2582 51.2 57.1457 51.1958C58.0028 51.1917 58.8599 51.1854 59.717 51.1776C60.0434 51.175 60.3697 51.1731 60.6961 51.1722C61.1546 51.1707 61.613 51.1663 62.0715 51.1612C62.2052 51.1615 62.339 51.1617 62.4768 51.1619C63.5983 51.1446 64.6002 50.9664 65.4688 50.2245C65.9656 49.619 66.013 49.1981 65.9977 48.4283C65.9316 47.9236 65.7944 47.6261 65.5414 47.1868C65.4559 47.0369 65.3705 46.8871 65.2825 46.7327C65.1427 46.4937 65.1427 46.4937 65 46.2499C64.9057 46.0865 64.8113 45.9231 64.7142 45.7547C64.4015 45.2153 64.0859 44.6777 63.7695 44.1406C63.6528 43.9419 63.5361 43.7432 63.4193 43.5445C62.3291 41.6896 61.2317 39.839 60.1336 37.9887C59.6057 37.0986 59.0793 36.2076 58.5534 35.3164C58.1226 34.5865 57.6907 33.8574 57.2571 33.1292C57.1195 32.8977 57.1195 32.8977 56.9792 32.6616C56.8048 32.3681 56.6301 32.0749 56.455 31.782C55.9871 30.9938 55.5554 30.2001 55.1562 29.3749C57.0312 28.1249 57.0312 28.1249 57.347 28.1448Z" fill="#044D91"/>
<path d="M24.2187 27.9688C24.1207 30.7859 23.9487 33.5947 23.7499 36.4062C23.0301 36.2775 22.6029 36.0362 22.0104 35.6189C21.9142 35.5693 21.8179 35.5198 21.7187 35.4688C21.155 35.6566 21.1218 35.7711 20.8435 36.2756C20.7676 36.4111 20.6918 36.5465 20.6137 36.6861C20.4936 36.9053 20.4936 36.9053 20.371 37.1289C20.2014 37.4324 20.0315 37.7357 19.8614 38.0389C19.7781 38.1881 19.6949 38.3372 19.6091 38.4908C19.3094 39.0226 18.9983 39.5466 18.6816 40.0684C17.4197 42.1551 16.1832 44.2571 14.9609 46.3672C14.8881 46.4928 14.8153 46.6185 14.7403 46.7479C14.1713 47.7327 13.9355 48.3669 14.0624 49.5312C14.4306 50.31 14.828 50.6285 15.6249 50.9375C16.1912 51.0744 16.7191 51.1147 17.3009 51.1185C17.4795 51.12 17.6581 51.1215 17.842 51.1231C18.0365 51.124 18.2309 51.1249 18.4312 51.1258C18.6371 51.1274 18.8429 51.1289 19.055 51.1305C19.6183 51.1347 20.1816 51.138 20.7449 51.1411C21.334 51.1446 21.9231 51.1488 22.5122 51.153C23.6272 51.1608 24.7422 51.1678 25.8573 51.1746C27.1269 51.1823 28.3965 51.1909 29.6662 51.1995C32.2774 51.2173 34.8887 51.234 37.5 51.25C37.5 52.075 37.5 52.9 37.5 53.75C34.6137 53.7645 31.7274 53.7756 28.8411 53.7824C27.5008 53.7856 26.1606 53.79 24.8204 53.7971C23.6517 53.8034 22.4831 53.8074 21.3144 53.8088C20.696 53.8096 20.0777 53.8115 19.4594 53.8161C18.8763 53.8204 18.2934 53.8216 17.7103 53.8207C17.3964 53.8209 17.0825 53.8243 16.7686 53.8278C15.1117 53.8203 13.8383 53.4818 12.6177 52.3328C11.6728 51.2931 11.194 50.206 11.1914 48.7988C11.1875 48.6962 11.1837 48.5936 11.1798 48.4879C11.1708 46.9509 11.9971 45.6589 12.7734 44.3848C12.9549 44.0823 13.1364 43.7797 13.3178 43.4772C13.4134 43.3187 13.509 43.1602 13.6074 42.9969C14.1282 42.1308 14.6417 41.2604 15.1562 40.3906C15.3669 40.035 15.5777 39.6793 15.7885 39.3237C16.3724 38.3384 16.956 37.353 17.539 36.3672C17.621 36.2287 17.703 36.0902 17.7874 35.9476C18.2185 35.2184 18.6443 34.4867 19.0624 33.75C18.9303 33.7113 18.7982 33.6727 18.6621 33.6328C18.0649 33.4157 17.5752 33.1389 17.0312 32.8125C17.0312 32.7094 17.0312 32.6062 17.0312 32.5C17.2503 32.3183 17.2503 32.3183 17.5614 32.1159C17.6772 32.0397 17.7931 31.9635 17.9124 31.8851C18.0394 31.8032 18.1663 31.7213 18.2971 31.637C18.4266 31.5522 18.5562 31.4674 18.6897 31.3801C19.1063 31.1078 19.5238 30.8371 19.9414 30.5664C20.2195 30.385 20.4977 30.2036 20.7757 30.022C21.4017 29.6133 22.0282 29.2055 22.6556 28.7991C22.9416 28.6115 23.2232 28.4188 23.5048 28.2247C23.9062 27.9688 23.9062 27.9688 24.2187 27.9688Z" fill="#044D91"/>
<path d="M43.4376 23.75C43.5731 24.0746 43.7061 24.4004 43.838 24.7266C43.9123 24.9078 43.9866 25.0891 44.0632 25.2759C44.2188 25.7812 44.2188 25.7812 44.2359 26.1237C43.9402 26.6058 43.4194 26.7613 42.92 26.9824C39.7319 28.4888 37.3786 31.0108 35.9376 34.2188C36.1116 34.1414 36.2856 34.0641 36.4649 33.9844C38.0154 33.4716 40.0069 33.5138 41.5021 34.1687C43.083 35.0432 44.3318 36.341 44.8969 38.0804C45.273 39.9522 45.1632 41.8611 44.1395 43.5028C43.1488 44.8783 41.8385 45.912 40.1563 46.25C38.2161 46.4591 36.5018 46.293 34.8829 45.127C33.0451 43.5785 32.4213 41.7185 32.1876 39.375C31.8815 35.7029 33.435 31.892 35.7746 29.118C35.9326 28.9359 35.9326 28.9359 36.0938 28.75C36.1975 28.6237 36.3013 28.4974 36.4081 28.3673C37.891 26.6214 40.9931 23.75 43.4376 23.75ZM35.8301 37.6678C35.1416 38.726 35.0422 39.6888 35.1563 40.9375C35.4762 42.0014 36.1707 42.7664 37.1192 43.3301C38.0422 43.7575 39.0732 43.7607 40.0471 43.4961C41.0065 43.0788 41.7568 42.2787 42.2144 41.3452C42.5178 40.3892 42.5094 39.2833 42.0801 38.3691C41.5637 37.497 40.8243 36.7247 39.8438 36.4062C38.2633 36.1813 36.879 36.3787 35.8301 37.6678Z" fill="#044D91"/>
<path d="M30.6116 59.9169C30.7318 59.9163 30.8521 59.9157 30.976 59.9151C31.2305 59.9146 31.4851 59.9158 31.7396 59.9184C32.1244 59.9217 32.5088 59.9185 32.8937 59.9144C34.6226 59.9113 36.0959 60.0624 37.417 61.2963C38.5723 62.5812 38.8409 63.9428 38.7988 65.6267C38.7247 66.937 38.1602 68.0316 37.1875 68.9061C35.861 69.9036 34.695 70.0442 33.0664 70.0194C32.1673 70.0098 32.1673 70.0098 31.25 69.9999C31.25 71.6499 31.25 73.2999 31.25 74.9999C30.425 74.9999 29.6 74.9999 28.75 74.9999C28.7355 73.1364 28.7244 71.273 28.7176 69.4095C28.7144 68.5442 28.7099 67.679 28.7029 66.8137C28.6961 65.9789 28.6923 65.1441 28.6907 64.3093C28.6895 63.9906 28.6873 63.6719 28.6839 63.3532C28.6794 62.9072 28.6788 62.4614 28.6791 62.0154C28.6768 61.8833 28.6746 61.7511 28.6722 61.6149C28.6764 61.0236 28.6808 60.7217 29.0318 60.2305C29.5366 59.8913 30.0239 59.9104 30.6116 59.9169ZM31.25 62.4999C31.25 64.1499 31.25 65.7999 31.25 67.4999C33.4591 67.6589 33.4591 67.6589 35.4083 66.8023C36.0472 66.0662 36.1493 65.5605 36.1371 64.6154C36.0729 64.0273 35.8621 63.7158 35.4688 63.2811C34.1282 62.2258 33.0428 62.4999 31.25 62.4999Z" fill="#044D91"/>
<path d="M47.7441 60.3125C48.8365 60.9636 49.6307 61.9086 49.9999 63.125C49.9999 63.5375 49.9999 63.95 49.9999 64.375C49.1234 64.375 48.2468 64.375 47.3437 64.375C47.189 64.0141 47.0343 63.6532 46.8749 63.2813C46.4737 62.8206 46.2539 62.813 45.6347 62.7442C44.996 62.7668 44.6681 62.9745 44.2187 63.4375C43.9678 63.9393 43.9883 64.4558 44.0624 65C44.3492 65.5073 44.5602 65.7223 45.0878 65.9668C45.5982 66.0964 45.5982 66.0964 46.018 66.1481C47.4289 66.3511 48.3992 66.8441 49.2871 67.9785C50.1339 69.1584 50.1696 70.4735 49.9999 71.875C49.68 73.027 48.9639 73.8822 47.9687 74.5313C46.7062 75.1723 45.267 75.2496 43.9038 74.8682C42.7915 74.3632 41.9559 73.5169 41.416 72.4219C41.2499 71.875 41.2499 71.875 41.2499 70.625C42.1265 70.625 43.0031 70.625 43.9062 70.625C44.0609 70.986 44.2156 71.3469 44.3749 71.7188C44.7762 72.1794 44.9959 72.1871 45.6152 72.2559C46.2539 72.2332 46.5818 72.0255 47.0312 71.5625C47.2821 71.0608 47.2616 70.5443 47.1874 70C46.9007 69.4927 46.6896 69.2777 46.1621 69.0332C45.6517 68.9037 45.6517 68.9037 45.2319 68.852C43.821 68.649 42.8507 68.156 41.9628 67.0215C41.116 65.8417 41.0803 64.5266 41.2499 63.125C41.5699 61.9731 42.286 61.1179 43.2812 60.4688C44.6304 59.7837 46.3446 59.6772 47.7441 60.3125Z" fill="#044D91"/>
</svg>
