<svg width="80" height="80" viewBox="0 0 80 80" fill="none" xmlns="http://www.w3.org/2000/svg">
<path d="M42.8125 4.37504C44.1187 5.34221 44.9002 6.5218 45.6738 7.91996C45.7886 8.12227 45.9037 8.32441 46.0191 8.52638C46.2501 8.93118 46.4798 9.33666 46.7085 9.74278C47.1559 10.5354 47.6205 11.3176 48.0859 12.0996C48.248 12.3732 48.4099 12.6469 48.5718 12.9206C48.6514 13.0551 48.7311 13.1897 48.8132 13.3284C49.0798 13.7793 49.3459 14.2307 49.6118 14.682C49.7029 14.8365 49.794 14.991 49.8878 15.1502C50.0608 15.4436 50.2336 15.7371 50.4063 16.0306C50.8842 16.8407 51.373 17.6422 51.875 18.4375C52.3554 18.2629 52.7855 18.0548 53.2227 17.793C53.75 17.5 53.75 17.5 54.2188 17.5C54.2861 18.5007 54.3528 19.5015 54.419 20.5022C54.4416 20.8423 54.4643 21.1824 54.4872 21.5224C54.5202 22.0126 54.5526 22.5029 54.585 22.9932C54.5952 23.144 54.6055 23.2947 54.616 23.4501C54.6703 24.2815 54.6978 25.1044 54.6875 25.9375C54.0548 25.7115 53.54 25.4044 52.984 25.0287C52.8973 24.9705 52.8105 24.9122 52.7211 24.8522C52.4419 24.6645 52.1633 24.4759 51.8848 24.2871C51.5049 24.0311 51.1248 23.7755 50.7446 23.5199C50.6523 23.4578 50.5599 23.3956 50.4647 23.3315C49.5985 22.7498 48.7187 22.1923 47.8302 21.6455C47.6668 21.5271 47.6668 21.5271 47.5 21.4063C47.5 21.3032 47.5 21.2 47.5 21.0938C47.805 20.8932 48.1193 20.7064 48.4375 20.5274C48.6115 20.4287 48.7855 20.33 48.9648 20.2283C49.1002 20.153 49.2355 20.0777 49.375 20C48.8748 18.9655 48.3338 17.9722 47.7344 16.9922C47.568 16.7176 47.4018 16.443 47.2357 16.1683C47.1505 16.0275 47.0653 15.8868 46.9775 15.7418C46.5514 15.0349 46.1321 14.3242 45.7129 13.6133C45.5876 13.4012 45.5876 13.4012 45.4599 13.1849C45.019 12.4382 44.5793 11.6909 44.1406 10.943C44.0507 10.79 43.9607 10.637 43.8681 10.4794C43.6976 10.1893 43.5274 9.89907 43.3576 9.60858C42.4009 7.71974 42.4009 7.71974 40.7812 6.56254C39.9074 6.4495 39.1882 6.45905 38.4127 6.93474C37.7592 7.50902 37.3822 8.32195 36.9629 9.07231C36.8546 9.26131 36.746 9.45015 36.6371 9.63883C36.411 10.0311 36.1862 10.4241 35.9622 10.8176C35.4355 11.7404 34.8895 12.6517 34.3457 13.5645C34.1373 13.916 33.9289 14.2676 33.7207 14.6192C33.6206 14.7882 33.5205 14.9572 33.4174 15.1313C32.9712 15.8848 32.5256 16.6387 32.0801 17.3926C31.9983 17.531 31.9165 17.6694 31.8322 17.812C31.4131 18.5212 30.9946 19.2308 30.5768 19.9408C30.1554 20.6566 29.7326 21.3714 29.3085 22.0855C29.1433 22.3639 28.9785 22.6425 28.8141 22.9213C28.5793 23.3188 28.3426 23.7152 28.1055 24.1114C28.0353 24.231 27.965 24.3505 27.8927 24.4738C27.3974 25.2947 27.3974 25.2947 26.875 25.4688C26.5089 25.276 26.1745 25.0793 25.8301 24.8536C25.7353 24.7932 25.6405 24.7329 25.5429 24.6708C25.3089 24.5215 25.0762 24.3703 24.8438 24.2188C25.3675 23.1003 25.9803 22.0455 26.6205 20.9913C27.0797 20.235 27.5292 19.4731 27.9785 18.711C28.8084 17.3047 29.64 15.8996 30.4729 14.4951C31.1001 13.4376 31.726 12.3794 32.3494 11.3197C32.6773 10.7633 33.0073 10.2081 33.3372 9.6529C33.6126 9.18684 33.8845 8.71879 34.1565 8.25077C34.3464 7.92885 34.5364 7.60699 34.7266 7.2852C34.8113 7.13751 34.896 6.98982 34.9833 6.83766C35.7733 5.51253 36.8005 4.36877 38.2916 3.8477C39.8192 3.52225 41.4514 3.56247 42.8125 4.37504Z" fill="#044D91"/>
<path d="M57.347 28.1448C57.7544 28.3245 57.8552 28.5143 58.0737 28.9001C58.1888 29.0993 58.1888 29.0993 58.3063 29.3026C58.3883 29.4489 58.4702 29.5953 58.5547 29.746C58.7361 30.0614 58.9175 30.3768 59.0991 30.6921C59.2425 30.9431 59.2425 30.9431 59.3887 31.1991C59.8958 32.0809 60.4174 32.9539 60.9375 33.8281C61.1503 34.1866 61.3628 34.5454 61.5753 34.9041C61.6784 35.078 61.7814 35.2519 61.8876 35.4311C62.5835 36.6061 63.2779 37.782 63.9724 38.9578C64.3081 39.5262 64.6439 40.0945 64.9798 40.6628C65.1483 40.948 65.3167 41.2334 65.485 41.5187C65.9245 42.2639 66.3666 43.0074 66.8127 43.7487C66.951 43.9795 66.951 43.9795 67.092 44.215C67.2675 44.5081 67.4439 44.8007 67.6212 45.0927C68.5754 46.6899 69.0375 48.1143 68.75 49.9999C68.2857 51.4572 67.4254 52.6277 66.0645 53.3398C65.4301 53.6369 64.8586 53.7696 64.1576 53.7687C64.0213 53.7689 63.8851 53.7691 63.7447 53.7694C63.5964 53.7688 63.4482 53.7682 63.2954 53.7677C63.1384 53.7677 62.9813 53.7677 62.8195 53.7677C62.3004 53.7676 61.7813 53.7664 61.2622 53.7652C60.9023 53.7649 60.5423 53.7647 60.1824 53.7645C59.2351 53.7639 58.2877 53.7624 57.3404 53.7607C56.3737 53.7591 55.407 53.7583 54.4403 53.7576C52.5435 53.7559 50.6468 53.7532 48.75 53.7499C48.75 54.5749 48.75 55.3999 48.75 56.2499C48.1496 56.0498 47.6547 55.8779 47.1037 55.6007C46.9723 55.5351 46.841 55.4694 46.7057 55.4017C46.4977 55.2965 46.4977 55.2965 46.2854 55.1891C46.0689 55.0806 46.0689 55.0806 45.848 54.9698C45.3893 54.7395 44.931 54.5084 44.4727 54.2773C44.1608 54.1206 43.8489 53.9639 43.537 53.8073C42.7743 53.4242 42.012 53.0405 41.25 52.6562C41.25 52.5531 41.25 52.4499 41.25 52.3437C42.2675 51.831 43.2854 51.3193 44.3037 50.8083C44.6503 50.6342 44.9967 50.4599 45.3431 50.2853C45.84 50.035 46.3373 49.7854 46.8347 49.5361C46.9903 49.4574 47.1459 49.3788 47.3062 49.2978C47.5221 49.1899 47.5221 49.1899 47.7422 49.0798C47.9327 48.9841 47.9327 48.9841 48.1271 48.8864C48.4375 48.7499 48.4375 48.7499 48.75 48.7499C48.75 49.5749 48.75 50.3999 48.75 51.2499C50.6611 51.2403 52.5722 51.2283 54.4833 51.2131C55.3708 51.2061 56.2582 51.2 57.1457 51.1958C58.0028 51.1917 58.8599 51.1854 59.717 51.1776C60.0434 51.175 60.3697 51.1731 60.6961 51.1722C61.1546 51.1707 61.613 51.1663 62.0715 51.1612C62.2052 51.1615 62.339 51.1617 62.4768 51.1619C63.5983 51.1446 64.6002 50.9664 65.4688 50.2245C65.9656 49.619 66.013 49.1981 65.9977 48.4283C65.9316 47.9236 65.7944 47.6261 65.5414 47.1868C65.4559 47.0369 65.3705 46.8871 65.2825 46.7327C65.1427 46.4937 65.1427 46.4937 65 46.2499C64.9057 46.0865 64.8113 45.9231 64.7142 45.7547C64.4015 45.2153 64.0859 44.6777 63.7695 44.1406C63.6528 43.9419 63.5361 43.7432 63.4193 43.5445C62.3291 41.6896 61.2317 39.839 60.1336 37.9887C59.6057 37.0986 59.0793 36.2076 58.5534 35.3164C58.1226 34.5865 57.6907 33.8574 57.2571 33.1292C57.1195 32.8977 57.1195 32.8977 56.9792 32.6616C56.8048 32.3681 56.6301 32.0749 56.455 31.782C55.9871 30.9938 55.5554 30.2001 55.1562 29.3749C57.0312 28.1249 57.0312 28.1249 57.347 28.1448Z" fill="#044D91"/>
<path d="M24.2187 27.9688C24.1207 30.7859 23.9487 33.5947 23.7499 36.4062C23.0301 36.2775 22.6029 36.0362 22.0104 35.6189C21.9142 35.5693 21.8179 35.5198 21.7187 35.4688C21.155 35.6566 21.1218 35.7711 20.8435 36.2756C20.7676 36.4111 20.6918 36.5465 20.6137 36.6861C20.4936 36.9053 20.4936 36.9053 20.371 37.1289C20.2014 37.4324 20.0315 37.7357 19.8614 38.0389C19.7781 38.1881 19.6949 38.3372 19.6091 38.4908C19.3094 39.0226 18.9983 39.5466 18.6816 40.0684C17.4197 42.1551 16.1832 44.2571 14.9609 46.3672C14.8881 46.4928 14.8153 46.6185 14.7403 46.7479C14.1713 47.7327 13.9355 48.3669 14.0624 49.5312C14.4306 50.31 14.828 50.6285 15.6249 50.9375C16.1912 51.0744 16.7191 51.1147 17.3009 51.1185C17.4795 51.12 17.6581 51.1215 17.842 51.1231C18.0365 51.124 18.2309 51.1249 18.4312 51.1258C18.6371 51.1274 18.8429 51.1289 19.055 51.1305C19.6183 51.1347 20.1816 51.138 20.7449 51.1411C21.334 51.1446 21.9231 51.1488 22.5122 51.153C23.6272 51.1608 24.7422 51.1678 25.8573 51.1746C27.1269 51.1823 28.3965 51.1909 29.6662 51.1995C32.2774 51.2173 34.8887 51.234 37.5 51.25C37.5 52.075 37.5 52.9 37.5 53.75C34.6137 53.7645 31.7274 53.7756 28.8411 53.7824C27.5008 53.7856 26.1606 53.79 24.8204 53.7971C23.6517 53.8034 22.4831 53.8074 21.3144 53.8088C20.696 53.8096 20.0777 53.8115 19.4594 53.8161C18.8763 53.8204 18.2934 53.8216 17.7103 53.8207C17.3964 53.8209 17.0825 53.8243 16.7686 53.8278C15.1117 53.8203 13.8383 53.4818 12.6177 52.3328C11.6728 51.2931 11.194 50.206 11.1914 48.7988C11.1875 48.6962 11.1837 48.5936 11.1798 48.4879C11.1708 46.9509 11.9971 45.6589 12.7734 44.3848C12.9549 44.0823 13.1364 43.7797 13.3178 43.4772C13.4134 43.3187 13.509 43.1602 13.6074 42.9969C14.1282 42.1308 14.6417 41.2604 15.1562 40.3906C15.3669 40.035 15.5777 39.6793 15.7885 39.3237C16.3724 38.3384 16.956 37.353 17.539 36.3672C17.621 36.2287 17.703 36.0902 17.7874 35.9476C18.2185 35.2184 18.6443 34.4867 19.0624 33.75C18.9303 33.7113 18.7982 33.6727 18.6621 33.6328C18.0649 33.4157 17.5752 33.1389 17.0312 32.8125C17.0312 32.7094 17.0312 32.6062 17.0312 32.5C17.2503 32.3183 17.2503 32.3183 17.5614 32.1159C17.6772 32.0397 17.7931 31.9635 17.9124 31.8851C18.0394 31.8032 18.1663 31.7213 18.2971 31.637C18.4266 31.5522 18.5562 31.4674 18.6897 31.3801C19.1063 31.1078 19.5238 30.8371 19.9414 30.5664C20.2195 30.385 20.4977 30.2036 20.7757 30.022C21.4017 29.6133 22.0282 29.2055 22.6556 28.7991C22.9416 28.6115 23.2232 28.4188 23.5048 28.2247C23.9062 27.9688 23.9062 27.9688 24.2187 27.9688Z" fill="#044D91"/>
<path d="M35.3858 21.2323C35.5413 21.2323 35.5413 21.2323 35.7 21.2322C36.0432 21.2323 36.3865 21.2335 36.7297 21.2348C36.9675 21.2351 37.2053 21.2353 37.443 21.2354C38.0693 21.236 38.6955 21.2376 39.3218 21.2393C39.9607 21.2409 40.5995 21.2416 41.2384 21.2424C42.4923 21.2441 43.7461 21.2468 45 21.25C45 22.075 45 22.9 45 23.75C42.1125 23.8016 39.225 23.8532 36.25 23.9063C35.9922 25.9688 35.7344 28.0313 35.4688 30.1563C35.7008 30.0789 35.7008 30.0789 35.9375 30C38.4502 29.7761 40.5089 30.0844 42.5 31.7188C43.7763 32.7946 44.7501 34.2689 45 35.9375C45.2233 38.6634 44.8153 40.6802 43.0225 42.807C41.7715 44.1553 40.1643 44.948 38.335 45.0495C35.8734 45.132 34.0115 44.6761 32.16 42.9676C31.9025 42.7126 31.6513 42.4545 31.4062 42.1875C31.6087 41.5802 31.8872 41.4356 32.4023 41.0645C32.555 40.9527 32.7077 40.8409 32.865 40.7257C33.2812 40.4688 33.2812 40.4688 33.75 40.4688C33.9598 40.728 34.1679 40.9886 34.375 41.25C35.6889 42.2009 37.0069 42.3913 38.5938 42.1875C39.95 41.8498 40.8724 41.1799 41.6113 39.9903C42.3347 38.758 42.4092 37.3448 42.0807 35.954C41.5795 34.6002 40.8204 33.7872 39.5544 33.1165C38.5152 32.6592 37.3606 32.6911 36.25 32.8125C35.7335 33.0178 35.2734 33.2647 34.7906 33.5388C34.1726 33.8529 33.8047 33.8714 33.125 33.75C32.6879 33.4181 32.5184 33.2408 32.4311 32.6928C32.4364 32.5303 32.4416 32.3677 32.447 32.2003C32.4527 32.0197 32.4585 31.839 32.4644 31.6529C32.5207 30.7689 32.6119 29.8931 32.7228 29.0143C32.7459 28.8252 32.7691 28.6361 32.793 28.4412C32.8419 28.0453 32.8914 27.6494 32.9416 27.2536C33.0178 26.6485 33.0909 26.0429 33.1638 25.4373C33.2119 25.0509 33.2602 24.6644 33.3087 24.278C33.341 24.0077 33.341 24.0077 33.3739 23.732C33.5809 22.1358 33.5809 22.1358 34.0625 21.4063C34.5087 21.1832 34.8871 21.2314 35.3858 21.2323Z" fill="#044D91"/>
<path d="M43.1115 59.9169C43.2317 59.9163 43.352 59.9157 43.4759 59.9151C43.7304 59.9146 43.9849 59.9158 44.2395 59.9184C44.6243 59.9217 45.0087 59.9185 45.3936 59.9144C47.1224 59.9113 48.5958 60.0624 49.9169 61.2963C51.0721 62.5812 51.3408 63.9428 51.2987 65.6267C51.2246 66.937 50.6601 68.0316 49.6874 68.9061C48.3609 69.9036 47.1949 70.0442 45.5663 70.0194C44.6672 70.0098 44.6672 70.0098 43.7499 69.9999C43.7499 71.6499 43.7499 73.2999 43.7499 74.9999C42.9249 74.9999 42.0999 74.9999 41.2499 74.9999C41.2354 73.1364 41.2243 71.273 41.2175 69.4095C41.2142 68.5442 41.2098 67.679 41.2027 66.8137C41.1959 65.9789 41.1922 65.1441 41.1906 64.3093C41.1894 63.9906 41.1872 63.6719 41.1838 63.3532C41.1793 62.9072 41.1786 62.4614 41.1789 62.0154C41.1767 61.8833 41.1744 61.7511 41.1721 61.6149C41.1763 61.0236 41.1807 60.7217 41.5317 60.2305C42.0365 59.8913 42.5237 59.9104 43.1115 59.9169ZM43.7499 62.4999C43.7499 64.1499 43.7499 65.7999 43.7499 67.4999C45.959 67.6589 45.959 67.6589 47.9082 66.8023C48.5471 66.0662 48.6492 65.5605 48.637 64.6154C48.5727 64.0273 48.3619 63.7158 47.9686 63.2811C46.6281 62.2258 45.5427 62.4999 43.7499 62.4999Z" fill="#044D91"/>
<path d="M30.6115 59.9169C30.7317 59.9163 30.852 59.9157 30.9759 59.9151C31.2304 59.9146 31.4849 59.9158 31.7395 59.9184C32.1243 59.9217 32.5087 59.9185 32.8936 59.9144C34.6224 59.9113 36.0958 60.0624 37.4169 61.2963C38.5721 62.5812 38.8408 63.9428 38.7987 65.6267C38.7246 66.937 38.1601 68.0316 37.1874 68.9061C35.8609 69.9036 34.6949 70.0442 33.0663 70.0194C32.1672 70.0098 32.1672 70.0098 31.2499 69.9999C31.2499 71.6499 31.2499 73.2999 31.2499 74.9999C30.4249 74.9999 29.5999 74.9999 28.7499 74.9999C28.7354 73.1364 28.7243 71.273 28.7175 69.4095C28.7142 68.5442 28.7098 67.679 28.7027 66.8137C28.6959 65.9789 28.6922 65.1441 28.6906 64.3093C28.6894 63.9906 28.6872 63.6719 28.6838 63.3532C28.6793 62.9072 28.6786 62.4614 28.6789 62.0154C28.6767 61.8833 28.6744 61.7511 28.6721 61.6149C28.6763 61.0236 28.6807 60.7217 29.0317 60.2305C29.5365 59.8913 30.0237 59.9104 30.6115 59.9169ZM31.2499 62.4999C31.2499 64.1499 31.2499 65.7999 31.2499 67.4999C33.459 67.6589 33.459 67.6589 35.4082 66.8023C36.0471 66.0662 36.1492 65.5605 36.137 64.6154C36.0727 64.0273 35.8619 63.7158 35.4686 63.2811C34.1281 62.2258 33.0427 62.4999 31.2499 62.4999Z" fill="#044D91"/>
</svg>
