<svg width="100" height="100" viewBox="0 0 100 100" fill="none" xmlns="http://www.w3.org/2000/svg">
<path d="M53.5156 5.4688C55.1484 6.67777 56.1253 8.15225 57.0923 9.89995C57.2358 10.1528 57.3797 10.4055 57.5239 10.658C57.8126 11.164 58.0997 11.6708 58.3856 12.1785C58.9448 13.1692 59.5256 14.147 60.1074 15.1246C60.3099 15.4666 60.5124 15.8086 60.7147 16.1507C60.8143 16.3189 60.9139 16.4871 61.0165 16.6605C61.3498 17.2242 61.6823 17.7883 62.0148 18.3526C62.1286 18.5457 62.2425 18.7388 62.3598 18.9378C62.576 19.3045 62.7921 19.6713 63.0079 20.0382C63.6053 21.0508 64.2163 22.0527 64.8438 23.0469C65.4442 22.8286 65.9819 22.5684 66.5283 22.2413C67.1875 21.875 67.1875 21.875 67.7734 21.875C67.8576 23.1259 67.941 24.3768 68.0238 25.6278C68.052 26.0529 68.0804 26.4779 68.109 26.903C68.1502 27.5158 68.1908 28.1287 68.2312 28.7415C68.244 28.93 68.2568 29.1184 68.27 29.3126C68.3379 30.3518 68.3722 31.3805 68.3594 32.4219C67.5685 32.1393 66.925 31.7555 66.23 31.2859C66.1216 31.2131 66.0131 31.1403 65.9014 31.0653C65.5524 30.8306 65.2042 30.5948 64.856 30.3589C64.3812 30.0389 63.906 29.7193 63.4308 29.3999C63.3153 29.3222 63.1998 29.2445 63.0809 29.1644C61.9981 28.4373 60.8984 27.7404 59.7878 27.0569C59.5834 26.9089 59.5834 26.9089 59.375 26.7579C59.375 26.629 59.375 26.5 59.375 26.3672C59.7563 26.1164 60.1491 25.883 60.5469 25.6592C60.7644 25.5359 60.9819 25.4125 61.2061 25.2854C61.3752 25.1912 61.5444 25.0971 61.7188 25C61.0935 23.7069 60.4172 22.4653 59.668 21.2403C59.4601 20.897 59.2523 20.5537 59.0446 20.2103C58.9381 20.0344 58.8316 19.8585 58.7218 19.6772C58.1893 18.7937 57.6651 17.9052 57.1411 17.0167C56.9846 16.7516 56.9846 16.7516 56.8248 16.4811C56.2738 15.5478 55.7242 14.6137 55.1758 13.6788C55.0634 13.4875 54.9509 13.2963 54.8351 13.0992C54.6219 12.7367 54.4092 12.3738 54.197 12.0107C53.0011 9.64968 53.0011 9.64968 50.9766 8.20318C49.8842 8.06187 48.9852 8.07382 48.0158 8.66843C47.199 9.38628 46.7278 10.4024 46.2036 11.3404C46.0682 11.5766 45.9325 11.8127 45.7963 12.0485C45.5137 12.5389 45.2327 13.0301 44.9528 13.522C44.2944 14.6755 43.6119 15.8146 42.9321 16.9556C42.6716 17.395 42.4112 17.8344 42.1509 18.274C42.0257 18.4852 41.9006 18.6964 41.7717 18.9141C41.214 19.856 40.6569 20.7983 40.1001 21.7408C39.9979 21.9138 39.8956 22.0867 39.7903 22.265C39.2664 23.1515 38.7433 24.0385 38.221 24.926C37.6943 25.8207 37.1658 26.7143 36.6356 27.6069C36.4291 27.9549 36.2231 28.3031 36.0176 28.6516C35.7241 29.1485 35.4283 29.644 35.1318 30.1392C35.0441 30.2887 34.9563 30.4382 34.8659 30.5922C34.2467 31.6183 34.2467 31.6183 33.5938 31.836C33.1362 31.5949 32.7182 31.3492 32.2876 31.0669C32.1691 30.9915 32.0507 30.9161 31.9286 30.8384C31.6362 30.6519 31.3453 30.4629 31.0547 30.2735C31.7093 28.8754 32.4754 27.5568 33.2756 26.2391C33.8496 25.2937 34.4115 24.3414 34.9731 23.3887C36.0105 21.6309 37.0501 19.8745 38.0912 18.1189C38.8751 16.797 39.6575 15.4743 40.4367 14.1496C40.8467 13.4541 41.2591 12.7601 41.6716 12.0661C42.0158 11.4836 42.3556 10.8985 42.6956 10.3135C42.933 9.91106 43.1705 9.50873 43.4082 9.1065C43.5141 8.92189 43.62 8.73727 43.7291 8.54707C44.7166 6.89066 46.0006 5.46096 47.8645 4.80962C49.774 4.40281 51.8142 4.45308 53.5156 5.4688Z" fill="#044D91"/>
<path d="M71.6837 35.1812C72.193 35.4057 72.319 35.643 72.5922 36.1252C72.736 36.3743 72.736 36.3743 72.8828 36.6284C72.9853 36.8113 73.0878 36.9942 73.1934 37.1826C73.4201 37.5769 73.6469 37.9711 73.8739 38.3652C74.0531 38.6789 74.0531 38.6789 74.2359 38.999C74.8697 40.1012 75.5218 41.1925 76.1719 42.2852C76.4378 42.7334 76.7035 43.1818 76.9691 43.6302C77.098 43.8476 77.2268 44.065 77.3595 44.289C78.2294 45.7577 79.0974 47.2276 79.9655 48.6974C80.3851 49.4079 80.8049 50.1183 81.2248 50.8286C81.4354 51.1852 81.6459 51.5418 81.8562 51.8986C82.4056 52.8301 82.9583 53.7594 83.5159 54.686C83.6887 54.9745 83.6887 54.9745 83.865 55.2689C84.0844 55.6352 84.3049 56.001 84.5264 56.366C85.7192 58.3625 86.2969 60.143 85.9375 62.5C85.3571 64.3216 84.2817 65.7848 82.5806 66.6748C81.7876 67.0463 81.0733 67.2121 80.197 67.211C80.0267 67.2113 79.8563 67.2116 79.6808 67.2118C79.4955 67.2111 79.3102 67.2104 79.1193 67.2097C78.923 67.2097 78.7266 67.2098 78.5244 67.2098C77.8755 67.2097 77.2266 67.2081 76.5778 67.2066C76.1278 67.2062 75.6779 67.206 75.228 67.2058C74.0438 67.205 72.8597 67.2031 71.6755 67.2009C70.4671 67.1989 69.2588 67.1981 68.0504 67.1971C65.6794 67.195 63.3085 67.1916 60.9375 67.1875C60.9375 68.2188 60.9375 69.25 60.9375 70.3125C60.1871 70.0624 59.5684 69.8475 58.8796 69.501C58.7154 69.419 58.5513 69.3369 58.3822 69.2523C58.1221 69.1208 58.1221 69.1208 57.8568 68.9865C57.5861 68.8508 57.5861 68.8508 57.31 68.7123C56.7366 68.4245 56.1637 68.1356 55.5908 67.8467C55.201 67.6508 54.8111 67.455 54.4212 67.2592C53.4679 66.7804 52.515 66.3007 51.5625 65.8203C51.5625 65.6914 51.5625 65.5625 51.5625 65.4297C52.8343 64.7889 54.1067 64.1492 55.3796 63.5104C55.8128 63.2928 56.2459 63.075 56.6789 62.8568C57.3 62.5439 57.9216 62.2319 58.5434 61.9202C58.7379 61.8219 58.9324 61.7237 59.1328 61.6224C59.4026 61.4875 59.4026 61.4875 59.6778 61.3499C59.9159 61.2302 59.9159 61.2302 60.1588 61.1081C60.5469 60.9375 60.5469 60.9375 60.9375 60.9375C60.9375 61.9688 60.9375 63 60.9375 64.0625C63.3264 64.0506 65.7153 64.0355 68.1041 64.0165C69.2135 64.0078 70.3228 64.0001 71.4322 63.9949C72.5036 63.9898 73.5749 63.9819 74.6463 63.9721C75.0542 63.9688 75.4621 63.9666 75.8701 63.9653C76.4432 63.9634 77.0163 63.958 77.5894 63.9517C77.7565 63.9519 77.9237 63.9522 78.096 63.9525C79.4979 63.9309 80.7503 63.7081 81.8359 62.7808C82.457 62.0239 82.5163 61.4978 82.4971 60.5355C82.4145 59.9047 82.243 59.5327 81.9267 58.9836C81.8199 58.7963 81.7131 58.609 81.6031 58.416C81.4283 58.1173 81.4283 58.1173 81.25 57.8125C81.1321 57.6082 81.0142 57.4039 80.8927 57.1935C80.5018 56.5193 80.1074 55.8473 79.7119 55.1758C79.566 54.9275 79.4201 54.6791 79.2742 54.4308C77.9113 52.1121 76.5396 49.7988 75.167 47.486C74.5072 46.3733 73.8491 45.2596 73.1917 44.1456C72.6533 43.2332 72.1134 42.3218 71.5714 41.4116C71.3994 41.1223 71.3994 41.1223 71.224 40.8271C71.006 40.4603 70.7876 40.0938 70.5687 39.7276C69.9838 38.7424 69.4443 37.7503 68.9453 36.7188C71.2891 35.1563 71.2891 35.1563 71.6837 35.1812Z" fill="#044D91"/>
<path d="M30.2735 34.9609C30.151 38.4824 29.936 41.9934 29.6876 45.5078C28.7877 45.3469 28.2538 45.0452 27.5132 44.5236C27.3928 44.4617 27.2725 44.3997 27.1485 44.3359C26.4439 44.5708 26.4023 44.7139 26.0544 45.3445C25.9597 45.5138 25.8649 45.6831 25.7672 45.8576C25.6171 46.1316 25.6171 46.1316 25.4639 46.4111C25.2518 46.7905 25.0395 47.1696 24.8269 47.5487C24.7228 47.7351 24.6187 47.9215 24.5115 48.1135C24.1368 48.7782 23.7481 49.4333 23.3521 50.0854C21.7747 52.6938 20.2291 55.3213 18.7012 57.959C18.6102 58.116 18.5193 58.2731 18.4255 58.4349C17.7143 59.6659 17.4194 60.4586 17.5782 61.9141C18.0383 62.8875 18.5351 63.2856 19.5313 63.6719C20.2391 63.8431 20.899 63.8934 21.6263 63.8981C21.8495 63.9 22.0727 63.9019 22.3027 63.9039C22.5457 63.905 22.7888 63.9061 23.0392 63.9073C23.2965 63.9092 23.5538 63.9112 23.8189 63.9131C24.523 63.9184 25.2271 63.9225 25.9312 63.9264C26.6676 63.9307 27.404 63.9361 28.1404 63.9413C29.5341 63.951 30.9279 63.9598 32.3217 63.9682C33.9088 63.9779 35.4958 63.9886 37.0829 63.9994C40.3469 64.0216 43.611 64.0425 46.8751 64.0625C46.8751 65.0938 46.8751 66.125 46.8751 67.1875C43.2672 67.2056 39.6594 67.2195 36.0515 67.228C34.3762 67.232 32.7009 67.2375 31.0256 67.2464C29.5648 67.2542 28.104 67.2593 26.6431 67.261C25.8702 67.262 25.0973 67.2644 24.3243 67.2701C23.5956 67.2754 22.8668 67.277 22.138 67.2759C21.7456 67.2762 21.3532 67.2804 20.9608 67.2847C18.8898 67.2753 17.2979 66.8522 15.7723 65.416C14.5911 64.1164 13.9927 62.7575 13.9893 60.9985C13.9845 60.8703 13.9797 60.742 13.9748 60.6098C13.9637 58.6886 14.9965 57.0736 15.9669 55.481C16.1937 55.1028 16.4206 54.7247 16.6474 54.3465C16.7669 54.1484 16.8863 53.9502 17.0094 53.7461C17.6603 52.6635 18.3022 51.5755 18.9454 50.4883C19.2088 50.0437 19.4723 49.5992 19.7358 49.1547C20.4656 47.923 21.1951 46.6912 21.9239 45.459C22.0264 45.2859 22.1288 45.1128 22.2344 44.9345C22.7732 44.023 23.3055 43.1084 23.8282 42.1875C23.663 42.1392 23.4979 42.0908 23.3277 42.041C22.5813 41.7696 21.9691 41.4236 21.2891 41.0156C21.2891 40.8867 21.2891 40.7578 21.2891 40.625C21.563 40.3979 21.563 40.3979 21.9518 40.1448C22.0966 40.0496 22.2414 39.9544 22.3906 39.8563C22.5493 39.754 22.708 39.6516 22.8715 39.5462C23.0334 39.4402 23.1954 39.3343 23.3622 39.2251C23.8829 38.8848 24.4048 38.5464 24.9268 38.208C25.2745 37.9813 25.6222 37.7544 25.9698 37.5275C26.7522 37.0167 27.5354 36.5069 28.3197 35.9989C28.6771 35.7644 29.0292 35.5235 29.3811 35.2809C29.8829 34.9609 29.8829 34.9609 30.2735 34.9609Z" fill="#044D91"/>
<path d="M54.2511 27.8831C56.0203 29.1889 57.3833 31.0218 57.8125 33.2031C58.1064 35.9429 57.8659 38.3864 56.1279 40.625C55.8458 40.9529 55.5607 41.2782 55.2734 41.6015C55.0066 41.9141 54.7416 42.2281 54.4766 42.5422C54.2914 42.7618 54.1057 42.9811 53.9195 43.1999C53.2528 43.984 52.6081 44.7833 51.9692 45.5902C51.4979 46.1737 51.0121 46.7442 50.5249 47.3144C49.6686 48.3173 48.8446 49.3414 48.0405 50.3866C47.3569 51.27 46.6388 52.0836 45.8984 52.9297C51.7959 53.0263 51.7959 53.0263 57.8125 53.125C57.8125 54.1562 57.8125 55.1875 57.8125 56.25C55.6869 56.2676 53.5613 56.282 51.4357 56.2905C50.4486 56.2945 49.4617 56.3001 48.4747 56.3089C47.5224 56.3174 46.5701 56.3221 45.6177 56.3241C45.2542 56.3255 44.8907 56.3284 44.5272 56.3326C44.0184 56.3382 43.5098 56.339 43.001 56.3387C42.8504 56.3415 42.6998 56.3443 42.5446 56.3472C41.8672 56.342 41.4788 56.3031 40.9251 55.8981C40.5658 55.384 40.4655 54.9707 40.5045 54.3434C40.7381 53.4962 41.3397 52.9103 41.9141 52.2657C42.344 51.7742 42.7537 51.2664 43.1664 50.7604C44.1093 49.6051 45.0645 48.4608 46.0327 47.3266C46.7513 46.4848 47.4422 45.6258 48.1201 44.751C48.8921 43.7552 49.6955 42.7941 50.5249 41.8457C53.5154 38.6171 53.5154 38.6171 54.3907 34.4543C54.2014 33.1121 53.6558 32.0829 52.6611 31.1645C51.1359 30.0165 49.7444 29.857 47.8516 30.0781C46.1853 30.58 45.244 31.5767 44.3604 33.02C43.8398 34.3642 44.0138 36.1229 44.3359 37.5C43.9301 37.6695 43.523 37.8357 43.1152 38.0005C42.8886 38.0934 42.6621 38.1863 42.4286 38.282C41.7969 38.4765 41.7969 38.4765 41.3483 38.4819C41.0156 38.2812 41.0156 38.2812 40.7768 37.7998C40.1921 35.1408 40.4757 32.4314 41.9457 30.1239C44.8329 26.2118 50.1609 25.2776 54.2511 27.8831Z" fill="#044D91"/>
<path d="M38.2645 74.8963C38.4148 74.8955 38.5652 74.8948 38.7201 74.894C39.0382 74.8935 39.3564 74.8949 39.6745 74.8982C40.1556 74.9023 40.6361 74.8983 41.1171 74.8932C43.2783 74.8893 45.1199 75.0782 46.7713 76.6205C48.1688 78.1749 48.4986 79.7443 48.5032 81.7841C48.5051 82.0868 48.5051 82.0868 48.5071 82.3956C48.5091 82.8218 48.51 83.2479 48.5099 83.6741C48.5108 84.3214 48.5179 84.9684 48.5253 85.6156C48.5264 86.0311 48.5272 86.4467 48.5276 86.8622C48.5304 87.0535 48.5332 87.2449 48.5361 87.442C48.5245 89.2161 48.0449 90.7691 46.8171 92.0838C45.4312 93.3298 43.9799 93.8101 42.125 93.8157C41.9724 93.817 41.8199 93.8183 41.6627 93.8196C41.342 93.8216 41.0212 93.8225 40.7005 93.8224C40.2101 93.8233 39.72 93.8304 39.2296 93.8378C38.9171 93.8389 38.6045 93.8397 38.292 93.8401C38.1459 93.8429 37.9998 93.8457 37.8493 93.8486C37.2283 93.8431 36.8087 93.8115 36.2898 93.4569C35.7929 92.7683 35.8282 92.1325 35.8365 91.3148C35.8351 91.1483 35.8337 90.9818 35.8323 90.8102C35.8289 90.2601 35.8311 89.7103 35.8338 89.1602C35.8333 88.7779 35.8325 88.3955 35.8315 88.0131C35.8304 87.2119 35.832 86.4107 35.8357 85.6095C35.8401 84.5822 35.8376 83.5551 35.8329 82.5279C35.8301 81.7384 35.831 80.9489 35.833 80.1594C35.8335 79.7806 35.8329 79.4018 35.8311 79.0231C35.8291 78.4937 35.8321 77.9647 35.8365 77.4354C35.8349 77.2787 35.8333 77.122 35.8317 76.9606C35.8422 76.2706 35.8807 75.8598 36.2905 75.2936C36.9198 74.8622 37.528 74.8882 38.2645 74.8963ZM39.0625 78.1251C39.0625 82.2501 39.0625 86.3751 39.0625 90.6251C41.8197 90.8067 41.8197 90.8067 44.2536 89.7873C45.5283 88.4174 45.3795 86.5656 45.3742 84.8232C45.3736 84.4018 45.3782 83.9808 45.3831 83.5595C45.4304 81.2372 45.4304 81.2372 44.4776 79.1857C42.9538 77.7724 41.0198 78.1251 39.0625 78.1251Z" fill="#044D91"/>
<path d="M20.3125 75C21.3438 75 22.375 75 23.4375 75C23.4375 77.5781 23.4375 80.1562 23.4375 82.8125C25.5 82.8125 27.5625 82.8125 29.6875 82.8125C29.6875 80.2344 29.6875 77.6562 29.6875 75C30.7188 75 31.75 75 32.8125 75C32.8125 81.1875 32.8125 87.375 32.8125 93.75C31.7812 93.75 30.75 93.75 29.6875 93.75C29.6875 91.1719 29.6875 88.5938 29.6875 85.9375C27.625 85.9375 25.5625 85.9375 23.4375 85.9375C23.4375 88.5156 23.4375 91.0938 23.4375 93.75C22.4062 93.75 21.375 93.75 20.3125 93.75C20.3125 87.5625 20.3125 81.375 20.3125 75Z" fill="#044D91"/>
<path d="M68.9898 74.9112C69.2947 74.9113 69.2947 74.9113 69.6058 74.9114C69.933 74.9175 69.933 74.9175 70.2668 74.9236C70.6033 74.9253 70.6033 74.9253 70.9465 74.927C71.663 74.9314 72.3793 74.9412 73.0957 74.9511C73.5815 74.955 74.0672 74.9586 74.553 74.9618C75.7437 74.9704 76.9344 74.9839 78.125 74.9999C78.125 76.0312 78.125 77.0624 78.125 78.1249C75.5469 78.1249 72.9688 78.1249 70.3125 78.1249C70.3125 79.6718 70.3125 81.2187 70.3125 82.8124C72.8907 82.8124 75.4688 82.8124 78.125 82.8124C78.125 83.8437 78.125 84.8749 78.125 85.9374C75.5469 85.9374 72.9688 85.9374 70.3125 85.9374C70.3125 87.4843 70.3125 89.0312 70.3125 90.6249C72.8907 90.6249 75.4688 90.6249 78.125 90.6249C78.125 91.6562 78.125 92.6874 78.125 93.7499C76.693 93.7692 75.2609 93.7834 73.8287 93.7929C73.3415 93.7968 72.8542 93.8021 72.367 93.8089C71.6669 93.8183 70.9669 93.8228 70.2668 93.8262C70.0486 93.8303 69.8305 93.8343 69.6058 93.8384C69.3009 93.8385 69.3009 93.8385 68.9898 93.8386C68.8111 93.8404 68.6324 93.8421 68.4483 93.8439C67.7804 93.713 67.5714 93.5316 67.1875 92.9687C67.1105 92.3929 67.0806 91.8902 67.0865 91.3146C67.0851 91.1481 67.0837 90.9816 67.0823 90.8101C67.0789 90.26 67.0811 89.7102 67.0838 89.1601C67.0833 88.7777 67.0825 88.3954 67.0815 88.013C67.0804 87.2118 67.082 86.4106 67.0857 85.6094C67.0901 84.5821 67.0876 83.555 67.0829 82.5278C67.0801 81.7383 67.081 80.9488 67.083 80.1593C67.0835 79.7805 67.0829 79.4017 67.0811 79.023C67.0791 78.4936 67.0821 77.9646 67.0865 77.4352C67.0849 77.2786 67.0833 77.1219 67.0817 76.9605C67.092 76.2835 67.1349 75.8584 67.5207 75.2927C68.0586 74.9413 68.3505 74.905 68.9898 74.9112Z" fill="#044D91"/>
<path d="M53.8895 74.8963C54.0398 74.8955 54.1902 74.8948 54.345 74.894C54.6632 74.8935 54.9814 74.8949 55.2995 74.8982C55.7806 74.9023 56.2611 74.8982 56.7421 74.8932C58.9032 74.8893 60.7449 75.0782 62.3963 76.6205C63.8403 78.2267 64.1762 79.9286 64.1236 82.0336C64.0309 83.6714 63.3253 85.0397 62.1094 86.1329C60.4513 87.3797 58.9938 87.5554 56.958 87.5245C55.8341 87.5124 55.8341 87.5124 54.6875 87.5C54.6875 89.5625 54.6875 91.625 54.6875 93.75C53.6563 93.75 52.625 93.75 51.5625 93.75C51.5444 91.4207 51.5306 89.0914 51.5221 86.762C51.518 85.6804 51.5124 84.5989 51.5036 83.5173C51.4951 82.4738 51.4904 81.4303 51.4884 80.3868C51.487 79.9884 51.4841 79.59 51.4799 79.1916C51.4743 78.6342 51.4735 78.0769 51.4738 77.5195C51.471 77.3542 51.4682 77.189 51.4653 77.0188C51.4705 76.2796 51.4761 75.9023 51.9148 75.2883C52.5458 74.8643 53.1549 74.8882 53.8895 74.8963ZM54.6875 78.125C54.6875 80.1875 54.6875 82.25 54.6875 84.375C57.449 84.5738 57.449 84.5738 59.8854 83.503C60.6841 82.5829 60.8117 81.9508 60.7964 80.7694C60.7161 80.0343 60.4526 79.645 59.961 79.1016C58.2853 77.7825 56.9286 78.125 54.6875 78.125Z" fill="#044D91"/>
</svg>
