<svg width="80" height="80" viewBox="0 0 80 80" fill="none" xmlns="http://www.w3.org/2000/svg">
<path d="M42.8125 4.37504C44.1187 5.34221 44.9002 6.5218 45.6738 7.91996C45.7886 8.12227 45.9037 8.32441 46.0191 8.52638C46.2501 8.93118 46.4798 9.33666 46.7085 9.74278C47.1559 10.5354 47.6205 11.3176 48.0859 12.0996C48.248 12.3732 48.4099 12.6469 48.5718 12.9206C48.6514 13.0551 48.7311 13.1897 48.8132 13.3284C49.0798 13.7793 49.3459 14.2307 49.6118 14.682C49.7029 14.8365 49.794 14.991 49.8878 15.1502C50.0608 15.4436 50.2336 15.7371 50.4063 16.0306C50.8842 16.8407 51.373 17.6422 51.875 18.4375C52.3554 18.2629 52.7855 18.0548 53.2227 17.793C53.75 17.5 53.75 17.5 54.2188 17.5C54.2861 18.5007 54.3528 19.5015 54.419 20.5022C54.4416 20.8423 54.4643 21.1824 54.4872 21.5224C54.5202 22.0126 54.5526 22.5029 54.585 22.9932C54.5952 23.144 54.6055 23.2947 54.616 23.4501C54.6703 24.2815 54.6978 25.1044 54.6875 25.9375C54.0548 25.7115 53.54 25.4044 52.984 25.0287C52.8973 24.9705 52.8105 24.9122 52.7211 24.8522C52.4419 24.6645 52.1633 24.4759 51.8848 24.2871C51.5049 24.0311 51.1248 23.7755 50.7446 23.5199C50.6523 23.4578 50.5599 23.3956 50.4647 23.3315C49.5985 22.7498 48.7187 22.1923 47.8302 21.6455C47.6668 21.5271 47.6668 21.5271 47.5 21.4063C47.5 21.3032 47.5 21.2 47.5 21.0938C47.805 20.8932 48.1193 20.7064 48.4375 20.5274C48.6115 20.4287 48.7855 20.33 48.9648 20.2283C49.1002 20.153 49.2355 20.0777 49.375 20C48.8748 18.9655 48.3338 17.9722 47.7344 16.9922C47.568 16.7176 47.4018 16.443 47.2357 16.1683C47.1505 16.0275 47.0653 15.8868 46.9775 15.7418C46.5514 15.0349 46.1321 14.3242 45.7129 13.6133C45.5876 13.4012 45.5876 13.4012 45.4599 13.1849C45.019 12.4382 44.5793 11.6909 44.1406 10.943C44.0507 10.79 43.9607 10.637 43.8681 10.4794C43.6976 10.1893 43.5274 9.89907 43.3576 9.60858C42.4009 7.71974 42.4009 7.71974 40.7812 6.56254C39.9074 6.4495 39.1882 6.45905 38.4127 6.93474C37.7592 7.50902 37.3822 8.32195 36.9629 9.07231C36.8546 9.26131 36.746 9.45015 36.6371 9.63883C36.411 10.0311 36.1862 10.4241 35.9622 10.8176C35.4355 11.7404 34.8895 12.6517 34.3457 13.5645C34.1373 13.916 33.9289 14.2676 33.7207 14.6192C33.6206 14.7882 33.5205 14.9572 33.4174 15.1313C32.9712 15.8848 32.5256 16.6387 32.0801 17.3926C31.9983 17.531 31.9165 17.6694 31.8322 17.812C31.4131 18.5212 30.9946 19.2308 30.5768 19.9408C30.1554 20.6566 29.7326 21.3714 29.3085 22.0855C29.1433 22.3639 28.9785 22.6425 28.8141 22.9213C28.5793 23.3188 28.3426 23.7152 28.1055 24.1114C28.0353 24.231 27.965 24.3505 27.8927 24.4738C27.3974 25.2947 27.3974 25.2947 26.875 25.4688C26.5089 25.276 26.1745 25.0793 25.8301 24.8536C25.7353 24.7932 25.6405 24.7329 25.5429 24.6708C25.3089 24.5215 25.0762 24.3703 24.8438 24.2188C25.3675 23.1003 25.9803 22.0455 26.6205 20.9913C27.0797 20.235 27.5292 19.4731 27.9785 18.711C28.8084 17.3047 29.64 15.8996 30.4729 14.4951C31.1001 13.4376 31.726 12.3794 32.3494 11.3197C32.6773 10.7633 33.0073 10.2081 33.3372 9.6529C33.6126 9.18684 33.8845 8.71879 34.1565 8.25077C34.3464 7.92885 34.5364 7.60699 34.7266 7.2852C34.8113 7.13751 34.896 6.98982 34.9833 6.83766C35.7733 5.51253 36.8005 4.36877 38.2916 3.8477C39.8192 3.52225 41.4514 3.56247 42.8125 4.37504Z" fill="#044D91"/>
<path d="M57.347 28.1448C57.7544 28.3245 57.8552 28.5143 58.0737 28.9001C58.1888 29.0993 58.1888 29.0993 58.3063 29.3026C58.3883 29.4489 58.4702 29.5953 58.5547 29.746C58.7361 30.0614 58.9175 30.3768 59.0991 30.6921C59.2425 30.9431 59.2425 30.9431 59.3887 31.1991C59.8958 32.0809 60.4174 32.9539 60.9375 33.8281C61.1503 34.1866 61.3628 34.5454 61.5753 34.9041C61.6784 35.078 61.7814 35.2519 61.8876 35.4311C62.5835 36.6061 63.2779 37.782 63.9724 38.9578C64.3081 39.5262 64.6439 40.0945 64.9798 40.6628C65.1483 40.948 65.3167 41.2334 65.485 41.5187C65.9245 42.2639 66.3666 43.0074 66.8127 43.7487C66.951 43.9795 66.951 43.9795 67.092 44.215C67.2675 44.5081 67.4439 44.8007 67.6212 45.0927C68.5754 46.6899 69.0375 48.1143 68.75 49.9999C68.2857 51.4572 67.4254 52.6277 66.0645 53.3398C65.4301 53.6369 64.8586 53.7696 64.1576 53.7687C64.0213 53.7689 63.8851 53.7691 63.7447 53.7694C63.5964 53.7688 63.4482 53.7682 63.2954 53.7677C63.1384 53.7677 62.9813 53.7677 62.8195 53.7677C62.3004 53.7676 61.7813 53.7664 61.2622 53.7652C60.9023 53.7649 60.5423 53.7647 60.1824 53.7645C59.2351 53.7639 58.2877 53.7624 57.3404 53.7607C56.3737 53.7591 55.407 53.7583 54.4403 53.7576C52.5435 53.7559 50.6468 53.7532 48.75 53.7499C48.75 54.5749 48.75 55.3999 48.75 56.2499C48.1496 56.0498 47.6547 55.8779 47.1037 55.6007C46.9723 55.5351 46.841 55.4694 46.7057 55.4017C46.4977 55.2965 46.4977 55.2965 46.2854 55.1891C46.0689 55.0806 46.0689 55.0806 45.848 54.9698C45.3893 54.7395 44.931 54.5084 44.4727 54.2773C44.1608 54.1206 43.8489 53.9639 43.537 53.8073C42.7743 53.4242 42.012 53.0405 41.25 52.6562C41.25 52.5531 41.25 52.4499 41.25 52.3437C42.2675 51.831 43.2854 51.3193 44.3037 50.8083C44.6503 50.6342 44.9967 50.4599 45.3431 50.2853C45.84 50.035 46.3373 49.7854 46.8347 49.5361C46.9903 49.4574 47.1459 49.3788 47.3062 49.2978C47.5221 49.1899 47.5221 49.1899 47.7422 49.0798C47.9327 48.9841 47.9327 48.9841 48.1271 48.8864C48.4375 48.7499 48.4375 48.7499 48.75 48.7499C48.75 49.5749 48.75 50.3999 48.75 51.2499C50.6611 51.2403 52.5722 51.2283 54.4833 51.2131C55.3708 51.2061 56.2582 51.2 57.1457 51.1958C58.0028 51.1917 58.8599 51.1854 59.717 51.1776C60.0434 51.175 60.3697 51.1731 60.6961 51.1722C61.1546 51.1707 61.613 51.1663 62.0715 51.1612C62.2052 51.1615 62.339 51.1617 62.4768 51.1619C63.5983 51.1446 64.6002 50.9664 65.4688 50.2245C65.9656 49.619 66.013 49.1981 65.9977 48.4283C65.9316 47.9236 65.7944 47.6261 65.5414 47.1868C65.4559 47.0369 65.3705 46.8871 65.2825 46.7327C65.1427 46.4937 65.1427 46.4937 65 46.2499C64.9057 46.0865 64.8113 45.9231 64.7142 45.7547C64.4015 45.2153 64.0859 44.6777 63.7695 44.1406C63.6528 43.9419 63.5361 43.7432 63.4193 43.5445C62.3291 41.6896 61.2317 39.839 60.1336 37.9887C59.6057 37.0986 59.0793 36.2076 58.5534 35.3164C58.1226 34.5865 57.6907 33.8574 57.2571 33.1292C57.1195 32.8977 57.1195 32.8977 56.9792 32.6616C56.8048 32.3681 56.6301 32.0749 56.455 31.782C55.9871 30.9938 55.5554 30.2001 55.1562 29.3749C57.0312 28.1249 57.0312 28.1249 57.347 28.1448Z" fill="#044D91"/>
<path d="M24.2187 27.9688C24.1207 30.7859 23.9487 33.5947 23.7499 36.4062C23.0301 36.2775 22.6029 36.0362 22.0104 35.6189C21.9142 35.5693 21.8179 35.5198 21.7187 35.4688C21.155 35.6566 21.1218 35.7711 20.8435 36.2756C20.7676 36.4111 20.6918 36.5465 20.6137 36.6861C20.4936 36.9053 20.4936 36.9053 20.371 37.1289C20.2014 37.4324 20.0315 37.7357 19.8614 38.0389C19.7781 38.1881 19.6949 38.3372 19.6091 38.4908C19.3094 39.0226 18.9983 39.5466 18.6816 40.0684C17.4197 42.1551 16.1832 44.2571 14.9609 46.3672C14.8881 46.4928 14.8153 46.6185 14.7403 46.7479C14.1713 47.7327 13.9355 48.3669 14.0624 49.5312C14.4306 50.31 14.828 50.6285 15.6249 50.9375C16.1912 51.0744 16.7191 51.1147 17.3009 51.1185C17.4795 51.12 17.6581 51.1215 17.842 51.1231C18.0365 51.124 18.2309 51.1249 18.4312 51.1258C18.6371 51.1274 18.8429 51.1289 19.055 51.1305C19.6183 51.1347 20.1816 51.138 20.7449 51.1411C21.334 51.1446 21.9231 51.1488 22.5122 51.153C23.6272 51.1608 24.7422 51.1678 25.8573 51.1746C27.1269 51.1823 28.3965 51.1909 29.6662 51.1995C32.2774 51.2173 34.8887 51.234 37.5 51.25C37.5 52.075 37.5 52.9 37.5 53.75C34.6137 53.7645 31.7274 53.7756 28.8411 53.7824C27.5008 53.7856 26.1606 53.79 24.8204 53.7971C23.6517 53.8034 22.4831 53.8074 21.3144 53.8088C20.696 53.8096 20.0777 53.8115 19.4594 53.8161C18.8763 53.8204 18.2934 53.8216 17.7103 53.8207C17.3964 53.8209 17.0825 53.8243 16.7686 53.8278C15.1117 53.8203 13.8383 53.4818 12.6177 52.3328C11.6728 51.2931 11.194 50.206 11.1914 48.7988C11.1875 48.6962 11.1837 48.5936 11.1798 48.4879C11.1708 46.9509 11.9971 45.6589 12.7734 44.3848C12.9549 44.0823 13.1364 43.7797 13.3178 43.4772C13.4134 43.3187 13.509 43.1602 13.6074 42.9969C14.1282 42.1308 14.6417 41.2604 15.1562 40.3906C15.3669 40.035 15.5777 39.6793 15.7885 39.3237C16.3724 38.3384 16.956 37.353 17.539 36.3672C17.621 36.2287 17.703 36.0902 17.7874 35.9476C18.2185 35.2184 18.6443 34.4867 19.0624 33.75C18.9303 33.7113 18.7982 33.6727 18.6621 33.6328C18.0649 33.4157 17.5752 33.1389 17.0312 32.8125C17.0312 32.7094 17.0312 32.6062 17.0312 32.5C17.2503 32.3183 17.2503 32.3183 17.5614 32.1159C17.6772 32.0397 17.7931 31.9635 17.9124 31.8851C18.0394 31.8032 18.1663 31.7213 18.2971 31.637C18.4266 31.5522 18.5562 31.4674 18.6897 31.3801C19.1063 31.1078 19.5238 30.8371 19.9414 30.5664C20.2195 30.385 20.4977 30.2036 20.7757 30.022C21.4017 29.6133 22.0282 29.2055 22.6556 28.7991C22.9416 28.6115 23.2232 28.4188 23.5048 28.2247C23.9062 27.9688 23.9062 27.9688 24.2187 27.9688Z" fill="#044D91"/>
<path d="M43.5028 22.1105C44.8783 23.1012 45.912 24.4115 46.25 26.0937C46.4629 28.0692 46.2993 29.7981 45.0488 31.4062C44.9077 31.5705 44.9077 31.5705 44.7638 31.7382C44.4998 32.0365 44.4998 32.0365 44.375 32.4999C44.4525 32.5626 44.5301 32.6252 44.61 32.6897C46.0886 33.9271 47.0803 35.2834 47.5 37.1874C47.7293 39.907 47.3064 41.9406 45.5225 44.0569C44.2715 45.4052 42.6643 46.1979 40.835 46.2994C38.2277 46.3868 36.3546 45.814 34.4141 44.0136C33.2146 42.7462 32.4781 41.1858 32.4707 39.4335C32.4852 39.0951 32.4852 39.0951 32.5 38.7499C33.3766 38.7499 34.2531 38.7499 35.1563 38.7499C35.1885 39.0013 35.2207 39.2527 35.2539 39.5116C35.485 40.7583 36.0122 41.7695 37.0117 42.5683C38.3244 43.4393 39.5182 43.5952 41.0938 43.4374C42.2882 43.1506 43.2963 42.5526 43.985 41.524C44.7649 40.1709 44.945 38.7463 44.5807 37.2039C44.1081 35.9273 43.3615 35.0165 42.1521 34.3829C41.4237 34.1069 40.6667 33.9995 39.8993 33.886C39.3211 33.7359 39.1002 33.6031 38.75 33.1249C38.667 32.8124 38.667 32.8124 38.6719 32.4999C38.6703 32.3968 38.6687 32.2937 38.667 32.1874C38.7901 31.7239 38.999 31.5428 39.375 31.2499C39.8474 31.1083 39.8474 31.1083 40.3711 31.0156C41.1853 30.8502 41.6959 30.6639 42.3438 30.1562C42.4469 30.1562 42.55 30.1562 42.6563 30.1562C42.7637 29.9495 42.8667 29.7406 42.9688 29.5312C43.0525 29.3765 43.1363 29.2218 43.2227 29.0624C43.5966 28.1707 43.6247 27.0902 43.302 26.1803C43.1417 25.8533 43.1417 25.8533 42.9645 25.5657C42.8125 25.3124 42.8125 25.3124 42.6563 24.8437C42.383 24.6743 42.383 24.6743 42.0313 24.5312C41.8913 24.4522 41.7513 24.3733 41.6071 24.2919C40.731 23.9002 39.847 23.9424 38.9063 24.0624C38.5156 24.2304 38.2169 24.4117 37.8833 24.6728C37.6563 24.8437 37.6563 24.8437 37.3438 24.8437C36.8848 25.7262 36.5712 26.5105 36.4063 27.4999C35.5297 27.4999 34.6531 27.4999 33.75 27.4999C33.6429 25.8673 34.1033 24.5463 35.1605 23.2916C37.3387 21.0099 40.7665 20.4042 43.5028 22.1105Z" fill="#044D91"/>
<path d="M14.3616 59.9169C14.4818 59.9163 14.6021 59.9157 14.726 59.9151C14.9805 59.9146 15.2351 59.9158 15.4896 59.9184C15.8744 59.9217 16.2588 59.9185 16.6437 59.9144C18.3726 59.9113 19.8459 60.0624 21.167 61.2963C22.3223 62.5812 22.5909 63.9428 22.5488 65.6267C22.4747 66.937 21.9102 68.0316 20.9375 68.9061C19.611 69.9036 18.445 70.0442 16.8164 70.0194C15.9173 70.0098 15.9173 70.0098 15 69.9999C15 71.6499 15 73.2999 15 74.9999C14.175 74.9999 13.35 74.9999 12.5 74.9999C12.4855 73.1364 12.4744 71.273 12.4676 69.4095C12.4644 68.5442 12.4599 67.679 12.4529 66.8137C12.4461 65.9789 12.4423 65.1441 12.4407 64.3093C12.4395 63.9906 12.4373 63.6719 12.4339 63.3532C12.4294 62.9072 12.4288 62.4614 12.4291 62.0154C12.4268 61.8833 12.4246 61.7511 12.4222 61.6149C12.4264 61.0236 12.4308 60.7217 12.7818 60.2305C13.2866 59.8913 13.7739 59.9104 14.3616 59.9169ZM15 62.4999C15 64.1499 15 65.7999 15 67.4999C17.2091 67.6589 17.2091 67.6589 19.1583 66.8023C19.7972 66.0662 19.8993 65.5605 19.8871 64.6154C19.8229 64.0273 19.6121 63.7158 19.2188 63.2811C17.8782 62.2258 16.7928 62.4999 15 62.4999Z" fill="#044D91"/>
<path d="M42.4829 60.4285C43.659 61.1298 44.3472 62.0348 44.8925 63.2813C45 63.75 45 63.75 45 65C44.1234 65 43.2468 65 42.3437 65C42.2519 64.6713 42.2519 64.6713 42.1582 64.3359C41.9386 63.671 41.7034 63.344 41.0937 62.9688C40.5137 62.6787 39.8518 62.7425 39.2187 62.8125C38.5206 63.1552 38.1392 63.5136 37.8125 64.2188C37.5716 65.1676 37.6213 66.1458 37.6187 67.1179C37.6172 67.4578 37.6123 67.7974 37.6074 68.1372C37.5984 69.305 37.6359 70.3235 38.125 71.4063C38.8603 72.1237 39.3858 72.243 40.3839 72.2315C40.9674 72.1669 41.2874 71.9518 41.7187 71.5625C42.1285 71.0114 42.2038 70.6995 42.3437 70C43.2203 70 44.0968 70 45 70C45 71.4878 44.731 72.5669 43.7036 73.667C42.4186 74.8223 41.0571 75.0909 39.3731 75.0488C38.0629 74.9747 36.9683 74.4102 36.0937 73.4375C35.1671 72.2054 34.9509 71.0905 34.9475 69.5728C34.9464 69.4113 34.9454 69.2499 34.9443 69.0836C34.9427 68.7426 34.942 68.4017 34.9421 68.0608C34.9414 67.543 34.9357 67.0254 34.9298 66.5076C34.9289 66.1751 34.9282 65.8427 34.9279 65.5103C34.9257 65.3572 34.9235 65.2042 34.9211 65.0465C34.9304 63.6272 35.3141 62.3848 36.2964 61.333C37.9521 59.8443 40.4589 59.4572 42.4829 60.4285Z" fill="#044D91"/>
<path d="M59.375 60.0001C59.9339 60.4651 60.1299 60.8769 60.3357 61.5675C60.3924 61.7541 60.4491 61.9408 60.5076 62.1331C60.5663 62.3335 60.625 62.534 60.6836 62.7345C60.7449 62.9389 60.8063 63.1432 60.8679 63.3475C60.991 63.7566 61.1129 64.1661 61.2339 64.5758C61.3884 65.0962 61.5461 65.6154 61.706 66.1342C61.7916 66.4137 61.8773 66.6932 61.9629 66.9728C62.0022 67.1002 62.0414 67.2276 62.0819 67.3588C62.2264 67.8381 62.3438 68.2466 62.3438 68.7501C62.4469 68.7501 62.55 68.7501 62.6563 68.7501C62.6739 68.6546 62.6915 68.5592 62.7097 68.4608C62.8895 67.5215 63.1178 66.6108 63.393 65.6953C63.433 65.5606 63.4731 65.426 63.5144 65.2872C63.5984 65.0055 63.6829 64.7239 63.7677 64.4424C63.8969 64.0125 64.0242 63.5821 64.1513 63.1517C64.2337 62.8765 64.3162 62.6013 64.3988 62.3262C64.4552 62.1345 64.4552 62.1345 64.5128 61.939C64.7103 61.2893 64.9106 60.7139 65.3125 60.1564C65.8142 59.9055 66.3308 59.927 66.875 60.0001C67.2656 60.2247 67.2656 60.2247 67.5 60.6251C67.6053 61.5563 67.4516 62.3975 67.1776 63.283C67.1261 63.4575 67.1261 63.4575 67.0736 63.6355C66.9611 64.0153 66.8458 64.3941 66.7304 64.7731C66.6508 65.0389 66.5713 65.3048 66.492 65.5707C66.326 66.1258 66.1587 66.6804 65.9904 67.2348C65.775 67.9444 65.5623 68.6547 65.3505 69.3653C65.1868 69.9135 65.0221 70.4614 64.857 71.0092C64.7782 71.271 64.6996 71.5329 64.6214 71.7949C64.5118 72.1608 64.4008 72.5264 64.2894 72.8918C64.2415 73.053 64.2415 73.053 64.1927 73.2175C64.0088 73.8144 63.7975 74.3316 63.4375 74.8439C62.9485 75.0884 62.4046 75.109 61.875 75.0001C61.3739 74.5734 61.1504 74.2246 60.9638 73.5975C60.9143 73.4351 60.8648 73.2727 60.8139 73.1054C60.7612 72.925 60.7086 72.7446 60.6543 72.5587C60.5656 72.2624 60.4768 71.9661 60.3879 71.6699C60.3215 71.4478 60.2555 71.2256 60.1897 71.0034C59.9299 70.1263 59.6623 69.2518 59.3922 68.3778C59.1755 67.6758 58.9606 66.9733 58.7459 66.2707C58.6384 65.9198 58.5302 65.569 58.4215 65.2184C58.2669 64.719 58.1148 64.2188 57.9633 63.7184C57.9165 63.5691 57.8697 63.4198 57.8214 63.266C57.5481 62.3526 57.4332 61.5795 57.5 60.6251C57.9157 59.915 58.6075 59.7963 59.375 60.0001Z" fill="#044D91"/>
<path d="M25.625 60.0001C26.1839 60.4651 26.3799 60.8769 26.5857 61.5675C26.6424 61.7541 26.6991 61.9408 26.7576 62.1331C26.8163 62.3335 26.875 62.534 26.9336 62.7345C26.9949 62.9389 27.0563 63.1432 27.1179 63.3475C27.241 63.7566 27.3629 64.1661 27.4839 64.5758C27.6384 65.0962 27.7961 65.6154 27.956 66.1342C28.0416 66.4137 28.1273 66.6932 28.2129 66.9728C28.2522 67.1002 28.2914 67.2276 28.3319 67.3588C28.4764 67.8381 28.5938 68.2466 28.5938 68.7501C28.6969 68.7501 28.8 68.7501 28.9063 68.7501C28.9239 68.6546 28.9415 68.5592 28.9597 68.4608C29.1395 67.5215 29.3678 66.6108 29.643 65.6953C29.683 65.5606 29.7231 65.426 29.7644 65.2872C29.8484 65.0055 29.9329 64.7239 30.0177 64.4424C30.1469 64.0125 30.2742 63.5821 30.4013 63.1517C30.4837 62.8765 30.5662 62.6013 30.6488 62.3262C30.7052 62.1345 30.7052 62.1345 30.7628 61.939C30.9603 61.2893 31.1606 60.7139 31.5625 60.1564C32.0642 59.9055 32.5808 59.927 33.125 60.0001C33.5156 60.2247 33.5156 60.2247 33.75 60.6251C33.8553 61.5563 33.7016 62.3975 33.4276 63.283C33.3761 63.4575 33.3761 63.4575 33.3236 63.6355C33.2111 64.0153 33.0958 64.3941 32.9804 64.7731C32.9008 65.0389 32.8213 65.3048 32.742 65.5707C32.576 66.1258 32.4087 66.6804 32.2404 67.2348C32.025 67.9444 31.8123 68.6547 31.6005 69.3653C31.4368 69.9135 31.2721 70.4614 31.107 71.0092C31.0282 71.271 30.9496 71.5329 30.8714 71.7949C30.7618 72.1608 30.6508 72.5264 30.5394 72.8918C30.4915 73.053 30.4915 73.053 30.4427 73.2175C30.2588 73.8144 30.0475 74.3316 29.6875 74.8439C29.1985 75.0884 28.6546 75.109 28.125 75.0001C27.6239 74.5734 27.4004 74.2246 27.2138 73.5975C27.1643 73.4351 27.1148 73.2727 27.0639 73.1054C27.0112 72.925 26.9586 72.7446 26.9043 72.5587C26.8156 72.2624 26.7268 71.9661 26.6379 71.6699C26.5715 71.4478 26.5055 71.2256 26.4397 71.0034C26.1799 70.1263 25.9123 69.2518 25.6422 68.3778C25.4255 67.6758 25.2106 66.9733 24.9959 66.2707C24.8884 65.9198 24.7802 65.569 24.6715 65.2184C24.5169 64.719 24.3648 64.2188 24.2133 63.7184C24.1665 63.5691 24.1197 63.4198 24.0714 63.266C23.7981 62.3526 23.6832 61.5795 23.75 60.6251C24.1657 59.915 24.8575 59.7963 25.625 60.0001Z" fill="#044D91"/>
<path d="M54.0772 59.9414C54.375 59.9999 54.375 59.9999 54.7657 60.2343C55.0897 60.7745 55.0632 61.2657 55 61.8749C54.8877 62.3179 54.7245 62.7321 54.551 63.1544C54.5032 63.2755 54.4554 63.3966 54.4062 63.5214C54.249 63.9183 54.0887 64.3138 53.9283 64.7094C53.8175 64.9863 53.7069 65.2633 53.5964 65.5403C53.365 66.1193 53.1321 66.6976 52.8981 67.2755C52.5985 68.0156 52.3023 68.7571 52.0071 69.499C51.7794 70.0705 51.5501 70.6414 51.3202 71.212C51.2104 71.4852 51.101 71.7586 50.9921 72.0321C50.8396 72.4142 50.6851 72.7954 50.53 73.1764C50.4855 73.289 50.441 73.4017 50.3951 73.5178C50.1425 74.1311 49.8932 74.5791 49.375 74.9999C48.9457 75.114 48.5594 75.0854 48.125 74.9999C47.7344 74.7656 47.7344 74.7656 47.5 74.3749C47.428 73.4143 47.5864 72.7284 47.9491 71.8455C47.9969 71.7244 48.0446 71.6033 48.0938 71.4785C48.251 71.0816 48.4113 70.6861 48.5718 70.2905C48.6826 70.0136 48.7932 69.7366 48.9036 69.4596C49.135 68.8806 49.3679 68.3023 49.6019 67.7244C49.9015 66.9843 50.1978 66.2428 50.4929 65.5009C50.7207 64.9294 50.95 64.3585 51.1798 63.7878C51.2897 63.5147 51.399 63.2413 51.508 62.9678C51.6604 62.5857 51.815 62.2045 51.9701 61.8235C52.0146 61.7108 52.0591 61.5982 52.105 61.4821C52.5335 60.4416 52.9285 59.8728 54.0772 59.9414Z" fill="#044D91"/>
</svg>
