<svg width="375" height="50" viewBox="0 0 375 50" fill="none" xmlns="http://www.w3.org/2000/svg">
<path d="M0 10.0949L5.20833 11.3123C10.4167 12.5974 20.8333 15.0323 31.25 12.6651C41.6667 10.2978 52.0833 3.12842 62.5 0.828806C72.9167 -1.40317 83.3333 1.30226 93.75 3.87241C104.167 6.51021 114.583 8.94511 125 9.55383C135.417 10.0949 145.833 8.74219 156.25 10.2978C166.667 11.9211 177.083 16.385 187.5 17.6701C197.917 18.8876 208.333 16.8585 218.75 15.5058C229.167 14.1531 239.583 13.4767 250 10.2978C260.417 7.18657 270.833 1.50517 281.25 0.625907C291.667 -0.253357 302.083 3.53424 312.5 6.37495C322.917 9.21565 333.333 10.9742 343.75 9.89201C354.167 8.7422 364.583 4.68405 369.792 2.65498L375 0.625907V50H369.792C364.583 50 354.167 50 343.75 50C333.333 50 322.917 50 312.5 50C302.083 50 291.667 50 281.25 50C270.833 50 260.417 50 250 50C239.583 50 229.167 50 218.75 50C208.333 50 197.917 50 187.5 50C177.083 50 166.667 50 156.25 50C145.833 50 135.417 50 125 50C114.583 50 104.167 50 93.75 50C83.3333 50 72.9167 50 62.5 50C52.0833 50 41.6667 50 31.25 50C20.8333 50 10.4167 50 5.20833 50H0V10.0949Z" fill="#FBF9FF"/>
</svg>
