<svg width="375" height="41" viewBox="0 0 375 41" fill="none" xmlns="http://www.w3.org/2000/svg">
<path d="M375 10.2507L366.042 10.1389C357.083 10.083 339.167 9.85938 321.333 10.3625C303.458 10.8098 285.708 11.928 267.833 9.3003C250 6.72854 232.083 0.355054 214.25 0.0196075C196.375 -0.371747 178.625 5.21903 160.75 5.66629C142.917 6.16946 125 1.47322 107.167 3.70953C89.2917 5.94584 71.5417 15.1147 53.6667 18.9164C35.8333 22.7182 17.9167 21.2646 8.95834 20.4819L0 19.7551V41H8.95834C17.9167 41 35.8333 41 53.6667 41C71.5417 41 89.2917 41 107.167 41C125 41 142.917 41 160.75 41C178.625 41 196.375 41 214.25 41C232.083 41 250 41 267.833 41C285.708 41 303.458 41 321.333 41C339.167 41 357.083 41 366.042 41H375V10.2507Z" fill="#FBF9FF"/>
</svg>
