<svg width="375" height="25" viewBox="0 0 375 25" fill="none" xmlns="http://www.w3.org/2000/svg">
<path d="M-11 25L-1.77889 22.5C7.44222 19.9658 25.8844 14.9658 44.2409 12.7397C62.6402 10.5137 80.9109 11.0616 99.3102 13.0822C117.667 15.0685 136.109 18.4932 154.465 19.6918C172.865 20.8904 191.135 19.863 209.535 20.9589C227.891 22.0205 246.333 25.2397 264.69 24.8973C283.089 24.5548 301.36 20.6507 319.759 18.1507C338.116 15.6507 356.558 14.4863 365.779 13.9384L375 13.3562V0H365.779C356.558 0 338.116 0 319.759 0C301.36 0 283.089 0 264.69 0C246.333 0 227.891 0 209.535 0C191.135 0 172.865 0 154.465 0C136.109 0 117.667 0 99.3102 0C80.9109 0 62.6402 0 44.2409 0C25.8844 0 7.44222 0 -1.77889 0H-11V25Z" fill="#FBF9FF"/>
</svg>
