<svg width="375" height="16" viewBox="0 0 375 16" fill="none" xmlns="http://www.w3.org/2000/svg">
<path d="M0 16L8.95833 14.4C17.9167 12.7781 35.8333 9.57808 53.6667 8.15342C71.5417 6.72877 89.2917 7.07945 107.167 8.3726C125 9.64384 142.917 11.8356 160.75 12.6027C178.625 13.3699 196.375 12.7123 214.25 13.4137C232.083 14.0932 250 16.1534 267.833 15.9342C285.708 15.7151 303.458 13.2164 321.333 11.6164C339.167 10.0164 357.083 9.27123 366.042 8.92055L375 8.54795V0H366.042C357.083 0 339.167 0 321.333 0C303.458 0 285.708 0 267.833 0C250 0 232.083 0 214.25 0C196.375 0 178.625 0 160.75 0C142.917 0 125 0 107.167 0C89.2917 0 71.5417 0 53.6667 0C35.8333 0 17.9167 0 8.95833 0H0V16Z" fill="#FBF9FF"/>
</svg>
