<svg width="375" height="30" viewBox="0 0 375 30" fill="none" xmlns="http://www.w3.org/2000/svg">
<path d="M-2 0L7.03 0.138889C16.06 0.277778 34.12 0.555556 52.096 0.555556C70.114 0.555556 88.006 0.277774 106.024 0.916663C124 1.58333 142.06 3.13889 160.036 4.38889C178.054 5.63889 195.946 6.58333 213.964 7.22222C231.94 7.86111 250 8.25 267.976 7.91667C285.994 7.58333 303.886 6.58333 321.904 6.25C339.88 5.91667 357.94 6.30555 366.97 6.47222L376 6.66667V30H366.97C357.94 30 339.88 30 321.904 30C303.886 30 285.994 30 267.976 30C250 30 231.94 30 213.964 30C195.946 30 178.054 30 160.036 30C142.06 30 124 30 106.024 30C88.006 30 70.114 30 52.096 30C34.12 30 16.06 30 7.03 30H-2V0Z" fill="#000022"/>
</svg>
