<svg width="325" height="42" viewBox="0 0 325 42" fill="none" xmlns="http://www.w3.org/2000/svg">
<path d="M0 18.4045L7.76389 17.4607C15.5278 16.5169 31.0556 14.6292 46.5111 12.0337C62.0028 9.4382 77.3861 6.13484 92.8778 7.64495C108.333 9.10787 123.861 15.4315 139.317 15.9506C154.808 16.5168 170.192 11.3258 185.683 8.25843C201.139 5.19101 216.667 4.24719 232.122 5.56853C247.614 6.93707 262.997 10.5236 278.489 10.0045C293.944 9.43821 309.472 4.7191 317.236 2.35955L325 0V42H317.236C309.472 42 293.944 42 278.489 42C262.997 42 247.614 42 232.122 42C216.667 42 201.139 42 185.683 42C170.192 42 154.808 42 139.317 42C123.861 42 108.333 42 92.8778 42C77.3861 42 62.0028 42 46.5111 42C31.0556 42 15.5278 42 7.76389 42H0V18.4045Z" fill="#FBF9FF"/>
</svg>
