<svg width="375" height="43" viewBox="0 0 375 43" fill="none" xmlns="http://www.w3.org/2000/svg">
<path d="M-1 26.518L14.0261 29.4453C29.0522 32.3726 59.1044 38.2272 89.0169 37.0219C118.999 35.8165 148.772 27.5512 178.754 27.6545C208.667 27.7922 238.719 36.2642 268.631 40.2247C298.614 44.1852 328.386 43.6341 358.369 40.2936C388.281 36.953 418.333 30.8917 448.246 28.4121C478.228 25.9325 508.001 27.1034 537.983 28.1366C567.896 29.1698 597.948 30.0652 612.974 30.5473L628 30.995V0H612.974C597.948 0 567.896 0 537.983 0C508.001 0 478.228 0 448.246 0C418.333 0 388.281 0 358.369 0C328.386 0 298.614 0 268.631 0C238.719 0 208.667 0 178.754 0C148.772 0 118.999 0 89.0169 0C59.1044 0 29.0522 0 14.0261 0H-1V26.518Z" fill="#FBF9FF"/>
</svg>
