<svg width="375" height="95" viewBox="0 0 375 95" fill="none" xmlns="http://www.w3.org/2000/svg">
<path d="M-128 14.6154L-120.403 22.1667C-112.805 29.5962 -97.6104 44.6987 -82.3108 43.8462C-67.0636 42.9936 -51.6593 26.4295 -36.4121 24.7243C-21.1125 23.141 -5.91771 36.5385 9.27708 37.391C24.4719 38.1218 39.6667 26.4295 54.8615 18.5128C70.0562 10.5962 85.251 6.45511 100.551 13.1538C115.798 19.8525 131.202 37.391 146.449 39.9487C161.749 42.6282 176.944 30.4487 192.139 20.9487C207.333 11.3269 222.528 4.50642 237.723 5.1154C252.918 5.72437 268.112 13.7628 283.412 14.6154C298.659 15.4679 314.064 8.89101 329.311 5.23716C344.61 1.58332 359.805 0.852549 367.403 0.36537L375 0V95H367.403C359.805 95 344.61 95 329.311 95C314.064 95 298.659 95 283.412 95C268.112 95 252.918 95 237.723 95C222.528 95 207.333 95 192.139 95C176.944 95 161.749 95 146.449 95C131.202 95 115.798 95 100.551 95C85.251 95 70.0562 95 54.8615 95C39.6667 95 24.4719 95 9.27708 95C-5.91771 95 -21.1125 95 -36.4121 95C-51.6593 95 -67.0636 95 -82.3108 95C-97.6104 95 -112.805 95 -120.403 95H-128V14.6154Z" fill="#000022"/>
</svg>
