<svg width="375" height="56" viewBox="0 0 375 56" fill="none" xmlns="http://www.w3.org/2000/svg">
<path d="M0 2.1L8.95833 6.3C17.9167 10.5 35.8333 18.9 53.6667 17.675C71.5417 16.45 89.2917 5.6 107.167 2.52C125 -0.594996 142.917 4.095 160.75 10.15C178.625 16.205 196.375 23.695 214.25 27.93C232.083 32.2 250 33.25 267.833 29.47C285.708 25.655 303.458 17.045 321.333 11.305C339.167 5.6 357.083 2.8 366.042 1.4L375 0V56H366.042C357.083 56 339.167 56 321.333 56C303.458 56 285.708 56 267.833 56C250 56 232.083 56 214.25 56C196.375 56 178.625 56 160.75 56C142.917 56 125 56 107.167 56C89.2917 56 71.5417 56 53.6667 56C35.8333 56 17.9167 56 8.95833 56H0L0 2.1Z" fill="#00D1FF"/>
</svg>
