<svg width="375" height="56" viewBox="0 0 375 56" fill="none" xmlns="http://www.w3.org/2000/svg">
<path d="M375 53.9L366.042 49.7C357.083 45.5 339.167 37.1 321.333 38.325C303.458 39.55 285.708 50.4 267.833 53.48C250 56.595 232.083 51.905 214.25 45.85C196.375 39.795 178.625 32.305 160.75 28.07C142.917 23.8 125 22.75 107.167 26.53C89.2917 30.345 71.5417 38.955 53.6667 44.695C35.8333 50.4 17.9167 53.2 8.95834 54.6L0 56V-1.37091e-06H8.95834C17.9167 -1.37091e-06 35.8333 -1.37091e-06 53.6667 -1.37091e-06C71.5417 -1.37091e-06 89.2917 -1.37091e-06 107.167 -1.37091e-06C125 -1.37091e-06 142.917 -1.37091e-06 160.75 -1.37091e-06C178.625 -1.37091e-06 196.375 -1.37091e-06 214.25 -1.37091e-06C232.083 -1.37091e-06 250 -1.37091e-06 267.833 -1.37091e-06C285.708 -1.37091e-06 303.458 -1.37091e-06 321.333 -1.37091e-06C339.167 -1.37091e-06 357.083 -1.37091e-06 366.042 -1.37091e-06H375V53.9Z" fill="#FBF9FF"/>
</svg>
